M48
; DRILL file KiCad 10.0.1 date 2026-09-07T17:07:42
; FORMAT={-:-/ absolute / metric / decimal}
; #@! TF.CreationDate,2026-09-07T17:07:42+03:00
; #@! TF.GenerationSoftware,Kicad,Pcbnew,10.0.1
; #@! TF.FileFunction,NonPlated,1,2,NPTH
FMAT,2
METRIC
; #@! TA.AperFunction,NonPlated,NPTH,ComponentDrill
T1C1.700
; #@! TA.AperFunction,NonPlated,NPTH,ComponentDrill
T2C1.850
; #@! TA.AperFunction,NonPlated,NPTH,ComponentDrill
T3C2.200
; #@! TA.AperFunction,NonPlated,NPTH,ComponentDrill
T4C3.050
; #@! TA.AperFunction,NonPlated,NPTH,ComponentDrill
T5C3.200
; #@! TA.AperFunction,NonPlated,NPTH,ComponentDrill
T6C4.000
%
G90
G05
T1
X39.377Y122.91
X39.377Y99.097
X41.759Y22.897
X44.14Y80.047
X46.521Y60.997
X49.537Y122.91
X49.537Y99.097
X51.284Y41.947
X51.919Y22.897
X54.3Y80.047
X56.681Y60.997
X58.427Y122.91
X58.427Y99.097
X61.444Y41.947
X65.571Y22.897
X67.953Y80.047
X68.587Y122.91
X68.587Y99.097
X72.715Y60.997
X75.731Y22.897
X77.477Y122.91
X77.477Y99.097
X78.112Y80.047
X82.24Y41.947
X82.875Y60.997
X87.002Y80.047
X87.638Y122.91
X87.638Y99.097
X89.384Y22.897
X91.765Y60.997
X92.4Y41.947
X96.527Y122.91
X96.527Y99.097
X97.162Y80.047
X99.544Y22.897
X101.29Y41.947
X101.925Y60.997
X106.052Y80.047
X106.688Y122.91
X106.688Y99.097
X110.815Y60.997
X111.45Y41.947
X115.578Y122.91
X115.578Y99.097
X116.212Y80.047
X120.34Y41.947
X120.975Y60.997
X125.102Y80.047
X125.737Y122.91
X125.737Y99.097
X129.865Y60.997
X130.5Y41.947
X134.627Y122.91
X134.627Y99.097
X135.262Y80.047
X139.39Y41.947
X140.025Y60.997
X144.153Y80.047
X144.787Y122.91
X144.787Y99.097
X148.915Y60.997
X149.55Y41.947
X153.677Y122.91
X153.677Y99.097
X154.312Y80.047
X158.44Y41.947
X159.075Y60.997
X160.821Y22.897
X163.202Y80.047
X163.838Y122.91
X163.838Y99.097
X167.965Y60.997
X168.6Y41.947
X170.981Y22.897
X172.727Y122.91
X172.727Y99.097
X173.362Y80.047
X177.49Y41.947
X178.125Y60.997
X182.252Y80.047
X182.887Y122.91
X182.887Y99.097
X187.015Y60.997
X187.65Y41.947
X191.778Y122.91
X191.778Y99.097
X192.412Y80.047
X196.54Y41.947
X197.175Y60.997
X201.302Y80.047
X201.938Y122.91
X201.938Y99.097
X206.065Y60.997
X206.7Y41.947
X210.827Y122.91
X210.827Y99.097
X211.462Y80.047
X215.59Y41.947
X216.225Y60.997
X220.352Y80.047
X220.987Y122.91
X220.987Y99.097
X225.115Y60.997
X225.75Y41.947
X229.877Y122.91
X229.877Y99.097
X229.877Y22.897
X230.512Y80.047
X234.64Y41.947
X235.275Y60.997
X239.402Y80.047
X240.037Y122.91
X240.037Y99.097
X240.037Y22.897
X244.165Y60.997
X244.8Y41.947
X248.927Y122.91
X248.927Y99.097
X248.927Y22.897
X249.562Y80.047
X253.69Y41.947
X254.325Y60.997
X258.452Y80.047
X259.087Y122.91
X259.087Y99.097
X259.087Y22.897
X263.215Y60.997
X263.85Y41.947
X267.977Y122.91
X267.977Y99.097
X267.977Y22.897
X268.613Y80.047
X273.375Y60.997
X277.502Y80.047
X278.137Y122.91
X278.137Y99.097
X278.137Y22.897
X279.884Y41.947
X287.027Y122.91
X287.027Y22.897
X287.662Y80.047
X290.044Y41.947
X294.171Y60.997
X296.553Y99.097
X297.188Y122.91
X297.188Y22.897
X301.315Y80.047
X304.331Y60.997
X306.077Y122.91
X306.077Y41.947
X306.077Y22.897
X306.712Y99.097
X311.475Y80.047
X316.238Y122.91
X316.238Y41.947
X316.238Y22.897
X325.127Y122.91
X325.127Y99.097
X325.127Y80.047
X325.127Y60.997
X325.127Y41.947
X325.127Y22.897
X335.287Y122.91
X335.287Y99.097
X335.287Y80.047
X335.287Y60.997
X335.287Y41.947
X335.287Y22.897
T2
X367.48Y148.97
X372.33Y148.97
T3
X367.18Y152.0
X372.63Y152.0
T4
X44.464Y48.947
X68.264Y48.947
X115.901Y29.897
X215.901Y29.897
X287.351Y67.998
X289.732Y106.097
X311.151Y67.998
X313.532Y106.097
T5
X32.75Y148.5
X34.75Y9.5
X166.25Y9.25
X302.5Y9.5
X400.25Y148.75
X400.75Y11.75
T6
X44.457Y122.91
X44.457Y99.097
X44.464Y33.707
X46.839Y22.897
X49.22Y80.047
X51.601Y60.997
X56.364Y41.947
X63.508Y122.91
X63.508Y99.097
X68.264Y33.707
X70.651Y22.897
X73.032Y80.047
X77.795Y60.997
X82.557Y122.91
X82.557Y99.097
X87.32Y41.947
X92.082Y80.047
X94.464Y22.897
X96.845Y60.997
X101.608Y122.91
X101.608Y99.097
X106.37Y41.947
X111.132Y80.047
X115.895Y60.997
X115.901Y14.657
X120.657Y122.91
X120.657Y99.097
X125.42Y41.947
X130.183Y80.047
X134.945Y60.997
X139.707Y122.91
X139.707Y99.097
X144.47Y41.947
X149.232Y80.047
X153.995Y60.997
X158.757Y122.91
X158.757Y99.097
X163.52Y41.947
X165.901Y22.897
X168.282Y80.047
X173.045Y60.997
X177.808Y122.91
X177.808Y99.097
X182.57Y41.947
X187.332Y80.047
X192.095Y60.997
X196.857Y122.91
X196.857Y99.097
X201.62Y41.947
X206.382Y80.047
X211.145Y60.997
X215.901Y14.657
X215.907Y122.91
X215.907Y99.097
X220.67Y41.947
X225.432Y80.047
X230.195Y60.997
X234.957Y122.91
X234.957Y99.097
X234.957Y22.897
X239.72Y41.947
X244.482Y80.047
X249.245Y60.997
X254.007Y122.91
X254.007Y99.097
X254.007Y22.897
X258.77Y41.947
X263.532Y80.047
X268.295Y60.997
X273.058Y122.91
X273.058Y99.097
X273.058Y22.897
X282.582Y80.047
X284.964Y41.947
X287.351Y52.758
X289.732Y90.858
X292.107Y122.91
X292.107Y22.897
X299.251Y60.997
X301.632Y99.097
X306.395Y80.047
X311.151Y52.758
X311.157Y122.91
X311.157Y41.947
X311.157Y22.897
X313.532Y90.858
X330.207Y122.91
X330.207Y99.097
X330.207Y80.047
X330.207Y60.997
X330.207Y41.947
X330.207Y22.897
M30
