M48
; DRILL file KiCad 10.0.1 date 2026-09-07T17:07:42
; FORMAT={-:-/ absolute / metric / decimal}
; #@! TF.CreationDate,2026-09-07T17:07:42+03:00
; #@! TF.GenerationSoftware,Kicad,Pcbnew,10.0.1
; #@! TF.FileFunction,Plated,1,2,PTH
FMAT,2
METRIC
; #@! TA.AperFunction,Plated,PTH,ComponentDrill
T1C1.000
; #@! TA.AperFunction,Plated,PTH,ComponentDrill
T2C1.100
; #@! TA.AperFunction,Plated,PTH,ComponentDrill
T3C1.500
%
G90
G05
T1
X357.655Y72.097
X357.655Y69.557
X357.655Y67.017
X357.655Y64.477
X361.015Y152.13
X361.015Y149.59
X361.015Y147.05
X361.015Y144.51
X361.015Y141.97
X361.015Y139.43
X361.015Y136.89
X361.015Y134.35
X361.015Y131.81
X361.015Y129.27
X361.015Y126.73
X361.015Y124.19
X361.015Y121.65
X361.015Y119.11
X361.015Y116.57
X361.015Y114.03
X361.015Y111.49
X361.015Y108.95
X361.015Y106.41
X361.015Y103.87
X378.795Y152.13
X378.795Y149.59
X378.795Y147.05
X378.795Y144.51
X378.795Y141.97
X378.795Y139.43
X378.795Y136.89
X378.795Y134.35
X378.795Y131.81
X378.795Y129.27
X378.795Y126.73
X378.795Y124.19
X378.795Y121.65
X378.795Y119.11
X378.795Y116.57
X378.795Y114.03
X378.795Y111.49
X378.795Y108.95
X378.795Y106.41
X378.795Y103.87
T2
X389.545Y126.88
X389.545Y122.38
X396.045Y126.88
X396.045Y122.38
T3
X40.648Y125.45
X40.648Y101.637
X43.029Y25.438
X45.41Y82.587
X46.997Y127.99
X46.997Y104.177
X47.791Y63.537
X49.379Y27.977
X51.76Y85.127
X52.554Y44.487
X54.141Y66.078
X58.904Y47.027
X59.697Y125.45
X59.697Y101.637
X66.047Y127.99
X66.047Y104.177
X66.841Y25.438
X69.222Y82.587
X73.191Y27.977
X73.985Y63.537
X75.572Y85.127
X78.748Y125.45
X78.748Y101.637
X80.335Y66.078
X83.51Y44.487
X85.097Y127.99
X85.097Y104.177
X88.272Y82.587
X89.86Y47.027
X90.654Y25.438
X93.035Y63.537
X94.623Y85.127
X97.004Y27.977
X97.797Y125.45
X97.797Y101.637
X99.385Y66.078
X102.56Y44.487
X104.147Y127.99
X104.147Y104.177
X107.322Y82.587
X108.91Y47.027
X112.085Y63.537
X113.672Y85.127
X116.847Y125.45
X116.847Y101.637
X118.435Y66.078
X121.61Y44.487
X123.197Y127.99
X123.197Y104.177
X126.372Y82.587
X127.96Y47.027
X131.135Y63.537
X132.722Y85.127
X135.898Y125.45
X135.898Y101.637
X137.485Y66.078
X140.66Y44.487
X142.248Y127.99
X142.248Y104.177
X145.422Y82.587
X147.01Y47.027
X150.185Y63.537
X151.772Y85.127
X154.947Y125.45
X154.947Y101.637
X156.535Y66.078
X159.71Y44.487
X161.297Y127.99
X161.297Y104.177
X162.091Y25.438
X164.472Y82.587
X166.06Y47.027
X168.441Y27.977
X169.235Y63.537
X170.822Y85.127
X173.998Y125.45
X173.998Y101.637
X175.585Y66.078
X178.76Y44.487
X180.347Y127.99
X180.347Y104.177
X183.522Y82.587
X185.11Y47.027
X188.285Y63.537
X189.873Y85.127
X193.047Y125.45
X193.047Y101.637
X194.635Y66.078
X197.81Y44.487
X199.397Y127.99
X199.397Y104.177
X202.572Y82.587
X204.16Y47.027
X207.335Y63.537
X208.922Y85.127
X212.097Y125.45
X212.097Y101.637
X213.685Y66.078
X216.86Y44.487
X218.447Y127.99
X218.447Y104.177
X221.623Y82.587
X223.21Y47.027
X226.385Y63.537
X227.972Y85.127
X231.147Y125.45
X231.147Y101.637
X231.147Y25.438
X232.735Y66.078
X235.91Y44.487
X237.498Y127.99
X237.498Y104.177
X237.498Y27.977
X240.672Y82.587
X242.26Y47.027
X245.435Y63.537
X247.022Y85.127
X250.197Y125.45
X250.197Y101.637
X250.197Y25.438
X251.785Y66.078
X254.96Y44.487
X256.548Y127.99
X256.548Y104.177
X256.548Y27.977
X259.722Y82.587
X261.31Y47.027
X264.485Y63.537
X266.072Y85.127
X269.248Y125.45
X269.248Y101.637
X269.248Y25.438
X270.835Y66.078
X275.597Y127.99
X275.597Y104.177
X275.597Y27.977
X278.772Y82.587
X281.154Y44.487
X285.123Y85.127
X287.504Y47.027
X288.298Y125.45
X288.298Y25.438
X294.647Y127.99
X294.647Y27.977
X295.441Y63.537
X297.822Y101.637
X301.791Y66.078
X302.585Y82.587
X304.173Y104.177
X307.347Y125.45
X307.347Y44.487
X307.347Y25.438
X308.935Y85.127
X313.697Y127.99
X313.697Y47.027
X313.697Y27.977
X326.397Y125.45
X326.397Y101.637
X326.397Y82.587
X326.397Y63.537
X326.397Y44.487
X326.397Y25.438
X332.748Y127.99
X332.748Y104.177
X332.748Y85.127
X332.748Y66.078
X332.748Y47.027
X332.748Y27.977
M30
