%TF.GenerationSoftware,KiCad,Pcbnew,10.0.1*%
%TF.CreationDate,2026-09-07T17:07:39+03:00*%
%TF.ProjectId,mariboard,6d617269-626f-4617-9264-2e6b69636164,rev?*%
%TF.SameCoordinates,Original*%
%TF.FileFunction,Legend,Bot*%
%TF.FilePolarity,Positive*%
%FSLAX46Y46*%
G04 Gerber Fmt 4.6, Leading zero omitted, Abs format (unit mm)*
G04 Created by KiCad (PCBNEW 10.0.1) date 2026-09-07 17:07:39*
%MOMM*%
%LPD*%
G01*
G04 APERTURE LIST*
%ADD10C,0.300000*%
%ADD11C,0.150000*%
%ADD12C,0.120000*%
G04 APERTURE END LIST*
D10*
X382733082Y82770600D02*
X382875939Y82699171D01*
X382875939Y82699171D02*
X383161653Y82699171D01*
X383161653Y82699171D02*
X383304510Y82770600D01*
X383304510Y82770600D02*
X383375939Y82913457D01*
X383375939Y82913457D02*
X383375939Y82984885D01*
X383375939Y82984885D02*
X383304510Y83127742D01*
X383304510Y83127742D02*
X383161653Y83199171D01*
X383161653Y83199171D02*
X382947368Y83199171D01*
X382947368Y83199171D02*
X382804510Y83270600D01*
X382804510Y83270600D02*
X382733082Y83413457D01*
X382733082Y83413457D02*
X382733082Y83484885D01*
X382733082Y83484885D02*
X382804510Y83627742D01*
X382804510Y83627742D02*
X382947368Y83699171D01*
X382947368Y83699171D02*
X383161653Y83699171D01*
X383161653Y83699171D02*
X383304510Y83627742D01*
X384233082Y82699171D02*
X384090225Y82770600D01*
X384090225Y82770600D02*
X384018796Y82842028D01*
X384018796Y82842028D02*
X383947368Y82984885D01*
X383947368Y82984885D02*
X383947368Y83413457D01*
X383947368Y83413457D02*
X384018796Y83556314D01*
X384018796Y83556314D02*
X384090225Y83627742D01*
X384090225Y83627742D02*
X384233082Y83699171D01*
X384233082Y83699171D02*
X384447368Y83699171D01*
X384447368Y83699171D02*
X384590225Y83627742D01*
X384590225Y83627742D02*
X384661654Y83556314D01*
X384661654Y83556314D02*
X384733082Y83413457D01*
X384733082Y83413457D02*
X384733082Y82984885D01*
X384733082Y82984885D02*
X384661654Y82842028D01*
X384661654Y82842028D02*
X384590225Y82770600D01*
X384590225Y82770600D02*
X384447368Y82699171D01*
X384447368Y82699171D02*
X384233082Y82699171D01*
X385590225Y82699171D02*
X385447368Y82770600D01*
X385447368Y82770600D02*
X385375939Y82913457D01*
X385375939Y82913457D02*
X385375939Y84199171D01*
X386804511Y82699171D02*
X386804511Y84199171D01*
X386804511Y82770600D02*
X386661653Y82699171D01*
X386661653Y82699171D02*
X386375939Y82699171D01*
X386375939Y82699171D02*
X386233082Y82770600D01*
X386233082Y82770600D02*
X386161653Y82842028D01*
X386161653Y82842028D02*
X386090225Y82984885D01*
X386090225Y82984885D02*
X386090225Y83413457D01*
X386090225Y83413457D02*
X386161653Y83556314D01*
X386161653Y83556314D02*
X386233082Y83627742D01*
X386233082Y83627742D02*
X386375939Y83699171D01*
X386375939Y83699171D02*
X386661653Y83699171D01*
X386661653Y83699171D02*
X386804511Y83627742D01*
X388090225Y82770600D02*
X387947368Y82699171D01*
X387947368Y82699171D02*
X387661654Y82699171D01*
X387661654Y82699171D02*
X387518796Y82770600D01*
X387518796Y82770600D02*
X387447368Y82913457D01*
X387447368Y82913457D02*
X387447368Y83484885D01*
X387447368Y83484885D02*
X387518796Y83627742D01*
X387518796Y83627742D02*
X387661654Y83699171D01*
X387661654Y83699171D02*
X387947368Y83699171D01*
X387947368Y83699171D02*
X388090225Y83627742D01*
X388090225Y83627742D02*
X388161654Y83484885D01*
X388161654Y83484885D02*
X388161654Y83342028D01*
X388161654Y83342028D02*
X387447368Y83199171D01*
X388804510Y82699171D02*
X388804510Y83699171D01*
X388804510Y83413457D02*
X388875939Y83556314D01*
X388875939Y83556314D02*
X388947368Y83627742D01*
X388947368Y83627742D02*
X389090225Y83699171D01*
X389090225Y83699171D02*
X389233082Y83699171D01*
X390875938Y82699171D02*
X390875938Y84199171D01*
X391518796Y82699171D02*
X391518796Y83484885D01*
X391518796Y83484885D02*
X391447367Y83627742D01*
X391447367Y83627742D02*
X391304510Y83699171D01*
X391304510Y83699171D02*
X391090224Y83699171D01*
X391090224Y83699171D02*
X390947367Y83627742D01*
X390947367Y83627742D02*
X390875938Y83556314D01*
X392804510Y82770600D02*
X392661653Y82699171D01*
X392661653Y82699171D02*
X392375939Y82699171D01*
X392375939Y82699171D02*
X392233081Y82770600D01*
X392233081Y82770600D02*
X392161653Y82913457D01*
X392161653Y82913457D02*
X392161653Y83484885D01*
X392161653Y83484885D02*
X392233081Y83627742D01*
X392233081Y83627742D02*
X392375939Y83699171D01*
X392375939Y83699171D02*
X392661653Y83699171D01*
X392661653Y83699171D02*
X392804510Y83627742D01*
X392804510Y83627742D02*
X392875939Y83484885D01*
X392875939Y83484885D02*
X392875939Y83342028D01*
X392875939Y83342028D02*
X392161653Y83199171D01*
X393518795Y82699171D02*
X393518795Y83699171D01*
X393518795Y83413457D02*
X393590224Y83556314D01*
X393590224Y83556314D02*
X393661653Y83627742D01*
X393661653Y83627742D02*
X393804510Y83699171D01*
X393804510Y83699171D02*
X393947367Y83699171D01*
X395018795Y82770600D02*
X394875938Y82699171D01*
X394875938Y82699171D02*
X394590224Y82699171D01*
X394590224Y82699171D02*
X394447366Y82770600D01*
X394447366Y82770600D02*
X394375938Y82913457D01*
X394375938Y82913457D02*
X394375938Y83484885D01*
X394375938Y83484885D02*
X394447366Y83627742D01*
X394447366Y83627742D02*
X394590224Y83699171D01*
X394590224Y83699171D02*
X394875938Y83699171D01*
X394875938Y83699171D02*
X395018795Y83627742D01*
X395018795Y83627742D02*
X395090224Y83484885D01*
X395090224Y83484885D02*
X395090224Y83342028D01*
X395090224Y83342028D02*
X394375938Y83199171D01*
D11*
X221219819Y63291785D02*
X220219819Y63291785D01*
X220219819Y63291785D02*
X220219819Y63053690D01*
X220219819Y63053690D02*
X220267438Y62910833D01*
X220267438Y62910833D02*
X220362676Y62815595D01*
X220362676Y62815595D02*
X220457914Y62767976D01*
X220457914Y62767976D02*
X220648390Y62720357D01*
X220648390Y62720357D02*
X220791247Y62720357D01*
X220791247Y62720357D02*
X220981723Y62767976D01*
X220981723Y62767976D02*
X221076961Y62815595D01*
X221076961Y62815595D02*
X221172200Y62910833D01*
X221172200Y62910833D02*
X221219819Y63053690D01*
X221219819Y63053690D02*
X221219819Y63291785D01*
X220219819Y61815595D02*
X220219819Y62291785D01*
X220219819Y62291785D02*
X220696009Y62339404D01*
X220696009Y62339404D02*
X220648390Y62291785D01*
X220648390Y62291785D02*
X220600771Y62196547D01*
X220600771Y62196547D02*
X220600771Y61958452D01*
X220600771Y61958452D02*
X220648390Y61863214D01*
X220648390Y61863214D02*
X220696009Y61815595D01*
X220696009Y61815595D02*
X220791247Y61767976D01*
X220791247Y61767976D02*
X221029342Y61767976D01*
X221029342Y61767976D02*
X221124580Y61815595D01*
X221124580Y61815595D02*
X221172200Y61863214D01*
X221172200Y61863214D02*
X221219819Y61958452D01*
X221219819Y61958452D02*
X221219819Y62196547D01*
X221219819Y62196547D02*
X221172200Y62291785D01*
X221172200Y62291785D02*
X221124580Y62339404D01*
X220219819Y60863214D02*
X220219819Y61339404D01*
X220219819Y61339404D02*
X220696009Y61387023D01*
X220696009Y61387023D02*
X220648390Y61339404D01*
X220648390Y61339404D02*
X220600771Y61244166D01*
X220600771Y61244166D02*
X220600771Y61006071D01*
X220600771Y61006071D02*
X220648390Y60910833D01*
X220648390Y60910833D02*
X220696009Y60863214D01*
X220696009Y60863214D02*
X220791247Y60815595D01*
X220791247Y60815595D02*
X221029342Y60815595D01*
X221029342Y60815595D02*
X221124580Y60863214D01*
X221124580Y60863214D02*
X221172200Y60910833D01*
X221172200Y60910833D02*
X221219819Y61006071D01*
X221219819Y61006071D02*
X221219819Y61244166D01*
X221219819Y61244166D02*
X221172200Y61339404D01*
X221172200Y61339404D02*
X221124580Y61387023D01*
X340282319Y101391785D02*
X339282319Y101391785D01*
X339282319Y101391785D02*
X339282319Y101153690D01*
X339282319Y101153690D02*
X339329938Y101010833D01*
X339329938Y101010833D02*
X339425176Y100915595D01*
X339425176Y100915595D02*
X339520414Y100867976D01*
X339520414Y100867976D02*
X339710890Y100820357D01*
X339710890Y100820357D02*
X339853747Y100820357D01*
X339853747Y100820357D02*
X340044223Y100867976D01*
X340044223Y100867976D02*
X340139461Y100915595D01*
X340139461Y100915595D02*
X340234700Y101010833D01*
X340234700Y101010833D02*
X340282319Y101153690D01*
X340282319Y101153690D02*
X340282319Y101391785D01*
X339282319Y100487023D02*
X339282319Y99867976D01*
X339282319Y99867976D02*
X339663271Y100201309D01*
X339663271Y100201309D02*
X339663271Y100058452D01*
X339663271Y100058452D02*
X339710890Y99963214D01*
X339710890Y99963214D02*
X339758509Y99915595D01*
X339758509Y99915595D02*
X339853747Y99867976D01*
X339853747Y99867976D02*
X340091842Y99867976D01*
X340091842Y99867976D02*
X340187080Y99915595D01*
X340187080Y99915595D02*
X340234700Y99963214D01*
X340234700Y99963214D02*
X340282319Y100058452D01*
X340282319Y100058452D02*
X340282319Y100344166D01*
X340282319Y100344166D02*
X340234700Y100439404D01*
X340234700Y100439404D02*
X340187080Y100487023D01*
X340282319Y98915595D02*
X340282319Y99487023D01*
X340282319Y99201309D02*
X339282319Y99201309D01*
X339282319Y99201309D02*
X339425176Y99296547D01*
X339425176Y99296547D02*
X339520414Y99391785D01*
X339520414Y99391785D02*
X339568033Y99487023D01*
X168832319Y124728094D02*
X167832319Y124728094D01*
X167832319Y124728094D02*
X167832319Y124489999D01*
X167832319Y124489999D02*
X167879938Y124347142D01*
X167879938Y124347142D02*
X167975176Y124251904D01*
X167975176Y124251904D02*
X168070414Y124204285D01*
X168070414Y124204285D02*
X168260890Y124156666D01*
X168260890Y124156666D02*
X168403747Y124156666D01*
X168403747Y124156666D02*
X168594223Y124204285D01*
X168594223Y124204285D02*
X168689461Y124251904D01*
X168689461Y124251904D02*
X168784700Y124347142D01*
X168784700Y124347142D02*
X168832319Y124489999D01*
X168832319Y124489999D02*
X168832319Y124728094D01*
X167832319Y123823332D02*
X167832319Y123156666D01*
X167832319Y123156666D02*
X168832319Y123585237D01*
X130732319Y101391785D02*
X129732319Y101391785D01*
X129732319Y101391785D02*
X129732319Y101153690D01*
X129732319Y101153690D02*
X129779938Y101010833D01*
X129779938Y101010833D02*
X129875176Y100915595D01*
X129875176Y100915595D02*
X129970414Y100867976D01*
X129970414Y100867976D02*
X130160890Y100820357D01*
X130160890Y100820357D02*
X130303747Y100820357D01*
X130303747Y100820357D02*
X130494223Y100867976D01*
X130494223Y100867976D02*
X130589461Y100915595D01*
X130589461Y100915595D02*
X130684700Y101010833D01*
X130684700Y101010833D02*
X130732319Y101153690D01*
X130732319Y101153690D02*
X130732319Y101391785D01*
X129827557Y100439404D02*
X129779938Y100391785D01*
X129779938Y100391785D02*
X129732319Y100296547D01*
X129732319Y100296547D02*
X129732319Y100058452D01*
X129732319Y100058452D02*
X129779938Y99963214D01*
X129779938Y99963214D02*
X129827557Y99915595D01*
X129827557Y99915595D02*
X129922795Y99867976D01*
X129922795Y99867976D02*
X130018033Y99867976D01*
X130018033Y99867976D02*
X130160890Y99915595D01*
X130160890Y99915595D02*
X130732319Y100487023D01*
X130732319Y100487023D02*
X130732319Y99867976D01*
X130732319Y98915595D02*
X130732319Y99487023D01*
X130732319Y99201309D02*
X129732319Y99201309D01*
X129732319Y99201309D02*
X129875176Y99296547D01*
X129875176Y99296547D02*
X129970414Y99391785D01*
X129970414Y99391785D02*
X130018033Y99487023D01*
X145019819Y63291785D02*
X144019819Y63291785D01*
X144019819Y63291785D02*
X144019819Y63053690D01*
X144019819Y63053690D02*
X144067438Y62910833D01*
X144067438Y62910833D02*
X144162676Y62815595D01*
X144162676Y62815595D02*
X144257914Y62767976D01*
X144257914Y62767976D02*
X144448390Y62720357D01*
X144448390Y62720357D02*
X144591247Y62720357D01*
X144591247Y62720357D02*
X144781723Y62767976D01*
X144781723Y62767976D02*
X144876961Y62815595D01*
X144876961Y62815595D02*
X144972200Y62910833D01*
X144972200Y62910833D02*
X145019819Y63053690D01*
X145019819Y63053690D02*
X145019819Y63291785D01*
X144019819Y61815595D02*
X144019819Y62291785D01*
X144019819Y62291785D02*
X144496009Y62339404D01*
X144496009Y62339404D02*
X144448390Y62291785D01*
X144448390Y62291785D02*
X144400771Y62196547D01*
X144400771Y62196547D02*
X144400771Y61958452D01*
X144400771Y61958452D02*
X144448390Y61863214D01*
X144448390Y61863214D02*
X144496009Y61815595D01*
X144496009Y61815595D02*
X144591247Y61767976D01*
X144591247Y61767976D02*
X144829342Y61767976D01*
X144829342Y61767976D02*
X144924580Y61815595D01*
X144924580Y61815595D02*
X144972200Y61863214D01*
X144972200Y61863214D02*
X145019819Y61958452D01*
X145019819Y61958452D02*
X145019819Y62196547D01*
X145019819Y62196547D02*
X144972200Y62291785D01*
X144972200Y62291785D02*
X144924580Y62339404D01*
X145019819Y60815595D02*
X145019819Y61387023D01*
X145019819Y61101309D02*
X144019819Y61101309D01*
X144019819Y61101309D02*
X144162676Y61196547D01*
X144162676Y61196547D02*
X144257914Y61291785D01*
X144257914Y61291785D02*
X144305533Y61387023D01*
X259319819Y63291785D02*
X258319819Y63291785D01*
X258319819Y63291785D02*
X258319819Y63053690D01*
X258319819Y63053690D02*
X258367438Y62910833D01*
X258367438Y62910833D02*
X258462676Y62815595D01*
X258462676Y62815595D02*
X258557914Y62767976D01*
X258557914Y62767976D02*
X258748390Y62720357D01*
X258748390Y62720357D02*
X258891247Y62720357D01*
X258891247Y62720357D02*
X259081723Y62767976D01*
X259081723Y62767976D02*
X259176961Y62815595D01*
X259176961Y62815595D02*
X259272200Y62910833D01*
X259272200Y62910833D02*
X259319819Y63053690D01*
X259319819Y63053690D02*
X259319819Y63291785D01*
X258319819Y61815595D02*
X258319819Y62291785D01*
X258319819Y62291785D02*
X258796009Y62339404D01*
X258796009Y62339404D02*
X258748390Y62291785D01*
X258748390Y62291785D02*
X258700771Y62196547D01*
X258700771Y62196547D02*
X258700771Y61958452D01*
X258700771Y61958452D02*
X258748390Y61863214D01*
X258748390Y61863214D02*
X258796009Y61815595D01*
X258796009Y61815595D02*
X258891247Y61767976D01*
X258891247Y61767976D02*
X259129342Y61767976D01*
X259129342Y61767976D02*
X259224580Y61815595D01*
X259224580Y61815595D02*
X259272200Y61863214D01*
X259272200Y61863214D02*
X259319819Y61958452D01*
X259319819Y61958452D02*
X259319819Y62196547D01*
X259319819Y62196547D02*
X259272200Y62291785D01*
X259272200Y62291785D02*
X259224580Y62339404D01*
X258319819Y61434642D02*
X258319819Y60767976D01*
X258319819Y60767976D02*
X259319819Y61196547D01*
X164069819Y63291785D02*
X163069819Y63291785D01*
X163069819Y63291785D02*
X163069819Y63053690D01*
X163069819Y63053690D02*
X163117438Y62910833D01*
X163117438Y62910833D02*
X163212676Y62815595D01*
X163212676Y62815595D02*
X163307914Y62767976D01*
X163307914Y62767976D02*
X163498390Y62720357D01*
X163498390Y62720357D02*
X163641247Y62720357D01*
X163641247Y62720357D02*
X163831723Y62767976D01*
X163831723Y62767976D02*
X163926961Y62815595D01*
X163926961Y62815595D02*
X164022200Y62910833D01*
X164022200Y62910833D02*
X164069819Y63053690D01*
X164069819Y63053690D02*
X164069819Y63291785D01*
X163069819Y61815595D02*
X163069819Y62291785D01*
X163069819Y62291785D02*
X163546009Y62339404D01*
X163546009Y62339404D02*
X163498390Y62291785D01*
X163498390Y62291785D02*
X163450771Y62196547D01*
X163450771Y62196547D02*
X163450771Y61958452D01*
X163450771Y61958452D02*
X163498390Y61863214D01*
X163498390Y61863214D02*
X163546009Y61815595D01*
X163546009Y61815595D02*
X163641247Y61767976D01*
X163641247Y61767976D02*
X163879342Y61767976D01*
X163879342Y61767976D02*
X163974580Y61815595D01*
X163974580Y61815595D02*
X164022200Y61863214D01*
X164022200Y61863214D02*
X164069819Y61958452D01*
X164069819Y61958452D02*
X164069819Y62196547D01*
X164069819Y62196547D02*
X164022200Y62291785D01*
X164022200Y62291785D02*
X163974580Y62339404D01*
X163165057Y61387023D02*
X163117438Y61339404D01*
X163117438Y61339404D02*
X163069819Y61244166D01*
X163069819Y61244166D02*
X163069819Y61006071D01*
X163069819Y61006071D02*
X163117438Y60910833D01*
X163117438Y60910833D02*
X163165057Y60863214D01*
X163165057Y60863214D02*
X163260295Y60815595D01*
X163260295Y60815595D02*
X163355533Y60815595D01*
X163355533Y60815595D02*
X163498390Y60863214D01*
X163498390Y60863214D02*
X164069819Y61434642D01*
X164069819Y61434642D02*
X164069819Y60815595D01*
X254557319Y82341785D02*
X253557319Y82341785D01*
X253557319Y82341785D02*
X253557319Y82103690D01*
X253557319Y82103690D02*
X253604938Y81960833D01*
X253604938Y81960833D02*
X253700176Y81865595D01*
X253700176Y81865595D02*
X253795414Y81817976D01*
X253795414Y81817976D02*
X253985890Y81770357D01*
X253985890Y81770357D02*
X254128747Y81770357D01*
X254128747Y81770357D02*
X254319223Y81817976D01*
X254319223Y81817976D02*
X254414461Y81865595D01*
X254414461Y81865595D02*
X254509700Y81960833D01*
X254509700Y81960833D02*
X254557319Y82103690D01*
X254557319Y82103690D02*
X254557319Y82341785D01*
X253890652Y80913214D02*
X254557319Y80913214D01*
X253509700Y81151309D02*
X254223985Y81389404D01*
X254223985Y81389404D02*
X254223985Y80770357D01*
X253652557Y80437023D02*
X253604938Y80389404D01*
X253604938Y80389404D02*
X253557319Y80294166D01*
X253557319Y80294166D02*
X253557319Y80056071D01*
X253557319Y80056071D02*
X253604938Y79960833D01*
X253604938Y79960833D02*
X253652557Y79913214D01*
X253652557Y79913214D02*
X253747795Y79865595D01*
X253747795Y79865595D02*
X253843033Y79865595D01*
X253843033Y79865595D02*
X253985890Y79913214D01*
X253985890Y79913214D02*
X254557319Y80484642D01*
X254557319Y80484642D02*
X254557319Y79865595D01*
X283132319Y25191785D02*
X282132319Y25191785D01*
X282132319Y25191785D02*
X282132319Y24953690D01*
X282132319Y24953690D02*
X282179938Y24810833D01*
X282179938Y24810833D02*
X282275176Y24715595D01*
X282275176Y24715595D02*
X282370414Y24667976D01*
X282370414Y24667976D02*
X282560890Y24620357D01*
X282560890Y24620357D02*
X282703747Y24620357D01*
X282703747Y24620357D02*
X282894223Y24667976D01*
X282894223Y24667976D02*
X282989461Y24715595D01*
X282989461Y24715595D02*
X283084700Y24810833D01*
X283084700Y24810833D02*
X283132319Y24953690D01*
X283132319Y24953690D02*
X283132319Y25191785D01*
X282560890Y24048928D02*
X282513271Y24144166D01*
X282513271Y24144166D02*
X282465652Y24191785D01*
X282465652Y24191785D02*
X282370414Y24239404D01*
X282370414Y24239404D02*
X282322795Y24239404D01*
X282322795Y24239404D02*
X282227557Y24191785D01*
X282227557Y24191785D02*
X282179938Y24144166D01*
X282179938Y24144166D02*
X282132319Y24048928D01*
X282132319Y24048928D02*
X282132319Y23858452D01*
X282132319Y23858452D02*
X282179938Y23763214D01*
X282179938Y23763214D02*
X282227557Y23715595D01*
X282227557Y23715595D02*
X282322795Y23667976D01*
X282322795Y23667976D02*
X282370414Y23667976D01*
X282370414Y23667976D02*
X282465652Y23715595D01*
X282465652Y23715595D02*
X282513271Y23763214D01*
X282513271Y23763214D02*
X282560890Y23858452D01*
X282560890Y23858452D02*
X282560890Y24048928D01*
X282560890Y24048928D02*
X282608509Y24144166D01*
X282608509Y24144166D02*
X282656128Y24191785D01*
X282656128Y24191785D02*
X282751366Y24239404D01*
X282751366Y24239404D02*
X282941842Y24239404D01*
X282941842Y24239404D02*
X283037080Y24191785D01*
X283037080Y24191785D02*
X283084700Y24144166D01*
X283084700Y24144166D02*
X283132319Y24048928D01*
X283132319Y24048928D02*
X283132319Y23858452D01*
X283132319Y23858452D02*
X283084700Y23763214D01*
X283084700Y23763214D02*
X283037080Y23715595D01*
X283037080Y23715595D02*
X282941842Y23667976D01*
X282941842Y23667976D02*
X282751366Y23667976D01*
X282751366Y23667976D02*
X282656128Y23715595D01*
X282656128Y23715595D02*
X282608509Y23763214D01*
X282608509Y23763214D02*
X282560890Y23858452D01*
X283132319Y22715595D02*
X283132319Y23287023D01*
X283132319Y23001309D02*
X282132319Y23001309D01*
X282132319Y23001309D02*
X282275176Y23096547D01*
X282275176Y23096547D02*
X282370414Y23191785D01*
X282370414Y23191785D02*
X282418033Y23287023D01*
X154544819Y44241785D02*
X153544819Y44241785D01*
X153544819Y44241785D02*
X153544819Y44003690D01*
X153544819Y44003690D02*
X153592438Y43860833D01*
X153592438Y43860833D02*
X153687676Y43765595D01*
X153687676Y43765595D02*
X153782914Y43717976D01*
X153782914Y43717976D02*
X153973390Y43670357D01*
X153973390Y43670357D02*
X154116247Y43670357D01*
X154116247Y43670357D02*
X154306723Y43717976D01*
X154306723Y43717976D02*
X154401961Y43765595D01*
X154401961Y43765595D02*
X154497200Y43860833D01*
X154497200Y43860833D02*
X154544819Y44003690D01*
X154544819Y44003690D02*
X154544819Y44241785D01*
X153544819Y42813214D02*
X153544819Y43003690D01*
X153544819Y43003690D02*
X153592438Y43098928D01*
X153592438Y43098928D02*
X153640057Y43146547D01*
X153640057Y43146547D02*
X153782914Y43241785D01*
X153782914Y43241785D02*
X153973390Y43289404D01*
X153973390Y43289404D02*
X154354342Y43289404D01*
X154354342Y43289404D02*
X154449580Y43241785D01*
X154449580Y43241785D02*
X154497200Y43194166D01*
X154497200Y43194166D02*
X154544819Y43098928D01*
X154544819Y43098928D02*
X154544819Y42908452D01*
X154544819Y42908452D02*
X154497200Y42813214D01*
X154497200Y42813214D02*
X154449580Y42765595D01*
X154449580Y42765595D02*
X154354342Y42717976D01*
X154354342Y42717976D02*
X154116247Y42717976D01*
X154116247Y42717976D02*
X154021009Y42765595D01*
X154021009Y42765595D02*
X153973390Y42813214D01*
X153973390Y42813214D02*
X153925771Y42908452D01*
X153925771Y42908452D02*
X153925771Y43098928D01*
X153925771Y43098928D02*
X153973390Y43194166D01*
X153973390Y43194166D02*
X154021009Y43241785D01*
X154021009Y43241785D02*
X154116247Y43289404D01*
X153544819Y41813214D02*
X153544819Y42289404D01*
X153544819Y42289404D02*
X154021009Y42337023D01*
X154021009Y42337023D02*
X153973390Y42289404D01*
X153973390Y42289404D02*
X153925771Y42194166D01*
X153925771Y42194166D02*
X153925771Y41956071D01*
X153925771Y41956071D02*
X153973390Y41860833D01*
X153973390Y41860833D02*
X154021009Y41813214D01*
X154021009Y41813214D02*
X154116247Y41765595D01*
X154116247Y41765595D02*
X154354342Y41765595D01*
X154354342Y41765595D02*
X154449580Y41813214D01*
X154449580Y41813214D02*
X154497200Y41860833D01*
X154497200Y41860833D02*
X154544819Y41956071D01*
X154544819Y41956071D02*
X154544819Y42194166D01*
X154544819Y42194166D02*
X154497200Y42289404D01*
X154497200Y42289404D02*
X154449580Y42337023D01*
X225982319Y101391785D02*
X224982319Y101391785D01*
X224982319Y101391785D02*
X224982319Y101153690D01*
X224982319Y101153690D02*
X225029938Y101010833D01*
X225029938Y101010833D02*
X225125176Y100915595D01*
X225125176Y100915595D02*
X225220414Y100867976D01*
X225220414Y100867976D02*
X225410890Y100820357D01*
X225410890Y100820357D02*
X225553747Y100820357D01*
X225553747Y100820357D02*
X225744223Y100867976D01*
X225744223Y100867976D02*
X225839461Y100915595D01*
X225839461Y100915595D02*
X225934700Y101010833D01*
X225934700Y101010833D02*
X225982319Y101153690D01*
X225982319Y101153690D02*
X225982319Y101391785D01*
X225077557Y100439404D02*
X225029938Y100391785D01*
X225029938Y100391785D02*
X224982319Y100296547D01*
X224982319Y100296547D02*
X224982319Y100058452D01*
X224982319Y100058452D02*
X225029938Y99963214D01*
X225029938Y99963214D02*
X225077557Y99915595D01*
X225077557Y99915595D02*
X225172795Y99867976D01*
X225172795Y99867976D02*
X225268033Y99867976D01*
X225268033Y99867976D02*
X225410890Y99915595D01*
X225410890Y99915595D02*
X225982319Y100487023D01*
X225982319Y100487023D02*
X225982319Y99867976D01*
X224982319Y99010833D02*
X224982319Y99201309D01*
X224982319Y99201309D02*
X225029938Y99296547D01*
X225029938Y99296547D02*
X225077557Y99344166D01*
X225077557Y99344166D02*
X225220414Y99439404D01*
X225220414Y99439404D02*
X225410890Y99487023D01*
X225410890Y99487023D02*
X225791842Y99487023D01*
X225791842Y99487023D02*
X225887080Y99439404D01*
X225887080Y99439404D02*
X225934700Y99391785D01*
X225934700Y99391785D02*
X225982319Y99296547D01*
X225982319Y99296547D02*
X225982319Y99106071D01*
X225982319Y99106071D02*
X225934700Y99010833D01*
X225934700Y99010833D02*
X225887080Y98963214D01*
X225887080Y98963214D02*
X225791842Y98915595D01*
X225791842Y98915595D02*
X225553747Y98915595D01*
X225553747Y98915595D02*
X225458509Y98963214D01*
X225458509Y98963214D02*
X225410890Y99010833D01*
X225410890Y99010833D02*
X225363271Y99106071D01*
X225363271Y99106071D02*
X225363271Y99296547D01*
X225363271Y99296547D02*
X225410890Y99391785D01*
X225410890Y99391785D02*
X225458509Y99439404D01*
X225458509Y99439404D02*
X225553747Y99487023D01*
X321232319Y25191785D02*
X320232319Y25191785D01*
X320232319Y25191785D02*
X320232319Y24953690D01*
X320232319Y24953690D02*
X320279938Y24810833D01*
X320279938Y24810833D02*
X320375176Y24715595D01*
X320375176Y24715595D02*
X320470414Y24667976D01*
X320470414Y24667976D02*
X320660890Y24620357D01*
X320660890Y24620357D02*
X320803747Y24620357D01*
X320803747Y24620357D02*
X320994223Y24667976D01*
X320994223Y24667976D02*
X321089461Y24715595D01*
X321089461Y24715595D02*
X321184700Y24810833D01*
X321184700Y24810833D02*
X321232319Y24953690D01*
X321232319Y24953690D02*
X321232319Y25191785D01*
X320660890Y24048928D02*
X320613271Y24144166D01*
X320613271Y24144166D02*
X320565652Y24191785D01*
X320565652Y24191785D02*
X320470414Y24239404D01*
X320470414Y24239404D02*
X320422795Y24239404D01*
X320422795Y24239404D02*
X320327557Y24191785D01*
X320327557Y24191785D02*
X320279938Y24144166D01*
X320279938Y24144166D02*
X320232319Y24048928D01*
X320232319Y24048928D02*
X320232319Y23858452D01*
X320232319Y23858452D02*
X320279938Y23763214D01*
X320279938Y23763214D02*
X320327557Y23715595D01*
X320327557Y23715595D02*
X320422795Y23667976D01*
X320422795Y23667976D02*
X320470414Y23667976D01*
X320470414Y23667976D02*
X320565652Y23715595D01*
X320565652Y23715595D02*
X320613271Y23763214D01*
X320613271Y23763214D02*
X320660890Y23858452D01*
X320660890Y23858452D02*
X320660890Y24048928D01*
X320660890Y24048928D02*
X320708509Y24144166D01*
X320708509Y24144166D02*
X320756128Y24191785D01*
X320756128Y24191785D02*
X320851366Y24239404D01*
X320851366Y24239404D02*
X321041842Y24239404D01*
X321041842Y24239404D02*
X321137080Y24191785D01*
X321137080Y24191785D02*
X321184700Y24144166D01*
X321184700Y24144166D02*
X321232319Y24048928D01*
X321232319Y24048928D02*
X321232319Y23858452D01*
X321232319Y23858452D02*
X321184700Y23763214D01*
X321184700Y23763214D02*
X321137080Y23715595D01*
X321137080Y23715595D02*
X321041842Y23667976D01*
X321041842Y23667976D02*
X320851366Y23667976D01*
X320851366Y23667976D02*
X320756128Y23715595D01*
X320756128Y23715595D02*
X320708509Y23763214D01*
X320708509Y23763214D02*
X320660890Y23858452D01*
X320232319Y23334642D02*
X320232319Y22715595D01*
X320232319Y22715595D02*
X320613271Y23048928D01*
X320613271Y23048928D02*
X320613271Y22906071D01*
X320613271Y22906071D02*
X320660890Y22810833D01*
X320660890Y22810833D02*
X320708509Y22763214D01*
X320708509Y22763214D02*
X320803747Y22715595D01*
X320803747Y22715595D02*
X321041842Y22715595D01*
X321041842Y22715595D02*
X321137080Y22763214D01*
X321137080Y22763214D02*
X321184700Y22810833D01*
X321184700Y22810833D02*
X321232319Y22906071D01*
X321232319Y22906071D02*
X321232319Y23191785D01*
X321232319Y23191785D02*
X321184700Y23287023D01*
X321184700Y23287023D02*
X321137080Y23334642D01*
X83107319Y82341785D02*
X82107319Y82341785D01*
X82107319Y82341785D02*
X82107319Y82103690D01*
X82107319Y82103690D02*
X82154938Y81960833D01*
X82154938Y81960833D02*
X82250176Y81865595D01*
X82250176Y81865595D02*
X82345414Y81817976D01*
X82345414Y81817976D02*
X82535890Y81770357D01*
X82535890Y81770357D02*
X82678747Y81770357D01*
X82678747Y81770357D02*
X82869223Y81817976D01*
X82869223Y81817976D02*
X82964461Y81865595D01*
X82964461Y81865595D02*
X83059700Y81960833D01*
X83059700Y81960833D02*
X83107319Y82103690D01*
X83107319Y82103690D02*
X83107319Y82341785D01*
X82107319Y81437023D02*
X82107319Y80817976D01*
X82107319Y80817976D02*
X82488271Y81151309D01*
X82488271Y81151309D02*
X82488271Y81008452D01*
X82488271Y81008452D02*
X82535890Y80913214D01*
X82535890Y80913214D02*
X82583509Y80865595D01*
X82583509Y80865595D02*
X82678747Y80817976D01*
X82678747Y80817976D02*
X82916842Y80817976D01*
X82916842Y80817976D02*
X83012080Y80865595D01*
X83012080Y80865595D02*
X83059700Y80913214D01*
X83059700Y80913214D02*
X83107319Y81008452D01*
X83107319Y81008452D02*
X83107319Y81294166D01*
X83107319Y81294166D02*
X83059700Y81389404D01*
X83059700Y81389404D02*
X83012080Y81437023D01*
X82107319Y80484642D02*
X82107319Y79865595D01*
X82107319Y79865595D02*
X82488271Y80198928D01*
X82488271Y80198928D02*
X82488271Y80056071D01*
X82488271Y80056071D02*
X82535890Y79960833D01*
X82535890Y79960833D02*
X82583509Y79913214D01*
X82583509Y79913214D02*
X82678747Y79865595D01*
X82678747Y79865595D02*
X82916842Y79865595D01*
X82916842Y79865595D02*
X83012080Y79913214D01*
X83012080Y79913214D02*
X83059700Y79960833D01*
X83059700Y79960833D02*
X83107319Y80056071D01*
X83107319Y80056071D02*
X83107319Y80341785D01*
X83107319Y80341785D02*
X83059700Y80437023D01*
X83059700Y80437023D02*
X83012080Y80484642D01*
X173594819Y44241785D02*
X172594819Y44241785D01*
X172594819Y44241785D02*
X172594819Y44003690D01*
X172594819Y44003690D02*
X172642438Y43860833D01*
X172642438Y43860833D02*
X172737676Y43765595D01*
X172737676Y43765595D02*
X172832914Y43717976D01*
X172832914Y43717976D02*
X173023390Y43670357D01*
X173023390Y43670357D02*
X173166247Y43670357D01*
X173166247Y43670357D02*
X173356723Y43717976D01*
X173356723Y43717976D02*
X173451961Y43765595D01*
X173451961Y43765595D02*
X173547200Y43860833D01*
X173547200Y43860833D02*
X173594819Y44003690D01*
X173594819Y44003690D02*
X173594819Y44241785D01*
X172594819Y42813214D02*
X172594819Y43003690D01*
X172594819Y43003690D02*
X172642438Y43098928D01*
X172642438Y43098928D02*
X172690057Y43146547D01*
X172690057Y43146547D02*
X172832914Y43241785D01*
X172832914Y43241785D02*
X173023390Y43289404D01*
X173023390Y43289404D02*
X173404342Y43289404D01*
X173404342Y43289404D02*
X173499580Y43241785D01*
X173499580Y43241785D02*
X173547200Y43194166D01*
X173547200Y43194166D02*
X173594819Y43098928D01*
X173594819Y43098928D02*
X173594819Y42908452D01*
X173594819Y42908452D02*
X173547200Y42813214D01*
X173547200Y42813214D02*
X173499580Y42765595D01*
X173499580Y42765595D02*
X173404342Y42717976D01*
X173404342Y42717976D02*
X173166247Y42717976D01*
X173166247Y42717976D02*
X173071009Y42765595D01*
X173071009Y42765595D02*
X173023390Y42813214D01*
X173023390Y42813214D02*
X172975771Y42908452D01*
X172975771Y42908452D02*
X172975771Y43098928D01*
X172975771Y43098928D02*
X173023390Y43194166D01*
X173023390Y43194166D02*
X173071009Y43241785D01*
X173071009Y43241785D02*
X173166247Y43289404D01*
X172594819Y41860833D02*
X172594819Y42051309D01*
X172594819Y42051309D02*
X172642438Y42146547D01*
X172642438Y42146547D02*
X172690057Y42194166D01*
X172690057Y42194166D02*
X172832914Y42289404D01*
X172832914Y42289404D02*
X173023390Y42337023D01*
X173023390Y42337023D02*
X173404342Y42337023D01*
X173404342Y42337023D02*
X173499580Y42289404D01*
X173499580Y42289404D02*
X173547200Y42241785D01*
X173547200Y42241785D02*
X173594819Y42146547D01*
X173594819Y42146547D02*
X173594819Y41956071D01*
X173594819Y41956071D02*
X173547200Y41860833D01*
X173547200Y41860833D02*
X173499580Y41813214D01*
X173499580Y41813214D02*
X173404342Y41765595D01*
X173404342Y41765595D02*
X173166247Y41765595D01*
X173166247Y41765595D02*
X173071009Y41813214D01*
X173071009Y41813214D02*
X173023390Y41860833D01*
X173023390Y41860833D02*
X172975771Y41956071D01*
X172975771Y41956071D02*
X172975771Y42146547D01*
X172975771Y42146547D02*
X173023390Y42241785D01*
X173023390Y42241785D02*
X173071009Y42289404D01*
X173071009Y42289404D02*
X173166247Y42337023D01*
X187882319Y101391785D02*
X186882319Y101391785D01*
X186882319Y101391785D02*
X186882319Y101153690D01*
X186882319Y101153690D02*
X186929938Y101010833D01*
X186929938Y101010833D02*
X187025176Y100915595D01*
X187025176Y100915595D02*
X187120414Y100867976D01*
X187120414Y100867976D02*
X187310890Y100820357D01*
X187310890Y100820357D02*
X187453747Y100820357D01*
X187453747Y100820357D02*
X187644223Y100867976D01*
X187644223Y100867976D02*
X187739461Y100915595D01*
X187739461Y100915595D02*
X187834700Y101010833D01*
X187834700Y101010833D02*
X187882319Y101153690D01*
X187882319Y101153690D02*
X187882319Y101391785D01*
X186977557Y100439404D02*
X186929938Y100391785D01*
X186929938Y100391785D02*
X186882319Y100296547D01*
X186882319Y100296547D02*
X186882319Y100058452D01*
X186882319Y100058452D02*
X186929938Y99963214D01*
X186929938Y99963214D02*
X186977557Y99915595D01*
X186977557Y99915595D02*
X187072795Y99867976D01*
X187072795Y99867976D02*
X187168033Y99867976D01*
X187168033Y99867976D02*
X187310890Y99915595D01*
X187310890Y99915595D02*
X187882319Y100487023D01*
X187882319Y100487023D02*
X187882319Y99867976D01*
X187215652Y99010833D02*
X187882319Y99010833D01*
X186834700Y99248928D02*
X187548985Y99487023D01*
X187548985Y99487023D02*
X187548985Y98867976D01*
X211694819Y44241785D02*
X210694819Y44241785D01*
X210694819Y44241785D02*
X210694819Y44003690D01*
X210694819Y44003690D02*
X210742438Y43860833D01*
X210742438Y43860833D02*
X210837676Y43765595D01*
X210837676Y43765595D02*
X210932914Y43717976D01*
X210932914Y43717976D02*
X211123390Y43670357D01*
X211123390Y43670357D02*
X211266247Y43670357D01*
X211266247Y43670357D02*
X211456723Y43717976D01*
X211456723Y43717976D02*
X211551961Y43765595D01*
X211551961Y43765595D02*
X211647200Y43860833D01*
X211647200Y43860833D02*
X211694819Y44003690D01*
X211694819Y44003690D02*
X211694819Y44241785D01*
X210694819Y42813214D02*
X210694819Y43003690D01*
X210694819Y43003690D02*
X210742438Y43098928D01*
X210742438Y43098928D02*
X210790057Y43146547D01*
X210790057Y43146547D02*
X210932914Y43241785D01*
X210932914Y43241785D02*
X211123390Y43289404D01*
X211123390Y43289404D02*
X211504342Y43289404D01*
X211504342Y43289404D02*
X211599580Y43241785D01*
X211599580Y43241785D02*
X211647200Y43194166D01*
X211647200Y43194166D02*
X211694819Y43098928D01*
X211694819Y43098928D02*
X211694819Y42908452D01*
X211694819Y42908452D02*
X211647200Y42813214D01*
X211647200Y42813214D02*
X211599580Y42765595D01*
X211599580Y42765595D02*
X211504342Y42717976D01*
X211504342Y42717976D02*
X211266247Y42717976D01*
X211266247Y42717976D02*
X211171009Y42765595D01*
X211171009Y42765595D02*
X211123390Y42813214D01*
X211123390Y42813214D02*
X211075771Y42908452D01*
X211075771Y42908452D02*
X211075771Y43098928D01*
X211075771Y43098928D02*
X211123390Y43194166D01*
X211123390Y43194166D02*
X211171009Y43241785D01*
X211171009Y43241785D02*
X211266247Y43289404D01*
X211123390Y42146547D02*
X211075771Y42241785D01*
X211075771Y42241785D02*
X211028152Y42289404D01*
X211028152Y42289404D02*
X210932914Y42337023D01*
X210932914Y42337023D02*
X210885295Y42337023D01*
X210885295Y42337023D02*
X210790057Y42289404D01*
X210790057Y42289404D02*
X210742438Y42241785D01*
X210742438Y42241785D02*
X210694819Y42146547D01*
X210694819Y42146547D02*
X210694819Y41956071D01*
X210694819Y41956071D02*
X210742438Y41860833D01*
X210742438Y41860833D02*
X210790057Y41813214D01*
X210790057Y41813214D02*
X210885295Y41765595D01*
X210885295Y41765595D02*
X210932914Y41765595D01*
X210932914Y41765595D02*
X211028152Y41813214D01*
X211028152Y41813214D02*
X211075771Y41860833D01*
X211075771Y41860833D02*
X211123390Y41956071D01*
X211123390Y41956071D02*
X211123390Y42146547D01*
X211123390Y42146547D02*
X211171009Y42241785D01*
X211171009Y42241785D02*
X211218628Y42289404D01*
X211218628Y42289404D02*
X211313866Y42337023D01*
X211313866Y42337023D02*
X211504342Y42337023D01*
X211504342Y42337023D02*
X211599580Y42289404D01*
X211599580Y42289404D02*
X211647200Y42241785D01*
X211647200Y42241785D02*
X211694819Y42146547D01*
X211694819Y42146547D02*
X211694819Y41956071D01*
X211694819Y41956071D02*
X211647200Y41860833D01*
X211647200Y41860833D02*
X211599580Y41813214D01*
X211599580Y41813214D02*
X211504342Y41765595D01*
X211504342Y41765595D02*
X211313866Y41765595D01*
X211313866Y41765595D02*
X211218628Y41813214D01*
X211218628Y41813214D02*
X211171009Y41860833D01*
X211171009Y41860833D02*
X211123390Y41956071D01*
X73582319Y101391785D02*
X72582319Y101391785D01*
X72582319Y101391785D02*
X72582319Y101153690D01*
X72582319Y101153690D02*
X72629938Y101010833D01*
X72629938Y101010833D02*
X72725176Y100915595D01*
X72725176Y100915595D02*
X72820414Y100867976D01*
X72820414Y100867976D02*
X73010890Y100820357D01*
X73010890Y100820357D02*
X73153747Y100820357D01*
X73153747Y100820357D02*
X73344223Y100867976D01*
X73344223Y100867976D02*
X73439461Y100915595D01*
X73439461Y100915595D02*
X73534700Y101010833D01*
X73534700Y101010833D02*
X73582319Y101153690D01*
X73582319Y101153690D02*
X73582319Y101391785D01*
X73582319Y99867976D02*
X73582319Y100439404D01*
X73582319Y100153690D02*
X72582319Y100153690D01*
X72582319Y100153690D02*
X72725176Y100248928D01*
X72725176Y100248928D02*
X72820414Y100344166D01*
X72820414Y100344166D02*
X72868033Y100439404D01*
X73010890Y99296547D02*
X72963271Y99391785D01*
X72963271Y99391785D02*
X72915652Y99439404D01*
X72915652Y99439404D02*
X72820414Y99487023D01*
X72820414Y99487023D02*
X72772795Y99487023D01*
X72772795Y99487023D02*
X72677557Y99439404D01*
X72677557Y99439404D02*
X72629938Y99391785D01*
X72629938Y99391785D02*
X72582319Y99296547D01*
X72582319Y99296547D02*
X72582319Y99106071D01*
X72582319Y99106071D02*
X72629938Y99010833D01*
X72629938Y99010833D02*
X72677557Y98963214D01*
X72677557Y98963214D02*
X72772795Y98915595D01*
X72772795Y98915595D02*
X72820414Y98915595D01*
X72820414Y98915595D02*
X72915652Y98963214D01*
X72915652Y98963214D02*
X72963271Y99010833D01*
X72963271Y99010833D02*
X73010890Y99106071D01*
X73010890Y99106071D02*
X73010890Y99296547D01*
X73010890Y99296547D02*
X73058509Y99391785D01*
X73058509Y99391785D02*
X73106128Y99439404D01*
X73106128Y99439404D02*
X73201366Y99487023D01*
X73201366Y99487023D02*
X73391842Y99487023D01*
X73391842Y99487023D02*
X73487080Y99439404D01*
X73487080Y99439404D02*
X73534700Y99391785D01*
X73534700Y99391785D02*
X73582319Y99296547D01*
X73582319Y99296547D02*
X73582319Y99106071D01*
X73582319Y99106071D02*
X73534700Y99010833D01*
X73534700Y99010833D02*
X73487080Y98963214D01*
X73487080Y98963214D02*
X73391842Y98915595D01*
X73391842Y98915595D02*
X73201366Y98915595D01*
X73201366Y98915595D02*
X73106128Y98963214D01*
X73106128Y98963214D02*
X73058509Y99010833D01*
X73058509Y99010833D02*
X73010890Y99106071D01*
X302182319Y125204285D02*
X301182319Y125204285D01*
X301182319Y125204285D02*
X301182319Y124966190D01*
X301182319Y124966190D02*
X301229938Y124823333D01*
X301229938Y124823333D02*
X301325176Y124728095D01*
X301325176Y124728095D02*
X301420414Y124680476D01*
X301420414Y124680476D02*
X301610890Y124632857D01*
X301610890Y124632857D02*
X301753747Y124632857D01*
X301753747Y124632857D02*
X301944223Y124680476D01*
X301944223Y124680476D02*
X302039461Y124728095D01*
X302039461Y124728095D02*
X302134700Y124823333D01*
X302134700Y124823333D02*
X302182319Y124966190D01*
X302182319Y124966190D02*
X302182319Y125204285D01*
X302182319Y123680476D02*
X302182319Y124251904D01*
X302182319Y123966190D02*
X301182319Y123966190D01*
X301182319Y123966190D02*
X301325176Y124061428D01*
X301325176Y124061428D02*
X301420414Y124156666D01*
X301420414Y124156666D02*
X301468033Y124251904D01*
X301515652Y122823333D02*
X302182319Y122823333D01*
X301134700Y123061428D02*
X301848985Y123299523D01*
X301848985Y123299523D02*
X301848985Y122680476D01*
X192644819Y44241785D02*
X191644819Y44241785D01*
X191644819Y44241785D02*
X191644819Y44003690D01*
X191644819Y44003690D02*
X191692438Y43860833D01*
X191692438Y43860833D02*
X191787676Y43765595D01*
X191787676Y43765595D02*
X191882914Y43717976D01*
X191882914Y43717976D02*
X192073390Y43670357D01*
X192073390Y43670357D02*
X192216247Y43670357D01*
X192216247Y43670357D02*
X192406723Y43717976D01*
X192406723Y43717976D02*
X192501961Y43765595D01*
X192501961Y43765595D02*
X192597200Y43860833D01*
X192597200Y43860833D02*
X192644819Y44003690D01*
X192644819Y44003690D02*
X192644819Y44241785D01*
X191644819Y42813214D02*
X191644819Y43003690D01*
X191644819Y43003690D02*
X191692438Y43098928D01*
X191692438Y43098928D02*
X191740057Y43146547D01*
X191740057Y43146547D02*
X191882914Y43241785D01*
X191882914Y43241785D02*
X192073390Y43289404D01*
X192073390Y43289404D02*
X192454342Y43289404D01*
X192454342Y43289404D02*
X192549580Y43241785D01*
X192549580Y43241785D02*
X192597200Y43194166D01*
X192597200Y43194166D02*
X192644819Y43098928D01*
X192644819Y43098928D02*
X192644819Y42908452D01*
X192644819Y42908452D02*
X192597200Y42813214D01*
X192597200Y42813214D02*
X192549580Y42765595D01*
X192549580Y42765595D02*
X192454342Y42717976D01*
X192454342Y42717976D02*
X192216247Y42717976D01*
X192216247Y42717976D02*
X192121009Y42765595D01*
X192121009Y42765595D02*
X192073390Y42813214D01*
X192073390Y42813214D02*
X192025771Y42908452D01*
X192025771Y42908452D02*
X192025771Y43098928D01*
X192025771Y43098928D02*
X192073390Y43194166D01*
X192073390Y43194166D02*
X192121009Y43241785D01*
X192121009Y43241785D02*
X192216247Y43289404D01*
X191644819Y42384642D02*
X191644819Y41717976D01*
X191644819Y41717976D02*
X192644819Y42146547D01*
X235507319Y82341785D02*
X234507319Y82341785D01*
X234507319Y82341785D02*
X234507319Y82103690D01*
X234507319Y82103690D02*
X234554938Y81960833D01*
X234554938Y81960833D02*
X234650176Y81865595D01*
X234650176Y81865595D02*
X234745414Y81817976D01*
X234745414Y81817976D02*
X234935890Y81770357D01*
X234935890Y81770357D02*
X235078747Y81770357D01*
X235078747Y81770357D02*
X235269223Y81817976D01*
X235269223Y81817976D02*
X235364461Y81865595D01*
X235364461Y81865595D02*
X235459700Y81960833D01*
X235459700Y81960833D02*
X235507319Y82103690D01*
X235507319Y82103690D02*
X235507319Y82341785D01*
X234840652Y80913214D02*
X235507319Y80913214D01*
X234459700Y81151309D02*
X235173985Y81389404D01*
X235173985Y81389404D02*
X235173985Y80770357D01*
X235507319Y79865595D02*
X235507319Y80437023D01*
X235507319Y80151309D02*
X234507319Y80151309D01*
X234507319Y80151309D02*
X234650176Y80246547D01*
X234650176Y80246547D02*
X234745414Y80341785D01*
X234745414Y80341785D02*
X234793033Y80437023D01*
X149782319Y124728094D02*
X148782319Y124728094D01*
X148782319Y124728094D02*
X148782319Y124489999D01*
X148782319Y124489999D02*
X148829938Y124347142D01*
X148829938Y124347142D02*
X148925176Y124251904D01*
X148925176Y124251904D02*
X149020414Y124204285D01*
X149020414Y124204285D02*
X149210890Y124156666D01*
X149210890Y124156666D02*
X149353747Y124156666D01*
X149353747Y124156666D02*
X149544223Y124204285D01*
X149544223Y124204285D02*
X149639461Y124251904D01*
X149639461Y124251904D02*
X149734700Y124347142D01*
X149734700Y124347142D02*
X149782319Y124489999D01*
X149782319Y124489999D02*
X149782319Y124728094D01*
X148782319Y123299523D02*
X148782319Y123489999D01*
X148782319Y123489999D02*
X148829938Y123585237D01*
X148829938Y123585237D02*
X148877557Y123632856D01*
X148877557Y123632856D02*
X149020414Y123728094D01*
X149020414Y123728094D02*
X149210890Y123775713D01*
X149210890Y123775713D02*
X149591842Y123775713D01*
X149591842Y123775713D02*
X149687080Y123728094D01*
X149687080Y123728094D02*
X149734700Y123680475D01*
X149734700Y123680475D02*
X149782319Y123585237D01*
X149782319Y123585237D02*
X149782319Y123394761D01*
X149782319Y123394761D02*
X149734700Y123299523D01*
X149734700Y123299523D02*
X149687080Y123251904D01*
X149687080Y123251904D02*
X149591842Y123204285D01*
X149591842Y123204285D02*
X149353747Y123204285D01*
X149353747Y123204285D02*
X149258509Y123251904D01*
X149258509Y123251904D02*
X149210890Y123299523D01*
X149210890Y123299523D02*
X149163271Y123394761D01*
X149163271Y123394761D02*
X149163271Y123585237D01*
X149163271Y123585237D02*
X149210890Y123680475D01*
X149210890Y123680475D02*
X149258509Y123728094D01*
X149258509Y123728094D02*
X149353747Y123775713D01*
X178357319Y82341785D02*
X177357319Y82341785D01*
X177357319Y82341785D02*
X177357319Y82103690D01*
X177357319Y82103690D02*
X177404938Y81960833D01*
X177404938Y81960833D02*
X177500176Y81865595D01*
X177500176Y81865595D02*
X177595414Y81817976D01*
X177595414Y81817976D02*
X177785890Y81770357D01*
X177785890Y81770357D02*
X177928747Y81770357D01*
X177928747Y81770357D02*
X178119223Y81817976D01*
X178119223Y81817976D02*
X178214461Y81865595D01*
X178214461Y81865595D02*
X178309700Y81960833D01*
X178309700Y81960833D02*
X178357319Y82103690D01*
X178357319Y82103690D02*
X178357319Y82341785D01*
X177357319Y81437023D02*
X177357319Y80817976D01*
X177357319Y80817976D02*
X177738271Y81151309D01*
X177738271Y81151309D02*
X177738271Y81008452D01*
X177738271Y81008452D02*
X177785890Y80913214D01*
X177785890Y80913214D02*
X177833509Y80865595D01*
X177833509Y80865595D02*
X177928747Y80817976D01*
X177928747Y80817976D02*
X178166842Y80817976D01*
X178166842Y80817976D02*
X178262080Y80865595D01*
X178262080Y80865595D02*
X178309700Y80913214D01*
X178309700Y80913214D02*
X178357319Y81008452D01*
X178357319Y81008452D02*
X178357319Y81294166D01*
X178357319Y81294166D02*
X178309700Y81389404D01*
X178309700Y81389404D02*
X178262080Y81437023D01*
X177785890Y80246547D02*
X177738271Y80341785D01*
X177738271Y80341785D02*
X177690652Y80389404D01*
X177690652Y80389404D02*
X177595414Y80437023D01*
X177595414Y80437023D02*
X177547795Y80437023D01*
X177547795Y80437023D02*
X177452557Y80389404D01*
X177452557Y80389404D02*
X177404938Y80341785D01*
X177404938Y80341785D02*
X177357319Y80246547D01*
X177357319Y80246547D02*
X177357319Y80056071D01*
X177357319Y80056071D02*
X177404938Y79960833D01*
X177404938Y79960833D02*
X177452557Y79913214D01*
X177452557Y79913214D02*
X177547795Y79865595D01*
X177547795Y79865595D02*
X177595414Y79865595D01*
X177595414Y79865595D02*
X177690652Y79913214D01*
X177690652Y79913214D02*
X177738271Y79960833D01*
X177738271Y79960833D02*
X177785890Y80056071D01*
X177785890Y80056071D02*
X177785890Y80246547D01*
X177785890Y80246547D02*
X177833509Y80341785D01*
X177833509Y80341785D02*
X177881128Y80389404D01*
X177881128Y80389404D02*
X177976366Y80437023D01*
X177976366Y80437023D02*
X178166842Y80437023D01*
X178166842Y80437023D02*
X178262080Y80389404D01*
X178262080Y80389404D02*
X178309700Y80341785D01*
X178309700Y80341785D02*
X178357319Y80246547D01*
X178357319Y80246547D02*
X178357319Y80056071D01*
X178357319Y80056071D02*
X178309700Y79960833D01*
X178309700Y79960833D02*
X178262080Y79913214D01*
X178262080Y79913214D02*
X178166842Y79865595D01*
X178166842Y79865595D02*
X177976366Y79865595D01*
X177976366Y79865595D02*
X177881128Y79913214D01*
X177881128Y79913214D02*
X177833509Y79960833D01*
X177833509Y79960833D02*
X177785890Y80056071D01*
X268844819Y44241785D02*
X267844819Y44241785D01*
X267844819Y44241785D02*
X267844819Y44003690D01*
X267844819Y44003690D02*
X267892438Y43860833D01*
X267892438Y43860833D02*
X267987676Y43765595D01*
X267987676Y43765595D02*
X268082914Y43717976D01*
X268082914Y43717976D02*
X268273390Y43670357D01*
X268273390Y43670357D02*
X268416247Y43670357D01*
X268416247Y43670357D02*
X268606723Y43717976D01*
X268606723Y43717976D02*
X268701961Y43765595D01*
X268701961Y43765595D02*
X268797200Y43860833D01*
X268797200Y43860833D02*
X268844819Y44003690D01*
X268844819Y44003690D02*
X268844819Y44241785D01*
X267844819Y43337023D02*
X267844819Y42670357D01*
X267844819Y42670357D02*
X268844819Y43098928D01*
X268844819Y41765595D02*
X268844819Y42337023D01*
X268844819Y42051309D02*
X267844819Y42051309D01*
X267844819Y42051309D02*
X267987676Y42146547D01*
X267987676Y42146547D02*
X268082914Y42241785D01*
X268082914Y42241785D02*
X268130533Y42337023D01*
X225982319Y125204285D02*
X224982319Y125204285D01*
X224982319Y125204285D02*
X224982319Y124966190D01*
X224982319Y124966190D02*
X225029938Y124823333D01*
X225029938Y124823333D02*
X225125176Y124728095D01*
X225125176Y124728095D02*
X225220414Y124680476D01*
X225220414Y124680476D02*
X225410890Y124632857D01*
X225410890Y124632857D02*
X225553747Y124632857D01*
X225553747Y124632857D02*
X225744223Y124680476D01*
X225744223Y124680476D02*
X225839461Y124728095D01*
X225839461Y124728095D02*
X225934700Y124823333D01*
X225934700Y124823333D02*
X225982319Y124966190D01*
X225982319Y124966190D02*
X225982319Y125204285D01*
X225982319Y123680476D02*
X225982319Y124251904D01*
X225982319Y123966190D02*
X224982319Y123966190D01*
X224982319Y123966190D02*
X225125176Y124061428D01*
X225125176Y124061428D02*
X225220414Y124156666D01*
X225220414Y124156666D02*
X225268033Y124251904D01*
X224982319Y123061428D02*
X224982319Y122966190D01*
X224982319Y122966190D02*
X225029938Y122870952D01*
X225029938Y122870952D02*
X225077557Y122823333D01*
X225077557Y122823333D02*
X225172795Y122775714D01*
X225172795Y122775714D02*
X225363271Y122728095D01*
X225363271Y122728095D02*
X225601366Y122728095D01*
X225601366Y122728095D02*
X225791842Y122775714D01*
X225791842Y122775714D02*
X225887080Y122823333D01*
X225887080Y122823333D02*
X225934700Y122870952D01*
X225934700Y122870952D02*
X225982319Y122966190D01*
X225982319Y122966190D02*
X225982319Y123061428D01*
X225982319Y123061428D02*
X225934700Y123156666D01*
X225934700Y123156666D02*
X225887080Y123204285D01*
X225887080Y123204285D02*
X225791842Y123251904D01*
X225791842Y123251904D02*
X225601366Y123299523D01*
X225601366Y123299523D02*
X225363271Y123299523D01*
X225363271Y123299523D02*
X225172795Y123251904D01*
X225172795Y123251904D02*
X225077557Y123204285D01*
X225077557Y123204285D02*
X225029938Y123156666D01*
X225029938Y123156666D02*
X224982319Y123061428D01*
X111682319Y124728094D02*
X110682319Y124728094D01*
X110682319Y124728094D02*
X110682319Y124489999D01*
X110682319Y124489999D02*
X110729938Y124347142D01*
X110729938Y124347142D02*
X110825176Y124251904D01*
X110825176Y124251904D02*
X110920414Y124204285D01*
X110920414Y124204285D02*
X111110890Y124156666D01*
X111110890Y124156666D02*
X111253747Y124156666D01*
X111253747Y124156666D02*
X111444223Y124204285D01*
X111444223Y124204285D02*
X111539461Y124251904D01*
X111539461Y124251904D02*
X111634700Y124347142D01*
X111634700Y124347142D02*
X111682319Y124489999D01*
X111682319Y124489999D02*
X111682319Y124728094D01*
X111015652Y123299523D02*
X111682319Y123299523D01*
X110634700Y123537618D02*
X111348985Y123775713D01*
X111348985Y123775713D02*
X111348985Y123156666D01*
X140257319Y82341785D02*
X139257319Y82341785D01*
X139257319Y82341785D02*
X139257319Y82103690D01*
X139257319Y82103690D02*
X139304938Y81960833D01*
X139304938Y81960833D02*
X139400176Y81865595D01*
X139400176Y81865595D02*
X139495414Y81817976D01*
X139495414Y81817976D02*
X139685890Y81770357D01*
X139685890Y81770357D02*
X139828747Y81770357D01*
X139828747Y81770357D02*
X140019223Y81817976D01*
X140019223Y81817976D02*
X140114461Y81865595D01*
X140114461Y81865595D02*
X140209700Y81960833D01*
X140209700Y81960833D02*
X140257319Y82103690D01*
X140257319Y82103690D02*
X140257319Y82341785D01*
X139257319Y81437023D02*
X139257319Y80817976D01*
X139257319Y80817976D02*
X139638271Y81151309D01*
X139638271Y81151309D02*
X139638271Y81008452D01*
X139638271Y81008452D02*
X139685890Y80913214D01*
X139685890Y80913214D02*
X139733509Y80865595D01*
X139733509Y80865595D02*
X139828747Y80817976D01*
X139828747Y80817976D02*
X140066842Y80817976D01*
X140066842Y80817976D02*
X140162080Y80865595D01*
X140162080Y80865595D02*
X140209700Y80913214D01*
X140209700Y80913214D02*
X140257319Y81008452D01*
X140257319Y81008452D02*
X140257319Y81294166D01*
X140257319Y81294166D02*
X140209700Y81389404D01*
X140209700Y81389404D02*
X140162080Y81437023D01*
X139257319Y79960833D02*
X139257319Y80151309D01*
X139257319Y80151309D02*
X139304938Y80246547D01*
X139304938Y80246547D02*
X139352557Y80294166D01*
X139352557Y80294166D02*
X139495414Y80389404D01*
X139495414Y80389404D02*
X139685890Y80437023D01*
X139685890Y80437023D02*
X140066842Y80437023D01*
X140066842Y80437023D02*
X140162080Y80389404D01*
X140162080Y80389404D02*
X140209700Y80341785D01*
X140209700Y80341785D02*
X140257319Y80246547D01*
X140257319Y80246547D02*
X140257319Y80056071D01*
X140257319Y80056071D02*
X140209700Y79960833D01*
X140209700Y79960833D02*
X140162080Y79913214D01*
X140162080Y79913214D02*
X140066842Y79865595D01*
X140066842Y79865595D02*
X139828747Y79865595D01*
X139828747Y79865595D02*
X139733509Y79913214D01*
X139733509Y79913214D02*
X139685890Y79960833D01*
X139685890Y79960833D02*
X139638271Y80056071D01*
X139638271Y80056071D02*
X139638271Y80246547D01*
X139638271Y80246547D02*
X139685890Y80341785D01*
X139685890Y80341785D02*
X139733509Y80389404D01*
X139733509Y80389404D02*
X139828747Y80437023D01*
X245032319Y25191785D02*
X244032319Y25191785D01*
X244032319Y25191785D02*
X244032319Y24953690D01*
X244032319Y24953690D02*
X244079938Y24810833D01*
X244079938Y24810833D02*
X244175176Y24715595D01*
X244175176Y24715595D02*
X244270414Y24667976D01*
X244270414Y24667976D02*
X244460890Y24620357D01*
X244460890Y24620357D02*
X244603747Y24620357D01*
X244603747Y24620357D02*
X244794223Y24667976D01*
X244794223Y24667976D02*
X244889461Y24715595D01*
X244889461Y24715595D02*
X244984700Y24810833D01*
X244984700Y24810833D02*
X245032319Y24953690D01*
X245032319Y24953690D02*
X245032319Y25191785D01*
X244032319Y24287023D02*
X244032319Y23620357D01*
X244032319Y23620357D02*
X245032319Y24048928D01*
X245032319Y23191785D02*
X245032319Y23001309D01*
X245032319Y23001309D02*
X244984700Y22906071D01*
X244984700Y22906071D02*
X244937080Y22858452D01*
X244937080Y22858452D02*
X244794223Y22763214D01*
X244794223Y22763214D02*
X244603747Y22715595D01*
X244603747Y22715595D02*
X244222795Y22715595D01*
X244222795Y22715595D02*
X244127557Y22763214D01*
X244127557Y22763214D02*
X244079938Y22810833D01*
X244079938Y22810833D02*
X244032319Y22906071D01*
X244032319Y22906071D02*
X244032319Y23096547D01*
X244032319Y23096547D02*
X244079938Y23191785D01*
X244079938Y23191785D02*
X244127557Y23239404D01*
X244127557Y23239404D02*
X244222795Y23287023D01*
X244222795Y23287023D02*
X244460890Y23287023D01*
X244460890Y23287023D02*
X244556128Y23239404D01*
X244556128Y23239404D02*
X244603747Y23191785D01*
X244603747Y23191785D02*
X244651366Y23096547D01*
X244651366Y23096547D02*
X244651366Y22906071D01*
X244651366Y22906071D02*
X244603747Y22810833D01*
X244603747Y22810833D02*
X244556128Y22763214D01*
X244556128Y22763214D02*
X244460890Y22715595D01*
X175976069Y25191785D02*
X174976069Y25191785D01*
X174976069Y25191785D02*
X174976069Y24953690D01*
X174976069Y24953690D02*
X175023688Y24810833D01*
X175023688Y24810833D02*
X175118926Y24715595D01*
X175118926Y24715595D02*
X175214164Y24667976D01*
X175214164Y24667976D02*
X175404640Y24620357D01*
X175404640Y24620357D02*
X175547497Y24620357D01*
X175547497Y24620357D02*
X175737973Y24667976D01*
X175737973Y24667976D02*
X175833211Y24715595D01*
X175833211Y24715595D02*
X175928450Y24810833D01*
X175928450Y24810833D02*
X175976069Y24953690D01*
X175976069Y24953690D02*
X175976069Y25191785D01*
X174976069Y24287023D02*
X174976069Y23620357D01*
X174976069Y23620357D02*
X175976069Y24048928D01*
X175404640Y23096547D02*
X175357021Y23191785D01*
X175357021Y23191785D02*
X175309402Y23239404D01*
X175309402Y23239404D02*
X175214164Y23287023D01*
X175214164Y23287023D02*
X175166545Y23287023D01*
X175166545Y23287023D02*
X175071307Y23239404D01*
X175071307Y23239404D02*
X175023688Y23191785D01*
X175023688Y23191785D02*
X174976069Y23096547D01*
X174976069Y23096547D02*
X174976069Y22906071D01*
X174976069Y22906071D02*
X175023688Y22810833D01*
X175023688Y22810833D02*
X175071307Y22763214D01*
X175071307Y22763214D02*
X175166545Y22715595D01*
X175166545Y22715595D02*
X175214164Y22715595D01*
X175214164Y22715595D02*
X175309402Y22763214D01*
X175309402Y22763214D02*
X175357021Y22810833D01*
X175357021Y22810833D02*
X175404640Y22906071D01*
X175404640Y22906071D02*
X175404640Y23096547D01*
X175404640Y23096547D02*
X175452259Y23191785D01*
X175452259Y23191785D02*
X175499878Y23239404D01*
X175499878Y23239404D02*
X175595116Y23287023D01*
X175595116Y23287023D02*
X175785592Y23287023D01*
X175785592Y23287023D02*
X175880830Y23239404D01*
X175880830Y23239404D02*
X175928450Y23191785D01*
X175928450Y23191785D02*
X175976069Y23096547D01*
X175976069Y23096547D02*
X175976069Y22906071D01*
X175976069Y22906071D02*
X175928450Y22810833D01*
X175928450Y22810833D02*
X175880830Y22763214D01*
X175880830Y22763214D02*
X175785592Y22715595D01*
X175785592Y22715595D02*
X175595116Y22715595D01*
X175595116Y22715595D02*
X175499878Y22763214D01*
X175499878Y22763214D02*
X175452259Y22810833D01*
X175452259Y22810833D02*
X175404640Y22906071D01*
X54532319Y124728094D02*
X53532319Y124728094D01*
X53532319Y124728094D02*
X53532319Y124489999D01*
X53532319Y124489999D02*
X53579938Y124347142D01*
X53579938Y124347142D02*
X53675176Y124251904D01*
X53675176Y124251904D02*
X53770414Y124204285D01*
X53770414Y124204285D02*
X53960890Y124156666D01*
X53960890Y124156666D02*
X54103747Y124156666D01*
X54103747Y124156666D02*
X54294223Y124204285D01*
X54294223Y124204285D02*
X54389461Y124251904D01*
X54389461Y124251904D02*
X54484700Y124347142D01*
X54484700Y124347142D02*
X54532319Y124489999D01*
X54532319Y124489999D02*
X54532319Y124728094D01*
X54532319Y123204285D02*
X54532319Y123775713D01*
X54532319Y123489999D02*
X53532319Y123489999D01*
X53532319Y123489999D02*
X53675176Y123585237D01*
X53675176Y123585237D02*
X53770414Y123680475D01*
X53770414Y123680475D02*
X53818033Y123775713D01*
X61676069Y63291785D02*
X60676069Y63291785D01*
X60676069Y63291785D02*
X60676069Y63053690D01*
X60676069Y63053690D02*
X60723688Y62910833D01*
X60723688Y62910833D02*
X60818926Y62815595D01*
X60818926Y62815595D02*
X60914164Y62767976D01*
X60914164Y62767976D02*
X61104640Y62720357D01*
X61104640Y62720357D02*
X61247497Y62720357D01*
X61247497Y62720357D02*
X61437973Y62767976D01*
X61437973Y62767976D02*
X61533211Y62815595D01*
X61533211Y62815595D02*
X61628450Y62910833D01*
X61628450Y62910833D02*
X61676069Y63053690D01*
X61676069Y63053690D02*
X61676069Y63291785D01*
X61009402Y61863214D02*
X61676069Y61863214D01*
X60628450Y62101309D02*
X61342735Y62339404D01*
X61342735Y62339404D02*
X61342735Y61720357D01*
X60676069Y61434642D02*
X60676069Y60767976D01*
X60676069Y60767976D02*
X61676069Y61196547D01*
X92632319Y101391785D02*
X91632319Y101391785D01*
X91632319Y101391785D02*
X91632319Y101153690D01*
X91632319Y101153690D02*
X91679938Y101010833D01*
X91679938Y101010833D02*
X91775176Y100915595D01*
X91775176Y100915595D02*
X91870414Y100867976D01*
X91870414Y100867976D02*
X92060890Y100820357D01*
X92060890Y100820357D02*
X92203747Y100820357D01*
X92203747Y100820357D02*
X92394223Y100867976D01*
X92394223Y100867976D02*
X92489461Y100915595D01*
X92489461Y100915595D02*
X92584700Y101010833D01*
X92584700Y101010833D02*
X92632319Y101153690D01*
X92632319Y101153690D02*
X92632319Y101391785D01*
X92632319Y99867976D02*
X92632319Y100439404D01*
X92632319Y100153690D02*
X91632319Y100153690D01*
X91632319Y100153690D02*
X91775176Y100248928D01*
X91775176Y100248928D02*
X91870414Y100344166D01*
X91870414Y100344166D02*
X91918033Y100439404D01*
X92632319Y99391785D02*
X92632319Y99201309D01*
X92632319Y99201309D02*
X92584700Y99106071D01*
X92584700Y99106071D02*
X92537080Y99058452D01*
X92537080Y99058452D02*
X92394223Y98963214D01*
X92394223Y98963214D02*
X92203747Y98915595D01*
X92203747Y98915595D02*
X91822795Y98915595D01*
X91822795Y98915595D02*
X91727557Y98963214D01*
X91727557Y98963214D02*
X91679938Y99010833D01*
X91679938Y99010833D02*
X91632319Y99106071D01*
X91632319Y99106071D02*
X91632319Y99296547D01*
X91632319Y99296547D02*
X91679938Y99391785D01*
X91679938Y99391785D02*
X91727557Y99439404D01*
X91727557Y99439404D02*
X91822795Y99487023D01*
X91822795Y99487023D02*
X92060890Y99487023D01*
X92060890Y99487023D02*
X92156128Y99439404D01*
X92156128Y99439404D02*
X92203747Y99391785D01*
X92203747Y99391785D02*
X92251366Y99296547D01*
X92251366Y99296547D02*
X92251366Y99106071D01*
X92251366Y99106071D02*
X92203747Y99010833D01*
X92203747Y99010833D02*
X92156128Y98963214D01*
X92156128Y98963214D02*
X92060890Y98915595D01*
X340282319Y25191785D02*
X339282319Y25191785D01*
X339282319Y25191785D02*
X339282319Y24953690D01*
X339282319Y24953690D02*
X339329938Y24810833D01*
X339329938Y24810833D02*
X339425176Y24715595D01*
X339425176Y24715595D02*
X339520414Y24667976D01*
X339520414Y24667976D02*
X339710890Y24620357D01*
X339710890Y24620357D02*
X339853747Y24620357D01*
X339853747Y24620357D02*
X340044223Y24667976D01*
X340044223Y24667976D02*
X340139461Y24715595D01*
X340139461Y24715595D02*
X340234700Y24810833D01*
X340234700Y24810833D02*
X340282319Y24953690D01*
X340282319Y24953690D02*
X340282319Y25191785D01*
X339710890Y24048928D02*
X339663271Y24144166D01*
X339663271Y24144166D02*
X339615652Y24191785D01*
X339615652Y24191785D02*
X339520414Y24239404D01*
X339520414Y24239404D02*
X339472795Y24239404D01*
X339472795Y24239404D02*
X339377557Y24191785D01*
X339377557Y24191785D02*
X339329938Y24144166D01*
X339329938Y24144166D02*
X339282319Y24048928D01*
X339282319Y24048928D02*
X339282319Y23858452D01*
X339282319Y23858452D02*
X339329938Y23763214D01*
X339329938Y23763214D02*
X339377557Y23715595D01*
X339377557Y23715595D02*
X339472795Y23667976D01*
X339472795Y23667976D02*
X339520414Y23667976D01*
X339520414Y23667976D02*
X339615652Y23715595D01*
X339615652Y23715595D02*
X339663271Y23763214D01*
X339663271Y23763214D02*
X339710890Y23858452D01*
X339710890Y23858452D02*
X339710890Y24048928D01*
X339710890Y24048928D02*
X339758509Y24144166D01*
X339758509Y24144166D02*
X339806128Y24191785D01*
X339806128Y24191785D02*
X339901366Y24239404D01*
X339901366Y24239404D02*
X340091842Y24239404D01*
X340091842Y24239404D02*
X340187080Y24191785D01*
X340187080Y24191785D02*
X340234700Y24144166D01*
X340234700Y24144166D02*
X340282319Y24048928D01*
X340282319Y24048928D02*
X340282319Y23858452D01*
X340282319Y23858452D02*
X340234700Y23763214D01*
X340234700Y23763214D02*
X340187080Y23715595D01*
X340187080Y23715595D02*
X340091842Y23667976D01*
X340091842Y23667976D02*
X339901366Y23667976D01*
X339901366Y23667976D02*
X339806128Y23715595D01*
X339806128Y23715595D02*
X339758509Y23763214D01*
X339758509Y23763214D02*
X339710890Y23858452D01*
X339615652Y22810833D02*
X340282319Y22810833D01*
X339234700Y23048928D02*
X339948985Y23287023D01*
X339948985Y23287023D02*
X339948985Y22667976D01*
X264082319Y101391785D02*
X263082319Y101391785D01*
X263082319Y101391785D02*
X263082319Y101153690D01*
X263082319Y101153690D02*
X263129938Y101010833D01*
X263129938Y101010833D02*
X263225176Y100915595D01*
X263225176Y100915595D02*
X263320414Y100867976D01*
X263320414Y100867976D02*
X263510890Y100820357D01*
X263510890Y100820357D02*
X263653747Y100820357D01*
X263653747Y100820357D02*
X263844223Y100867976D01*
X263844223Y100867976D02*
X263939461Y100915595D01*
X263939461Y100915595D02*
X264034700Y101010833D01*
X264034700Y101010833D02*
X264082319Y101153690D01*
X264082319Y101153690D02*
X264082319Y101391785D01*
X263177557Y100439404D02*
X263129938Y100391785D01*
X263129938Y100391785D02*
X263082319Y100296547D01*
X263082319Y100296547D02*
X263082319Y100058452D01*
X263082319Y100058452D02*
X263129938Y99963214D01*
X263129938Y99963214D02*
X263177557Y99915595D01*
X263177557Y99915595D02*
X263272795Y99867976D01*
X263272795Y99867976D02*
X263368033Y99867976D01*
X263368033Y99867976D02*
X263510890Y99915595D01*
X263510890Y99915595D02*
X264082319Y100487023D01*
X264082319Y100487023D02*
X264082319Y99867976D01*
X263510890Y99296547D02*
X263463271Y99391785D01*
X263463271Y99391785D02*
X263415652Y99439404D01*
X263415652Y99439404D02*
X263320414Y99487023D01*
X263320414Y99487023D02*
X263272795Y99487023D01*
X263272795Y99487023D02*
X263177557Y99439404D01*
X263177557Y99439404D02*
X263129938Y99391785D01*
X263129938Y99391785D02*
X263082319Y99296547D01*
X263082319Y99296547D02*
X263082319Y99106071D01*
X263082319Y99106071D02*
X263129938Y99010833D01*
X263129938Y99010833D02*
X263177557Y98963214D01*
X263177557Y98963214D02*
X263272795Y98915595D01*
X263272795Y98915595D02*
X263320414Y98915595D01*
X263320414Y98915595D02*
X263415652Y98963214D01*
X263415652Y98963214D02*
X263463271Y99010833D01*
X263463271Y99010833D02*
X263510890Y99106071D01*
X263510890Y99106071D02*
X263510890Y99296547D01*
X263510890Y99296547D02*
X263558509Y99391785D01*
X263558509Y99391785D02*
X263606128Y99439404D01*
X263606128Y99439404D02*
X263701366Y99487023D01*
X263701366Y99487023D02*
X263891842Y99487023D01*
X263891842Y99487023D02*
X263987080Y99439404D01*
X263987080Y99439404D02*
X264034700Y99391785D01*
X264034700Y99391785D02*
X264082319Y99296547D01*
X264082319Y99296547D02*
X264082319Y99106071D01*
X264082319Y99106071D02*
X264034700Y99010833D01*
X264034700Y99010833D02*
X263987080Y98963214D01*
X263987080Y98963214D02*
X263891842Y98915595D01*
X263891842Y98915595D02*
X263701366Y98915595D01*
X263701366Y98915595D02*
X263606128Y98963214D01*
X263606128Y98963214D02*
X263558509Y99010833D01*
X263558509Y99010833D02*
X263510890Y99106071D01*
X309326069Y63291785D02*
X308326069Y63291785D01*
X308326069Y63291785D02*
X308326069Y63053690D01*
X308326069Y63053690D02*
X308373688Y62910833D01*
X308373688Y62910833D02*
X308468926Y62815595D01*
X308468926Y62815595D02*
X308564164Y62767976D01*
X308564164Y62767976D02*
X308754640Y62720357D01*
X308754640Y62720357D02*
X308897497Y62720357D01*
X308897497Y62720357D02*
X309087973Y62767976D01*
X309087973Y62767976D02*
X309183211Y62815595D01*
X309183211Y62815595D02*
X309278450Y62910833D01*
X309278450Y62910833D02*
X309326069Y63053690D01*
X309326069Y63053690D02*
X309326069Y63291785D01*
X308326069Y61815595D02*
X308326069Y62291785D01*
X308326069Y62291785D02*
X308802259Y62339404D01*
X308802259Y62339404D02*
X308754640Y62291785D01*
X308754640Y62291785D02*
X308707021Y62196547D01*
X308707021Y62196547D02*
X308707021Y61958452D01*
X308707021Y61958452D02*
X308754640Y61863214D01*
X308754640Y61863214D02*
X308802259Y61815595D01*
X308802259Y61815595D02*
X308897497Y61767976D01*
X308897497Y61767976D02*
X309135592Y61767976D01*
X309135592Y61767976D02*
X309230830Y61815595D01*
X309230830Y61815595D02*
X309278450Y61863214D01*
X309278450Y61863214D02*
X309326069Y61958452D01*
X309326069Y61958452D02*
X309326069Y62196547D01*
X309326069Y62196547D02*
X309278450Y62291785D01*
X309278450Y62291785D02*
X309230830Y62339404D01*
X309326069Y61291785D02*
X309326069Y61101309D01*
X309326069Y61101309D02*
X309278450Y61006071D01*
X309278450Y61006071D02*
X309230830Y60958452D01*
X309230830Y60958452D02*
X309087973Y60863214D01*
X309087973Y60863214D02*
X308897497Y60815595D01*
X308897497Y60815595D02*
X308516545Y60815595D01*
X308516545Y60815595D02*
X308421307Y60863214D01*
X308421307Y60863214D02*
X308373688Y60910833D01*
X308373688Y60910833D02*
X308326069Y61006071D01*
X308326069Y61006071D02*
X308326069Y61196547D01*
X308326069Y61196547D02*
X308373688Y61291785D01*
X308373688Y61291785D02*
X308421307Y61339404D01*
X308421307Y61339404D02*
X308516545Y61387023D01*
X308516545Y61387023D02*
X308754640Y61387023D01*
X308754640Y61387023D02*
X308849878Y61339404D01*
X308849878Y61339404D02*
X308897497Y61291785D01*
X308897497Y61291785D02*
X308945116Y61196547D01*
X308945116Y61196547D02*
X308945116Y61006071D01*
X308945116Y61006071D02*
X308897497Y60910833D01*
X308897497Y60910833D02*
X308849878Y60863214D01*
X308849878Y60863214D02*
X308754640Y60815595D01*
X183119819Y63291785D02*
X182119819Y63291785D01*
X182119819Y63291785D02*
X182119819Y63053690D01*
X182119819Y63053690D02*
X182167438Y62910833D01*
X182167438Y62910833D02*
X182262676Y62815595D01*
X182262676Y62815595D02*
X182357914Y62767976D01*
X182357914Y62767976D02*
X182548390Y62720357D01*
X182548390Y62720357D02*
X182691247Y62720357D01*
X182691247Y62720357D02*
X182881723Y62767976D01*
X182881723Y62767976D02*
X182976961Y62815595D01*
X182976961Y62815595D02*
X183072200Y62910833D01*
X183072200Y62910833D02*
X183119819Y63053690D01*
X183119819Y63053690D02*
X183119819Y63291785D01*
X182119819Y61815595D02*
X182119819Y62291785D01*
X182119819Y62291785D02*
X182596009Y62339404D01*
X182596009Y62339404D02*
X182548390Y62291785D01*
X182548390Y62291785D02*
X182500771Y62196547D01*
X182500771Y62196547D02*
X182500771Y61958452D01*
X182500771Y61958452D02*
X182548390Y61863214D01*
X182548390Y61863214D02*
X182596009Y61815595D01*
X182596009Y61815595D02*
X182691247Y61767976D01*
X182691247Y61767976D02*
X182929342Y61767976D01*
X182929342Y61767976D02*
X183024580Y61815595D01*
X183024580Y61815595D02*
X183072200Y61863214D01*
X183072200Y61863214D02*
X183119819Y61958452D01*
X183119819Y61958452D02*
X183119819Y62196547D01*
X183119819Y62196547D02*
X183072200Y62291785D01*
X183072200Y62291785D02*
X183024580Y62339404D01*
X182119819Y61434642D02*
X182119819Y60815595D01*
X182119819Y60815595D02*
X182500771Y61148928D01*
X182500771Y61148928D02*
X182500771Y61006071D01*
X182500771Y61006071D02*
X182548390Y60910833D01*
X182548390Y60910833D02*
X182596009Y60863214D01*
X182596009Y60863214D02*
X182691247Y60815595D01*
X182691247Y60815595D02*
X182929342Y60815595D01*
X182929342Y60815595D02*
X183024580Y60863214D01*
X183024580Y60863214D02*
X183072200Y60910833D01*
X183072200Y60910833D02*
X183119819Y61006071D01*
X183119819Y61006071D02*
X183119819Y61291785D01*
X183119819Y61291785D02*
X183072200Y61387023D01*
X183072200Y61387023D02*
X183024580Y61434642D01*
X240269819Y63291785D02*
X239269819Y63291785D01*
X239269819Y63291785D02*
X239269819Y63053690D01*
X239269819Y63053690D02*
X239317438Y62910833D01*
X239317438Y62910833D02*
X239412676Y62815595D01*
X239412676Y62815595D02*
X239507914Y62767976D01*
X239507914Y62767976D02*
X239698390Y62720357D01*
X239698390Y62720357D02*
X239841247Y62720357D01*
X239841247Y62720357D02*
X240031723Y62767976D01*
X240031723Y62767976D02*
X240126961Y62815595D01*
X240126961Y62815595D02*
X240222200Y62910833D01*
X240222200Y62910833D02*
X240269819Y63053690D01*
X240269819Y63053690D02*
X240269819Y63291785D01*
X239269819Y61815595D02*
X239269819Y62291785D01*
X239269819Y62291785D02*
X239746009Y62339404D01*
X239746009Y62339404D02*
X239698390Y62291785D01*
X239698390Y62291785D02*
X239650771Y62196547D01*
X239650771Y62196547D02*
X239650771Y61958452D01*
X239650771Y61958452D02*
X239698390Y61863214D01*
X239698390Y61863214D02*
X239746009Y61815595D01*
X239746009Y61815595D02*
X239841247Y61767976D01*
X239841247Y61767976D02*
X240079342Y61767976D01*
X240079342Y61767976D02*
X240174580Y61815595D01*
X240174580Y61815595D02*
X240222200Y61863214D01*
X240222200Y61863214D02*
X240269819Y61958452D01*
X240269819Y61958452D02*
X240269819Y62196547D01*
X240269819Y62196547D02*
X240222200Y62291785D01*
X240222200Y62291785D02*
X240174580Y62339404D01*
X239269819Y60910833D02*
X239269819Y61101309D01*
X239269819Y61101309D02*
X239317438Y61196547D01*
X239317438Y61196547D02*
X239365057Y61244166D01*
X239365057Y61244166D02*
X239507914Y61339404D01*
X239507914Y61339404D02*
X239698390Y61387023D01*
X239698390Y61387023D02*
X240079342Y61387023D01*
X240079342Y61387023D02*
X240174580Y61339404D01*
X240174580Y61339404D02*
X240222200Y61291785D01*
X240222200Y61291785D02*
X240269819Y61196547D01*
X240269819Y61196547D02*
X240269819Y61006071D01*
X240269819Y61006071D02*
X240222200Y60910833D01*
X240222200Y60910833D02*
X240174580Y60863214D01*
X240174580Y60863214D02*
X240079342Y60815595D01*
X240079342Y60815595D02*
X239841247Y60815595D01*
X239841247Y60815595D02*
X239746009Y60863214D01*
X239746009Y60863214D02*
X239698390Y60910833D01*
X239698390Y60910833D02*
X239650771Y61006071D01*
X239650771Y61006071D02*
X239650771Y61196547D01*
X239650771Y61196547D02*
X239698390Y61291785D01*
X239698390Y61291785D02*
X239746009Y61339404D01*
X239746009Y61339404D02*
X239841247Y61387023D01*
X311707319Y101391785D02*
X310707319Y101391785D01*
X310707319Y101391785D02*
X310707319Y101153690D01*
X310707319Y101153690D02*
X310754938Y101010833D01*
X310754938Y101010833D02*
X310850176Y100915595D01*
X310850176Y100915595D02*
X310945414Y100867976D01*
X310945414Y100867976D02*
X311135890Y100820357D01*
X311135890Y100820357D02*
X311278747Y100820357D01*
X311278747Y100820357D02*
X311469223Y100867976D01*
X311469223Y100867976D02*
X311564461Y100915595D01*
X311564461Y100915595D02*
X311659700Y101010833D01*
X311659700Y101010833D02*
X311707319Y101153690D01*
X311707319Y101153690D02*
X311707319Y101391785D01*
X310707319Y100487023D02*
X310707319Y99867976D01*
X310707319Y99867976D02*
X311088271Y100201309D01*
X311088271Y100201309D02*
X311088271Y100058452D01*
X311088271Y100058452D02*
X311135890Y99963214D01*
X311135890Y99963214D02*
X311183509Y99915595D01*
X311183509Y99915595D02*
X311278747Y99867976D01*
X311278747Y99867976D02*
X311516842Y99867976D01*
X311516842Y99867976D02*
X311612080Y99915595D01*
X311612080Y99915595D02*
X311659700Y99963214D01*
X311659700Y99963214D02*
X311707319Y100058452D01*
X311707319Y100058452D02*
X311707319Y100344166D01*
X311707319Y100344166D02*
X311659700Y100439404D01*
X311659700Y100439404D02*
X311612080Y100487023D01*
X310707319Y99248928D02*
X310707319Y99153690D01*
X310707319Y99153690D02*
X310754938Y99058452D01*
X310754938Y99058452D02*
X310802557Y99010833D01*
X310802557Y99010833D02*
X310897795Y98963214D01*
X310897795Y98963214D02*
X311088271Y98915595D01*
X311088271Y98915595D02*
X311326366Y98915595D01*
X311326366Y98915595D02*
X311516842Y98963214D01*
X311516842Y98963214D02*
X311612080Y99010833D01*
X311612080Y99010833D02*
X311659700Y99058452D01*
X311659700Y99058452D02*
X311707319Y99153690D01*
X311707319Y99153690D02*
X311707319Y99248928D01*
X311707319Y99248928D02*
X311659700Y99344166D01*
X311659700Y99344166D02*
X311612080Y99391785D01*
X311612080Y99391785D02*
X311516842Y99439404D01*
X311516842Y99439404D02*
X311326366Y99487023D01*
X311326366Y99487023D02*
X311088271Y99487023D01*
X311088271Y99487023D02*
X310897795Y99439404D01*
X310897795Y99439404D02*
X310802557Y99391785D01*
X310802557Y99391785D02*
X310754938Y99344166D01*
X310754938Y99344166D02*
X310707319Y99248928D01*
X168832319Y101391785D02*
X167832319Y101391785D01*
X167832319Y101391785D02*
X167832319Y101153690D01*
X167832319Y101153690D02*
X167879938Y101010833D01*
X167879938Y101010833D02*
X167975176Y100915595D01*
X167975176Y100915595D02*
X168070414Y100867976D01*
X168070414Y100867976D02*
X168260890Y100820357D01*
X168260890Y100820357D02*
X168403747Y100820357D01*
X168403747Y100820357D02*
X168594223Y100867976D01*
X168594223Y100867976D02*
X168689461Y100915595D01*
X168689461Y100915595D02*
X168784700Y101010833D01*
X168784700Y101010833D02*
X168832319Y101153690D01*
X168832319Y101153690D02*
X168832319Y101391785D01*
X167927557Y100439404D02*
X167879938Y100391785D01*
X167879938Y100391785D02*
X167832319Y100296547D01*
X167832319Y100296547D02*
X167832319Y100058452D01*
X167832319Y100058452D02*
X167879938Y99963214D01*
X167879938Y99963214D02*
X167927557Y99915595D01*
X167927557Y99915595D02*
X168022795Y99867976D01*
X168022795Y99867976D02*
X168118033Y99867976D01*
X168118033Y99867976D02*
X168260890Y99915595D01*
X168260890Y99915595D02*
X168832319Y100487023D01*
X168832319Y100487023D02*
X168832319Y99867976D01*
X167832319Y99534642D02*
X167832319Y98915595D01*
X167832319Y98915595D02*
X168213271Y99248928D01*
X168213271Y99248928D02*
X168213271Y99106071D01*
X168213271Y99106071D02*
X168260890Y99010833D01*
X168260890Y99010833D02*
X168308509Y98963214D01*
X168308509Y98963214D02*
X168403747Y98915595D01*
X168403747Y98915595D02*
X168641842Y98915595D01*
X168641842Y98915595D02*
X168737080Y98963214D01*
X168737080Y98963214D02*
X168784700Y99010833D01*
X168784700Y99010833D02*
X168832319Y99106071D01*
X168832319Y99106071D02*
X168832319Y99391785D01*
X168832319Y99391785D02*
X168784700Y99487023D01*
X168784700Y99487023D02*
X168737080Y99534642D01*
X321232319Y44241785D02*
X320232319Y44241785D01*
X320232319Y44241785D02*
X320232319Y44003690D01*
X320232319Y44003690D02*
X320279938Y43860833D01*
X320279938Y43860833D02*
X320375176Y43765595D01*
X320375176Y43765595D02*
X320470414Y43717976D01*
X320470414Y43717976D02*
X320660890Y43670357D01*
X320660890Y43670357D02*
X320803747Y43670357D01*
X320803747Y43670357D02*
X320994223Y43717976D01*
X320994223Y43717976D02*
X321089461Y43765595D01*
X321089461Y43765595D02*
X321184700Y43860833D01*
X321184700Y43860833D02*
X321232319Y44003690D01*
X321232319Y44003690D02*
X321232319Y44241785D01*
X320232319Y43337023D02*
X320232319Y42670357D01*
X320232319Y42670357D02*
X321232319Y43098928D01*
X320232319Y42384642D02*
X320232319Y41765595D01*
X320232319Y41765595D02*
X320613271Y42098928D01*
X320613271Y42098928D02*
X320613271Y41956071D01*
X320613271Y41956071D02*
X320660890Y41860833D01*
X320660890Y41860833D02*
X320708509Y41813214D01*
X320708509Y41813214D02*
X320803747Y41765595D01*
X320803747Y41765595D02*
X321041842Y41765595D01*
X321041842Y41765595D02*
X321137080Y41813214D01*
X321137080Y41813214D02*
X321184700Y41860833D01*
X321184700Y41860833D02*
X321232319Y41956071D01*
X321232319Y41956071D02*
X321232319Y42241785D01*
X321232319Y42241785D02*
X321184700Y42337023D01*
X321184700Y42337023D02*
X321137080Y42384642D01*
X102157319Y82341785D02*
X101157319Y82341785D01*
X101157319Y82341785D02*
X101157319Y82103690D01*
X101157319Y82103690D02*
X101204938Y81960833D01*
X101204938Y81960833D02*
X101300176Y81865595D01*
X101300176Y81865595D02*
X101395414Y81817976D01*
X101395414Y81817976D02*
X101585890Y81770357D01*
X101585890Y81770357D02*
X101728747Y81770357D01*
X101728747Y81770357D02*
X101919223Y81817976D01*
X101919223Y81817976D02*
X102014461Y81865595D01*
X102014461Y81865595D02*
X102109700Y81960833D01*
X102109700Y81960833D02*
X102157319Y82103690D01*
X102157319Y82103690D02*
X102157319Y82341785D01*
X101157319Y81437023D02*
X101157319Y80817976D01*
X101157319Y80817976D02*
X101538271Y81151309D01*
X101538271Y81151309D02*
X101538271Y81008452D01*
X101538271Y81008452D02*
X101585890Y80913214D01*
X101585890Y80913214D02*
X101633509Y80865595D01*
X101633509Y80865595D02*
X101728747Y80817976D01*
X101728747Y80817976D02*
X101966842Y80817976D01*
X101966842Y80817976D02*
X102062080Y80865595D01*
X102062080Y80865595D02*
X102109700Y80913214D01*
X102109700Y80913214D02*
X102157319Y81008452D01*
X102157319Y81008452D02*
X102157319Y81294166D01*
X102157319Y81294166D02*
X102109700Y81389404D01*
X102109700Y81389404D02*
X102062080Y81437023D01*
X101490652Y79960833D02*
X102157319Y79960833D01*
X101109700Y80198928D02*
X101823985Y80437023D01*
X101823985Y80437023D02*
X101823985Y79817976D01*
X295038569Y44241785D02*
X294038569Y44241785D01*
X294038569Y44241785D02*
X294038569Y44003690D01*
X294038569Y44003690D02*
X294086188Y43860833D01*
X294086188Y43860833D02*
X294181426Y43765595D01*
X294181426Y43765595D02*
X294276664Y43717976D01*
X294276664Y43717976D02*
X294467140Y43670357D01*
X294467140Y43670357D02*
X294609997Y43670357D01*
X294609997Y43670357D02*
X294800473Y43717976D01*
X294800473Y43717976D02*
X294895711Y43765595D01*
X294895711Y43765595D02*
X294990950Y43860833D01*
X294990950Y43860833D02*
X295038569Y44003690D01*
X295038569Y44003690D02*
X295038569Y44241785D01*
X294038569Y43337023D02*
X294038569Y42670357D01*
X294038569Y42670357D02*
X295038569Y43098928D01*
X294133807Y42337023D02*
X294086188Y42289404D01*
X294086188Y42289404D02*
X294038569Y42194166D01*
X294038569Y42194166D02*
X294038569Y41956071D01*
X294038569Y41956071D02*
X294086188Y41860833D01*
X294086188Y41860833D02*
X294133807Y41813214D01*
X294133807Y41813214D02*
X294229045Y41765595D01*
X294229045Y41765595D02*
X294324283Y41765595D01*
X294324283Y41765595D02*
X294467140Y41813214D01*
X294467140Y41813214D02*
X295038569Y42384642D01*
X295038569Y42384642D02*
X295038569Y41765595D01*
X80726069Y25191785D02*
X79726069Y25191785D01*
X79726069Y25191785D02*
X79726069Y24953690D01*
X79726069Y24953690D02*
X79773688Y24810833D01*
X79773688Y24810833D02*
X79868926Y24715595D01*
X79868926Y24715595D02*
X79964164Y24667976D01*
X79964164Y24667976D02*
X80154640Y24620357D01*
X80154640Y24620357D02*
X80297497Y24620357D01*
X80297497Y24620357D02*
X80487973Y24667976D01*
X80487973Y24667976D02*
X80583211Y24715595D01*
X80583211Y24715595D02*
X80678450Y24810833D01*
X80678450Y24810833D02*
X80726069Y24953690D01*
X80726069Y24953690D02*
X80726069Y25191785D01*
X79726069Y24287023D02*
X79726069Y23620357D01*
X79726069Y23620357D02*
X80726069Y24048928D01*
X79726069Y22810833D02*
X79726069Y23001309D01*
X79726069Y23001309D02*
X79773688Y23096547D01*
X79773688Y23096547D02*
X79821307Y23144166D01*
X79821307Y23144166D02*
X79964164Y23239404D01*
X79964164Y23239404D02*
X80154640Y23287023D01*
X80154640Y23287023D02*
X80535592Y23287023D01*
X80535592Y23287023D02*
X80630830Y23239404D01*
X80630830Y23239404D02*
X80678450Y23191785D01*
X80678450Y23191785D02*
X80726069Y23096547D01*
X80726069Y23096547D02*
X80726069Y22906071D01*
X80726069Y22906071D02*
X80678450Y22810833D01*
X80678450Y22810833D02*
X80630830Y22763214D01*
X80630830Y22763214D02*
X80535592Y22715595D01*
X80535592Y22715595D02*
X80297497Y22715595D01*
X80297497Y22715595D02*
X80202259Y22763214D01*
X80202259Y22763214D02*
X80154640Y22810833D01*
X80154640Y22810833D02*
X80107021Y22906071D01*
X80107021Y22906071D02*
X80107021Y23096547D01*
X80107021Y23096547D02*
X80154640Y23191785D01*
X80154640Y23191785D02*
X80202259Y23239404D01*
X80202259Y23239404D02*
X80297497Y23287023D01*
X340282319Y82341785D02*
X339282319Y82341785D01*
X339282319Y82341785D02*
X339282319Y82103690D01*
X339282319Y82103690D02*
X339329938Y81960833D01*
X339329938Y81960833D02*
X339425176Y81865595D01*
X339425176Y81865595D02*
X339520414Y81817976D01*
X339520414Y81817976D02*
X339710890Y81770357D01*
X339710890Y81770357D02*
X339853747Y81770357D01*
X339853747Y81770357D02*
X340044223Y81817976D01*
X340044223Y81817976D02*
X340139461Y81865595D01*
X340139461Y81865595D02*
X340234700Y81960833D01*
X340234700Y81960833D02*
X340282319Y82103690D01*
X340282319Y82103690D02*
X340282319Y82341785D01*
X339615652Y80913214D02*
X340282319Y80913214D01*
X339234700Y81151309D02*
X339948985Y81389404D01*
X339948985Y81389404D02*
X339948985Y80770357D01*
X339282319Y79960833D02*
X339282319Y80151309D01*
X339282319Y80151309D02*
X339329938Y80246547D01*
X339329938Y80246547D02*
X339377557Y80294166D01*
X339377557Y80294166D02*
X339520414Y80389404D01*
X339520414Y80389404D02*
X339710890Y80437023D01*
X339710890Y80437023D02*
X340091842Y80437023D01*
X340091842Y80437023D02*
X340187080Y80389404D01*
X340187080Y80389404D02*
X340234700Y80341785D01*
X340234700Y80341785D02*
X340282319Y80246547D01*
X340282319Y80246547D02*
X340282319Y80056071D01*
X340282319Y80056071D02*
X340234700Y79960833D01*
X340234700Y79960833D02*
X340187080Y79913214D01*
X340187080Y79913214D02*
X340091842Y79865595D01*
X340091842Y79865595D02*
X339853747Y79865595D01*
X339853747Y79865595D02*
X339758509Y79913214D01*
X339758509Y79913214D02*
X339710890Y79960833D01*
X339710890Y79960833D02*
X339663271Y80056071D01*
X339663271Y80056071D02*
X339663271Y80246547D01*
X339663271Y80246547D02*
X339710890Y80341785D01*
X339710890Y80341785D02*
X339758509Y80389404D01*
X339758509Y80389404D02*
X339853747Y80437023D01*
X135494819Y44241785D02*
X134494819Y44241785D01*
X134494819Y44241785D02*
X134494819Y44003690D01*
X134494819Y44003690D02*
X134542438Y43860833D01*
X134542438Y43860833D02*
X134637676Y43765595D01*
X134637676Y43765595D02*
X134732914Y43717976D01*
X134732914Y43717976D02*
X134923390Y43670357D01*
X134923390Y43670357D02*
X135066247Y43670357D01*
X135066247Y43670357D02*
X135256723Y43717976D01*
X135256723Y43717976D02*
X135351961Y43765595D01*
X135351961Y43765595D02*
X135447200Y43860833D01*
X135447200Y43860833D02*
X135494819Y44003690D01*
X135494819Y44003690D02*
X135494819Y44241785D01*
X134494819Y42813214D02*
X134494819Y43003690D01*
X134494819Y43003690D02*
X134542438Y43098928D01*
X134542438Y43098928D02*
X134590057Y43146547D01*
X134590057Y43146547D02*
X134732914Y43241785D01*
X134732914Y43241785D02*
X134923390Y43289404D01*
X134923390Y43289404D02*
X135304342Y43289404D01*
X135304342Y43289404D02*
X135399580Y43241785D01*
X135399580Y43241785D02*
X135447200Y43194166D01*
X135447200Y43194166D02*
X135494819Y43098928D01*
X135494819Y43098928D02*
X135494819Y42908452D01*
X135494819Y42908452D02*
X135447200Y42813214D01*
X135447200Y42813214D02*
X135399580Y42765595D01*
X135399580Y42765595D02*
X135304342Y42717976D01*
X135304342Y42717976D02*
X135066247Y42717976D01*
X135066247Y42717976D02*
X134971009Y42765595D01*
X134971009Y42765595D02*
X134923390Y42813214D01*
X134923390Y42813214D02*
X134875771Y42908452D01*
X134875771Y42908452D02*
X134875771Y43098928D01*
X134875771Y43098928D02*
X134923390Y43194166D01*
X134923390Y43194166D02*
X134971009Y43241785D01*
X134971009Y43241785D02*
X135066247Y43289404D01*
X134828152Y41860833D02*
X135494819Y41860833D01*
X134447200Y42098928D02*
X135161485Y42337023D01*
X135161485Y42337023D02*
X135161485Y41717976D01*
X340282319Y63291785D02*
X339282319Y63291785D01*
X339282319Y63291785D02*
X339282319Y63053690D01*
X339282319Y63053690D02*
X339329938Y62910833D01*
X339329938Y62910833D02*
X339425176Y62815595D01*
X339425176Y62815595D02*
X339520414Y62767976D01*
X339520414Y62767976D02*
X339710890Y62720357D01*
X339710890Y62720357D02*
X339853747Y62720357D01*
X339853747Y62720357D02*
X340044223Y62767976D01*
X340044223Y62767976D02*
X340139461Y62815595D01*
X340139461Y62815595D02*
X340234700Y62910833D01*
X340234700Y62910833D02*
X340282319Y63053690D01*
X340282319Y63053690D02*
X340282319Y63291785D01*
X339282319Y61863214D02*
X339282319Y62053690D01*
X339282319Y62053690D02*
X339329938Y62148928D01*
X339329938Y62148928D02*
X339377557Y62196547D01*
X339377557Y62196547D02*
X339520414Y62291785D01*
X339520414Y62291785D02*
X339710890Y62339404D01*
X339710890Y62339404D02*
X340091842Y62339404D01*
X340091842Y62339404D02*
X340187080Y62291785D01*
X340187080Y62291785D02*
X340234700Y62244166D01*
X340234700Y62244166D02*
X340282319Y62148928D01*
X340282319Y62148928D02*
X340282319Y61958452D01*
X340282319Y61958452D02*
X340234700Y61863214D01*
X340234700Y61863214D02*
X340187080Y61815595D01*
X340187080Y61815595D02*
X340091842Y61767976D01*
X340091842Y61767976D02*
X339853747Y61767976D01*
X339853747Y61767976D02*
X339758509Y61815595D01*
X339758509Y61815595D02*
X339710890Y61863214D01*
X339710890Y61863214D02*
X339663271Y61958452D01*
X339663271Y61958452D02*
X339663271Y62148928D01*
X339663271Y62148928D02*
X339710890Y62244166D01*
X339710890Y62244166D02*
X339758509Y62291785D01*
X339758509Y62291785D02*
X339853747Y62339404D01*
X339282319Y61148928D02*
X339282319Y61053690D01*
X339282319Y61053690D02*
X339329938Y60958452D01*
X339329938Y60958452D02*
X339377557Y60910833D01*
X339377557Y60910833D02*
X339472795Y60863214D01*
X339472795Y60863214D02*
X339663271Y60815595D01*
X339663271Y60815595D02*
X339901366Y60815595D01*
X339901366Y60815595D02*
X340091842Y60863214D01*
X340091842Y60863214D02*
X340187080Y60910833D01*
X340187080Y60910833D02*
X340234700Y60958452D01*
X340234700Y60958452D02*
X340282319Y61053690D01*
X340282319Y61053690D02*
X340282319Y61148928D01*
X340282319Y61148928D02*
X340234700Y61244166D01*
X340234700Y61244166D02*
X340187080Y61291785D01*
X340187080Y61291785D02*
X340091842Y61339404D01*
X340091842Y61339404D02*
X339901366Y61387023D01*
X339901366Y61387023D02*
X339663271Y61387023D01*
X339663271Y61387023D02*
X339472795Y61339404D01*
X339472795Y61339404D02*
X339377557Y61291785D01*
X339377557Y61291785D02*
X339329938Y61244166D01*
X339329938Y61244166D02*
X339282319Y61148928D01*
X116444819Y44241785D02*
X115444819Y44241785D01*
X115444819Y44241785D02*
X115444819Y44003690D01*
X115444819Y44003690D02*
X115492438Y43860833D01*
X115492438Y43860833D02*
X115587676Y43765595D01*
X115587676Y43765595D02*
X115682914Y43717976D01*
X115682914Y43717976D02*
X115873390Y43670357D01*
X115873390Y43670357D02*
X116016247Y43670357D01*
X116016247Y43670357D02*
X116206723Y43717976D01*
X116206723Y43717976D02*
X116301961Y43765595D01*
X116301961Y43765595D02*
X116397200Y43860833D01*
X116397200Y43860833D02*
X116444819Y44003690D01*
X116444819Y44003690D02*
X116444819Y44241785D01*
X115444819Y42813214D02*
X115444819Y43003690D01*
X115444819Y43003690D02*
X115492438Y43098928D01*
X115492438Y43098928D02*
X115540057Y43146547D01*
X115540057Y43146547D02*
X115682914Y43241785D01*
X115682914Y43241785D02*
X115873390Y43289404D01*
X115873390Y43289404D02*
X116254342Y43289404D01*
X116254342Y43289404D02*
X116349580Y43241785D01*
X116349580Y43241785D02*
X116397200Y43194166D01*
X116397200Y43194166D02*
X116444819Y43098928D01*
X116444819Y43098928D02*
X116444819Y42908452D01*
X116444819Y42908452D02*
X116397200Y42813214D01*
X116397200Y42813214D02*
X116349580Y42765595D01*
X116349580Y42765595D02*
X116254342Y42717976D01*
X116254342Y42717976D02*
X116016247Y42717976D01*
X116016247Y42717976D02*
X115921009Y42765595D01*
X115921009Y42765595D02*
X115873390Y42813214D01*
X115873390Y42813214D02*
X115825771Y42908452D01*
X115825771Y42908452D02*
X115825771Y43098928D01*
X115825771Y43098928D02*
X115873390Y43194166D01*
X115873390Y43194166D02*
X115921009Y43241785D01*
X115921009Y43241785D02*
X116016247Y43289404D01*
X115444819Y42384642D02*
X115444819Y41765595D01*
X115444819Y41765595D02*
X115825771Y42098928D01*
X115825771Y42098928D02*
X115825771Y41956071D01*
X115825771Y41956071D02*
X115873390Y41860833D01*
X115873390Y41860833D02*
X115921009Y41813214D01*
X115921009Y41813214D02*
X116016247Y41765595D01*
X116016247Y41765595D02*
X116254342Y41765595D01*
X116254342Y41765595D02*
X116349580Y41813214D01*
X116349580Y41813214D02*
X116397200Y41860833D01*
X116397200Y41860833D02*
X116444819Y41956071D01*
X116444819Y41956071D02*
X116444819Y42241785D01*
X116444819Y42241785D02*
X116397200Y42337023D01*
X116397200Y42337023D02*
X116349580Y42384642D01*
X197407319Y82341785D02*
X196407319Y82341785D01*
X196407319Y82341785D02*
X196407319Y82103690D01*
X196407319Y82103690D02*
X196454938Y81960833D01*
X196454938Y81960833D02*
X196550176Y81865595D01*
X196550176Y81865595D02*
X196645414Y81817976D01*
X196645414Y81817976D02*
X196835890Y81770357D01*
X196835890Y81770357D02*
X196978747Y81770357D01*
X196978747Y81770357D02*
X197169223Y81817976D01*
X197169223Y81817976D02*
X197264461Y81865595D01*
X197264461Y81865595D02*
X197359700Y81960833D01*
X197359700Y81960833D02*
X197407319Y82103690D01*
X197407319Y82103690D02*
X197407319Y82341785D01*
X196407319Y81437023D02*
X196407319Y80817976D01*
X196407319Y80817976D02*
X196788271Y81151309D01*
X196788271Y81151309D02*
X196788271Y81008452D01*
X196788271Y81008452D02*
X196835890Y80913214D01*
X196835890Y80913214D02*
X196883509Y80865595D01*
X196883509Y80865595D02*
X196978747Y80817976D01*
X196978747Y80817976D02*
X197216842Y80817976D01*
X197216842Y80817976D02*
X197312080Y80865595D01*
X197312080Y80865595D02*
X197359700Y80913214D01*
X197359700Y80913214D02*
X197407319Y81008452D01*
X197407319Y81008452D02*
X197407319Y81294166D01*
X197407319Y81294166D02*
X197359700Y81389404D01*
X197359700Y81389404D02*
X197312080Y81437023D01*
X197407319Y80341785D02*
X197407319Y80151309D01*
X197407319Y80151309D02*
X197359700Y80056071D01*
X197359700Y80056071D02*
X197312080Y80008452D01*
X197312080Y80008452D02*
X197169223Y79913214D01*
X197169223Y79913214D02*
X196978747Y79865595D01*
X196978747Y79865595D02*
X196597795Y79865595D01*
X196597795Y79865595D02*
X196502557Y79913214D01*
X196502557Y79913214D02*
X196454938Y79960833D01*
X196454938Y79960833D02*
X196407319Y80056071D01*
X196407319Y80056071D02*
X196407319Y80246547D01*
X196407319Y80246547D02*
X196454938Y80341785D01*
X196454938Y80341785D02*
X196502557Y80389404D01*
X196502557Y80389404D02*
X196597795Y80437023D01*
X196597795Y80437023D02*
X196835890Y80437023D01*
X196835890Y80437023D02*
X196931128Y80389404D01*
X196931128Y80389404D02*
X196978747Y80341785D01*
X196978747Y80341785D02*
X197026366Y80246547D01*
X197026366Y80246547D02*
X197026366Y80056071D01*
X197026366Y80056071D02*
X196978747Y79960833D01*
X196978747Y79960833D02*
X196931128Y79913214D01*
X196931128Y79913214D02*
X196835890Y79865595D01*
X73582319Y124728094D02*
X72582319Y124728094D01*
X72582319Y124728094D02*
X72582319Y124489999D01*
X72582319Y124489999D02*
X72629938Y124347142D01*
X72629938Y124347142D02*
X72725176Y124251904D01*
X72725176Y124251904D02*
X72820414Y124204285D01*
X72820414Y124204285D02*
X73010890Y124156666D01*
X73010890Y124156666D02*
X73153747Y124156666D01*
X73153747Y124156666D02*
X73344223Y124204285D01*
X73344223Y124204285D02*
X73439461Y124251904D01*
X73439461Y124251904D02*
X73534700Y124347142D01*
X73534700Y124347142D02*
X73582319Y124489999D01*
X73582319Y124489999D02*
X73582319Y124728094D01*
X72677557Y123775713D02*
X72629938Y123728094D01*
X72629938Y123728094D02*
X72582319Y123632856D01*
X72582319Y123632856D02*
X72582319Y123394761D01*
X72582319Y123394761D02*
X72629938Y123299523D01*
X72629938Y123299523D02*
X72677557Y123251904D01*
X72677557Y123251904D02*
X72772795Y123204285D01*
X72772795Y123204285D02*
X72868033Y123204285D01*
X72868033Y123204285D02*
X73010890Y123251904D01*
X73010890Y123251904D02*
X73582319Y123823332D01*
X73582319Y123823332D02*
X73582319Y123204285D01*
X245032319Y101391785D02*
X244032319Y101391785D01*
X244032319Y101391785D02*
X244032319Y101153690D01*
X244032319Y101153690D02*
X244079938Y101010833D01*
X244079938Y101010833D02*
X244175176Y100915595D01*
X244175176Y100915595D02*
X244270414Y100867976D01*
X244270414Y100867976D02*
X244460890Y100820357D01*
X244460890Y100820357D02*
X244603747Y100820357D01*
X244603747Y100820357D02*
X244794223Y100867976D01*
X244794223Y100867976D02*
X244889461Y100915595D01*
X244889461Y100915595D02*
X244984700Y101010833D01*
X244984700Y101010833D02*
X245032319Y101153690D01*
X245032319Y101153690D02*
X245032319Y101391785D01*
X244127557Y100439404D02*
X244079938Y100391785D01*
X244079938Y100391785D02*
X244032319Y100296547D01*
X244032319Y100296547D02*
X244032319Y100058452D01*
X244032319Y100058452D02*
X244079938Y99963214D01*
X244079938Y99963214D02*
X244127557Y99915595D01*
X244127557Y99915595D02*
X244222795Y99867976D01*
X244222795Y99867976D02*
X244318033Y99867976D01*
X244318033Y99867976D02*
X244460890Y99915595D01*
X244460890Y99915595D02*
X245032319Y100487023D01*
X245032319Y100487023D02*
X245032319Y99867976D01*
X244032319Y99534642D02*
X244032319Y98867976D01*
X244032319Y98867976D02*
X245032319Y99296547D01*
X187882319Y124728094D02*
X186882319Y124728094D01*
X186882319Y124728094D02*
X186882319Y124489999D01*
X186882319Y124489999D02*
X186929938Y124347142D01*
X186929938Y124347142D02*
X187025176Y124251904D01*
X187025176Y124251904D02*
X187120414Y124204285D01*
X187120414Y124204285D02*
X187310890Y124156666D01*
X187310890Y124156666D02*
X187453747Y124156666D01*
X187453747Y124156666D02*
X187644223Y124204285D01*
X187644223Y124204285D02*
X187739461Y124251904D01*
X187739461Y124251904D02*
X187834700Y124347142D01*
X187834700Y124347142D02*
X187882319Y124489999D01*
X187882319Y124489999D02*
X187882319Y124728094D01*
X187310890Y123585237D02*
X187263271Y123680475D01*
X187263271Y123680475D02*
X187215652Y123728094D01*
X187215652Y123728094D02*
X187120414Y123775713D01*
X187120414Y123775713D02*
X187072795Y123775713D01*
X187072795Y123775713D02*
X186977557Y123728094D01*
X186977557Y123728094D02*
X186929938Y123680475D01*
X186929938Y123680475D02*
X186882319Y123585237D01*
X186882319Y123585237D02*
X186882319Y123394761D01*
X186882319Y123394761D02*
X186929938Y123299523D01*
X186929938Y123299523D02*
X186977557Y123251904D01*
X186977557Y123251904D02*
X187072795Y123204285D01*
X187072795Y123204285D02*
X187120414Y123204285D01*
X187120414Y123204285D02*
X187215652Y123251904D01*
X187215652Y123251904D02*
X187263271Y123299523D01*
X187263271Y123299523D02*
X187310890Y123394761D01*
X187310890Y123394761D02*
X187310890Y123585237D01*
X187310890Y123585237D02*
X187358509Y123680475D01*
X187358509Y123680475D02*
X187406128Y123728094D01*
X187406128Y123728094D02*
X187501366Y123775713D01*
X187501366Y123775713D02*
X187691842Y123775713D01*
X187691842Y123775713D02*
X187787080Y123728094D01*
X187787080Y123728094D02*
X187834700Y123680475D01*
X187834700Y123680475D02*
X187882319Y123585237D01*
X187882319Y123585237D02*
X187882319Y123394761D01*
X187882319Y123394761D02*
X187834700Y123299523D01*
X187834700Y123299523D02*
X187787080Y123251904D01*
X187787080Y123251904D02*
X187691842Y123204285D01*
X187691842Y123204285D02*
X187501366Y123204285D01*
X187501366Y123204285D02*
X187406128Y123251904D01*
X187406128Y123251904D02*
X187358509Y123299523D01*
X187358509Y123299523D02*
X187310890Y123394761D01*
X249794819Y44241785D02*
X248794819Y44241785D01*
X248794819Y44241785D02*
X248794819Y44003690D01*
X248794819Y44003690D02*
X248842438Y43860833D01*
X248842438Y43860833D02*
X248937676Y43765595D01*
X248937676Y43765595D02*
X249032914Y43717976D01*
X249032914Y43717976D02*
X249223390Y43670357D01*
X249223390Y43670357D02*
X249366247Y43670357D01*
X249366247Y43670357D02*
X249556723Y43717976D01*
X249556723Y43717976D02*
X249651961Y43765595D01*
X249651961Y43765595D02*
X249747200Y43860833D01*
X249747200Y43860833D02*
X249794819Y44003690D01*
X249794819Y44003690D02*
X249794819Y44241785D01*
X248794819Y43337023D02*
X248794819Y42670357D01*
X248794819Y42670357D02*
X249794819Y43098928D01*
X248794819Y42098928D02*
X248794819Y42003690D01*
X248794819Y42003690D02*
X248842438Y41908452D01*
X248842438Y41908452D02*
X248890057Y41860833D01*
X248890057Y41860833D02*
X248985295Y41813214D01*
X248985295Y41813214D02*
X249175771Y41765595D01*
X249175771Y41765595D02*
X249413866Y41765595D01*
X249413866Y41765595D02*
X249604342Y41813214D01*
X249604342Y41813214D02*
X249699580Y41860833D01*
X249699580Y41860833D02*
X249747200Y41908452D01*
X249747200Y41908452D02*
X249794819Y42003690D01*
X249794819Y42003690D02*
X249794819Y42098928D01*
X249794819Y42098928D02*
X249747200Y42194166D01*
X249747200Y42194166D02*
X249699580Y42241785D01*
X249699580Y42241785D02*
X249604342Y42289404D01*
X249604342Y42289404D02*
X249413866Y42337023D01*
X249413866Y42337023D02*
X249175771Y42337023D01*
X249175771Y42337023D02*
X248985295Y42289404D01*
X248985295Y42289404D02*
X248890057Y42241785D01*
X248890057Y42241785D02*
X248842438Y42194166D01*
X248842438Y42194166D02*
X248794819Y42098928D01*
X130732319Y124728094D02*
X129732319Y124728094D01*
X129732319Y124728094D02*
X129732319Y124489999D01*
X129732319Y124489999D02*
X129779938Y124347142D01*
X129779938Y124347142D02*
X129875176Y124251904D01*
X129875176Y124251904D02*
X129970414Y124204285D01*
X129970414Y124204285D02*
X130160890Y124156666D01*
X130160890Y124156666D02*
X130303747Y124156666D01*
X130303747Y124156666D02*
X130494223Y124204285D01*
X130494223Y124204285D02*
X130589461Y124251904D01*
X130589461Y124251904D02*
X130684700Y124347142D01*
X130684700Y124347142D02*
X130732319Y124489999D01*
X130732319Y124489999D02*
X130732319Y124728094D01*
X129732319Y123251904D02*
X129732319Y123728094D01*
X129732319Y123728094D02*
X130208509Y123775713D01*
X130208509Y123775713D02*
X130160890Y123728094D01*
X130160890Y123728094D02*
X130113271Y123632856D01*
X130113271Y123632856D02*
X130113271Y123394761D01*
X130113271Y123394761D02*
X130160890Y123299523D01*
X130160890Y123299523D02*
X130208509Y123251904D01*
X130208509Y123251904D02*
X130303747Y123204285D01*
X130303747Y123204285D02*
X130541842Y123204285D01*
X130541842Y123204285D02*
X130637080Y123251904D01*
X130637080Y123251904D02*
X130684700Y123299523D01*
X130684700Y123299523D02*
X130732319Y123394761D01*
X130732319Y123394761D02*
X130732319Y123632856D01*
X130732319Y123632856D02*
X130684700Y123728094D01*
X130684700Y123728094D02*
X130637080Y123775713D01*
X245032319Y125204285D02*
X244032319Y125204285D01*
X244032319Y125204285D02*
X244032319Y124966190D01*
X244032319Y124966190D02*
X244079938Y124823333D01*
X244079938Y124823333D02*
X244175176Y124728095D01*
X244175176Y124728095D02*
X244270414Y124680476D01*
X244270414Y124680476D02*
X244460890Y124632857D01*
X244460890Y124632857D02*
X244603747Y124632857D01*
X244603747Y124632857D02*
X244794223Y124680476D01*
X244794223Y124680476D02*
X244889461Y124728095D01*
X244889461Y124728095D02*
X244984700Y124823333D01*
X244984700Y124823333D02*
X245032319Y124966190D01*
X245032319Y124966190D02*
X245032319Y125204285D01*
X245032319Y123680476D02*
X245032319Y124251904D01*
X245032319Y123966190D02*
X244032319Y123966190D01*
X244032319Y123966190D02*
X244175176Y124061428D01*
X244175176Y124061428D02*
X244270414Y124156666D01*
X244270414Y124156666D02*
X244318033Y124251904D01*
X245032319Y122728095D02*
X245032319Y123299523D01*
X245032319Y123013809D02*
X244032319Y123013809D01*
X244032319Y123013809D02*
X244175176Y123109047D01*
X244175176Y123109047D02*
X244270414Y123204285D01*
X244270414Y123204285D02*
X244318033Y123299523D01*
X159307319Y82341785D02*
X158307319Y82341785D01*
X158307319Y82341785D02*
X158307319Y82103690D01*
X158307319Y82103690D02*
X158354938Y81960833D01*
X158354938Y81960833D02*
X158450176Y81865595D01*
X158450176Y81865595D02*
X158545414Y81817976D01*
X158545414Y81817976D02*
X158735890Y81770357D01*
X158735890Y81770357D02*
X158878747Y81770357D01*
X158878747Y81770357D02*
X159069223Y81817976D01*
X159069223Y81817976D02*
X159164461Y81865595D01*
X159164461Y81865595D02*
X159259700Y81960833D01*
X159259700Y81960833D02*
X159307319Y82103690D01*
X159307319Y82103690D02*
X159307319Y82341785D01*
X158307319Y81437023D02*
X158307319Y80817976D01*
X158307319Y80817976D02*
X158688271Y81151309D01*
X158688271Y81151309D02*
X158688271Y81008452D01*
X158688271Y81008452D02*
X158735890Y80913214D01*
X158735890Y80913214D02*
X158783509Y80865595D01*
X158783509Y80865595D02*
X158878747Y80817976D01*
X158878747Y80817976D02*
X159116842Y80817976D01*
X159116842Y80817976D02*
X159212080Y80865595D01*
X159212080Y80865595D02*
X159259700Y80913214D01*
X159259700Y80913214D02*
X159307319Y81008452D01*
X159307319Y81008452D02*
X159307319Y81294166D01*
X159307319Y81294166D02*
X159259700Y81389404D01*
X159259700Y81389404D02*
X159212080Y81437023D01*
X158307319Y80484642D02*
X158307319Y79817976D01*
X158307319Y79817976D02*
X159307319Y80246547D01*
X283132319Y101391785D02*
X282132319Y101391785D01*
X282132319Y101391785D02*
X282132319Y101153690D01*
X282132319Y101153690D02*
X282179938Y101010833D01*
X282179938Y101010833D02*
X282275176Y100915595D01*
X282275176Y100915595D02*
X282370414Y100867976D01*
X282370414Y100867976D02*
X282560890Y100820357D01*
X282560890Y100820357D02*
X282703747Y100820357D01*
X282703747Y100820357D02*
X282894223Y100867976D01*
X282894223Y100867976D02*
X282989461Y100915595D01*
X282989461Y100915595D02*
X283084700Y101010833D01*
X283084700Y101010833D02*
X283132319Y101153690D01*
X283132319Y101153690D02*
X283132319Y101391785D01*
X282227557Y100439404D02*
X282179938Y100391785D01*
X282179938Y100391785D02*
X282132319Y100296547D01*
X282132319Y100296547D02*
X282132319Y100058452D01*
X282132319Y100058452D02*
X282179938Y99963214D01*
X282179938Y99963214D02*
X282227557Y99915595D01*
X282227557Y99915595D02*
X282322795Y99867976D01*
X282322795Y99867976D02*
X282418033Y99867976D01*
X282418033Y99867976D02*
X282560890Y99915595D01*
X282560890Y99915595D02*
X283132319Y100487023D01*
X283132319Y100487023D02*
X283132319Y99867976D01*
X283132319Y99391785D02*
X283132319Y99201309D01*
X283132319Y99201309D02*
X283084700Y99106071D01*
X283084700Y99106071D02*
X283037080Y99058452D01*
X283037080Y99058452D02*
X282894223Y98963214D01*
X282894223Y98963214D02*
X282703747Y98915595D01*
X282703747Y98915595D02*
X282322795Y98915595D01*
X282322795Y98915595D02*
X282227557Y98963214D01*
X282227557Y98963214D02*
X282179938Y99010833D01*
X282179938Y99010833D02*
X282132319Y99106071D01*
X282132319Y99106071D02*
X282132319Y99296547D01*
X282132319Y99296547D02*
X282179938Y99391785D01*
X282179938Y99391785D02*
X282227557Y99439404D01*
X282227557Y99439404D02*
X282322795Y99487023D01*
X282322795Y99487023D02*
X282560890Y99487023D01*
X282560890Y99487023D02*
X282656128Y99439404D01*
X282656128Y99439404D02*
X282703747Y99391785D01*
X282703747Y99391785D02*
X282751366Y99296547D01*
X282751366Y99296547D02*
X282751366Y99106071D01*
X282751366Y99106071D02*
X282703747Y99010833D01*
X282703747Y99010833D02*
X282656128Y98963214D01*
X282656128Y98963214D02*
X282560890Y98915595D01*
X230744819Y44241785D02*
X229744819Y44241785D01*
X229744819Y44241785D02*
X229744819Y44003690D01*
X229744819Y44003690D02*
X229792438Y43860833D01*
X229792438Y43860833D02*
X229887676Y43765595D01*
X229887676Y43765595D02*
X229982914Y43717976D01*
X229982914Y43717976D02*
X230173390Y43670357D01*
X230173390Y43670357D02*
X230316247Y43670357D01*
X230316247Y43670357D02*
X230506723Y43717976D01*
X230506723Y43717976D02*
X230601961Y43765595D01*
X230601961Y43765595D02*
X230697200Y43860833D01*
X230697200Y43860833D02*
X230744819Y44003690D01*
X230744819Y44003690D02*
X230744819Y44241785D01*
X229744819Y42813214D02*
X229744819Y43003690D01*
X229744819Y43003690D02*
X229792438Y43098928D01*
X229792438Y43098928D02*
X229840057Y43146547D01*
X229840057Y43146547D02*
X229982914Y43241785D01*
X229982914Y43241785D02*
X230173390Y43289404D01*
X230173390Y43289404D02*
X230554342Y43289404D01*
X230554342Y43289404D02*
X230649580Y43241785D01*
X230649580Y43241785D02*
X230697200Y43194166D01*
X230697200Y43194166D02*
X230744819Y43098928D01*
X230744819Y43098928D02*
X230744819Y42908452D01*
X230744819Y42908452D02*
X230697200Y42813214D01*
X230697200Y42813214D02*
X230649580Y42765595D01*
X230649580Y42765595D02*
X230554342Y42717976D01*
X230554342Y42717976D02*
X230316247Y42717976D01*
X230316247Y42717976D02*
X230221009Y42765595D01*
X230221009Y42765595D02*
X230173390Y42813214D01*
X230173390Y42813214D02*
X230125771Y42908452D01*
X230125771Y42908452D02*
X230125771Y43098928D01*
X230125771Y43098928D02*
X230173390Y43194166D01*
X230173390Y43194166D02*
X230221009Y43241785D01*
X230221009Y43241785D02*
X230316247Y43289404D01*
X230744819Y42241785D02*
X230744819Y42051309D01*
X230744819Y42051309D02*
X230697200Y41956071D01*
X230697200Y41956071D02*
X230649580Y41908452D01*
X230649580Y41908452D02*
X230506723Y41813214D01*
X230506723Y41813214D02*
X230316247Y41765595D01*
X230316247Y41765595D02*
X229935295Y41765595D01*
X229935295Y41765595D02*
X229840057Y41813214D01*
X229840057Y41813214D02*
X229792438Y41860833D01*
X229792438Y41860833D02*
X229744819Y41956071D01*
X229744819Y41956071D02*
X229744819Y42146547D01*
X229744819Y42146547D02*
X229792438Y42241785D01*
X229792438Y42241785D02*
X229840057Y42289404D01*
X229840057Y42289404D02*
X229935295Y42337023D01*
X229935295Y42337023D02*
X230173390Y42337023D01*
X230173390Y42337023D02*
X230268628Y42289404D01*
X230268628Y42289404D02*
X230316247Y42241785D01*
X230316247Y42241785D02*
X230363866Y42146547D01*
X230363866Y42146547D02*
X230363866Y41956071D01*
X230363866Y41956071D02*
X230316247Y41860833D01*
X230316247Y41860833D02*
X230268628Y41813214D01*
X230268628Y41813214D02*
X230173390Y41765595D01*
X92632319Y124728094D02*
X91632319Y124728094D01*
X91632319Y124728094D02*
X91632319Y124489999D01*
X91632319Y124489999D02*
X91679938Y124347142D01*
X91679938Y124347142D02*
X91775176Y124251904D01*
X91775176Y124251904D02*
X91870414Y124204285D01*
X91870414Y124204285D02*
X92060890Y124156666D01*
X92060890Y124156666D02*
X92203747Y124156666D01*
X92203747Y124156666D02*
X92394223Y124204285D01*
X92394223Y124204285D02*
X92489461Y124251904D01*
X92489461Y124251904D02*
X92584700Y124347142D01*
X92584700Y124347142D02*
X92632319Y124489999D01*
X92632319Y124489999D02*
X92632319Y124728094D01*
X91632319Y123823332D02*
X91632319Y123204285D01*
X91632319Y123204285D02*
X92013271Y123537618D01*
X92013271Y123537618D02*
X92013271Y123394761D01*
X92013271Y123394761D02*
X92060890Y123299523D01*
X92060890Y123299523D02*
X92108509Y123251904D01*
X92108509Y123251904D02*
X92203747Y123204285D01*
X92203747Y123204285D02*
X92441842Y123204285D01*
X92441842Y123204285D02*
X92537080Y123251904D01*
X92537080Y123251904D02*
X92584700Y123299523D01*
X92584700Y123299523D02*
X92632319Y123394761D01*
X92632319Y123394761D02*
X92632319Y123680475D01*
X92632319Y123680475D02*
X92584700Y123775713D01*
X92584700Y123775713D02*
X92537080Y123823332D01*
X149782319Y101391785D02*
X148782319Y101391785D01*
X148782319Y101391785D02*
X148782319Y101153690D01*
X148782319Y101153690D02*
X148829938Y101010833D01*
X148829938Y101010833D02*
X148925176Y100915595D01*
X148925176Y100915595D02*
X149020414Y100867976D01*
X149020414Y100867976D02*
X149210890Y100820357D01*
X149210890Y100820357D02*
X149353747Y100820357D01*
X149353747Y100820357D02*
X149544223Y100867976D01*
X149544223Y100867976D02*
X149639461Y100915595D01*
X149639461Y100915595D02*
X149734700Y101010833D01*
X149734700Y101010833D02*
X149782319Y101153690D01*
X149782319Y101153690D02*
X149782319Y101391785D01*
X148877557Y100439404D02*
X148829938Y100391785D01*
X148829938Y100391785D02*
X148782319Y100296547D01*
X148782319Y100296547D02*
X148782319Y100058452D01*
X148782319Y100058452D02*
X148829938Y99963214D01*
X148829938Y99963214D02*
X148877557Y99915595D01*
X148877557Y99915595D02*
X148972795Y99867976D01*
X148972795Y99867976D02*
X149068033Y99867976D01*
X149068033Y99867976D02*
X149210890Y99915595D01*
X149210890Y99915595D02*
X149782319Y100487023D01*
X149782319Y100487023D02*
X149782319Y99867976D01*
X148877557Y99487023D02*
X148829938Y99439404D01*
X148829938Y99439404D02*
X148782319Y99344166D01*
X148782319Y99344166D02*
X148782319Y99106071D01*
X148782319Y99106071D02*
X148829938Y99010833D01*
X148829938Y99010833D02*
X148877557Y98963214D01*
X148877557Y98963214D02*
X148972795Y98915595D01*
X148972795Y98915595D02*
X149068033Y98915595D01*
X149068033Y98915595D02*
X149210890Y98963214D01*
X149210890Y98963214D02*
X149782319Y99534642D01*
X149782319Y99534642D02*
X149782319Y98915595D01*
X278369819Y63291785D02*
X277369819Y63291785D01*
X277369819Y63291785D02*
X277369819Y63053690D01*
X277369819Y63053690D02*
X277417438Y62910833D01*
X277417438Y62910833D02*
X277512676Y62815595D01*
X277512676Y62815595D02*
X277607914Y62767976D01*
X277607914Y62767976D02*
X277798390Y62720357D01*
X277798390Y62720357D02*
X277941247Y62720357D01*
X277941247Y62720357D02*
X278131723Y62767976D01*
X278131723Y62767976D02*
X278226961Y62815595D01*
X278226961Y62815595D02*
X278322200Y62910833D01*
X278322200Y62910833D02*
X278369819Y63053690D01*
X278369819Y63053690D02*
X278369819Y63291785D01*
X277369819Y61815595D02*
X277369819Y62291785D01*
X277369819Y62291785D02*
X277846009Y62339404D01*
X277846009Y62339404D02*
X277798390Y62291785D01*
X277798390Y62291785D02*
X277750771Y62196547D01*
X277750771Y62196547D02*
X277750771Y61958452D01*
X277750771Y61958452D02*
X277798390Y61863214D01*
X277798390Y61863214D02*
X277846009Y61815595D01*
X277846009Y61815595D02*
X277941247Y61767976D01*
X277941247Y61767976D02*
X278179342Y61767976D01*
X278179342Y61767976D02*
X278274580Y61815595D01*
X278274580Y61815595D02*
X278322200Y61863214D01*
X278322200Y61863214D02*
X278369819Y61958452D01*
X278369819Y61958452D02*
X278369819Y62196547D01*
X278369819Y62196547D02*
X278322200Y62291785D01*
X278322200Y62291785D02*
X278274580Y62339404D01*
X277798390Y61196547D02*
X277750771Y61291785D01*
X277750771Y61291785D02*
X277703152Y61339404D01*
X277703152Y61339404D02*
X277607914Y61387023D01*
X277607914Y61387023D02*
X277560295Y61387023D01*
X277560295Y61387023D02*
X277465057Y61339404D01*
X277465057Y61339404D02*
X277417438Y61291785D01*
X277417438Y61291785D02*
X277369819Y61196547D01*
X277369819Y61196547D02*
X277369819Y61006071D01*
X277369819Y61006071D02*
X277417438Y60910833D01*
X277417438Y60910833D02*
X277465057Y60863214D01*
X277465057Y60863214D02*
X277560295Y60815595D01*
X277560295Y60815595D02*
X277607914Y60815595D01*
X277607914Y60815595D02*
X277703152Y60863214D01*
X277703152Y60863214D02*
X277750771Y60910833D01*
X277750771Y60910833D02*
X277798390Y61006071D01*
X277798390Y61006071D02*
X277798390Y61196547D01*
X277798390Y61196547D02*
X277846009Y61291785D01*
X277846009Y61291785D02*
X277893628Y61339404D01*
X277893628Y61339404D02*
X277988866Y61387023D01*
X277988866Y61387023D02*
X278179342Y61387023D01*
X278179342Y61387023D02*
X278274580Y61339404D01*
X278274580Y61339404D02*
X278322200Y61291785D01*
X278322200Y61291785D02*
X278369819Y61196547D01*
X278369819Y61196547D02*
X278369819Y61006071D01*
X278369819Y61006071D02*
X278322200Y60910833D01*
X278322200Y60910833D02*
X278274580Y60863214D01*
X278274580Y60863214D02*
X278179342Y60815595D01*
X278179342Y60815595D02*
X277988866Y60815595D01*
X277988866Y60815595D02*
X277893628Y60863214D01*
X277893628Y60863214D02*
X277846009Y60910833D01*
X277846009Y60910833D02*
X277798390Y61006071D01*
X302182319Y25191785D02*
X301182319Y25191785D01*
X301182319Y25191785D02*
X301182319Y24953690D01*
X301182319Y24953690D02*
X301229938Y24810833D01*
X301229938Y24810833D02*
X301325176Y24715595D01*
X301325176Y24715595D02*
X301420414Y24667976D01*
X301420414Y24667976D02*
X301610890Y24620357D01*
X301610890Y24620357D02*
X301753747Y24620357D01*
X301753747Y24620357D02*
X301944223Y24667976D01*
X301944223Y24667976D02*
X302039461Y24715595D01*
X302039461Y24715595D02*
X302134700Y24810833D01*
X302134700Y24810833D02*
X302182319Y24953690D01*
X302182319Y24953690D02*
X302182319Y25191785D01*
X301610890Y24048928D02*
X301563271Y24144166D01*
X301563271Y24144166D02*
X301515652Y24191785D01*
X301515652Y24191785D02*
X301420414Y24239404D01*
X301420414Y24239404D02*
X301372795Y24239404D01*
X301372795Y24239404D02*
X301277557Y24191785D01*
X301277557Y24191785D02*
X301229938Y24144166D01*
X301229938Y24144166D02*
X301182319Y24048928D01*
X301182319Y24048928D02*
X301182319Y23858452D01*
X301182319Y23858452D02*
X301229938Y23763214D01*
X301229938Y23763214D02*
X301277557Y23715595D01*
X301277557Y23715595D02*
X301372795Y23667976D01*
X301372795Y23667976D02*
X301420414Y23667976D01*
X301420414Y23667976D02*
X301515652Y23715595D01*
X301515652Y23715595D02*
X301563271Y23763214D01*
X301563271Y23763214D02*
X301610890Y23858452D01*
X301610890Y23858452D02*
X301610890Y24048928D01*
X301610890Y24048928D02*
X301658509Y24144166D01*
X301658509Y24144166D02*
X301706128Y24191785D01*
X301706128Y24191785D02*
X301801366Y24239404D01*
X301801366Y24239404D02*
X301991842Y24239404D01*
X301991842Y24239404D02*
X302087080Y24191785D01*
X302087080Y24191785D02*
X302134700Y24144166D01*
X302134700Y24144166D02*
X302182319Y24048928D01*
X302182319Y24048928D02*
X302182319Y23858452D01*
X302182319Y23858452D02*
X302134700Y23763214D01*
X302134700Y23763214D02*
X302087080Y23715595D01*
X302087080Y23715595D02*
X301991842Y23667976D01*
X301991842Y23667976D02*
X301801366Y23667976D01*
X301801366Y23667976D02*
X301706128Y23715595D01*
X301706128Y23715595D02*
X301658509Y23763214D01*
X301658509Y23763214D02*
X301610890Y23858452D01*
X301277557Y23287023D02*
X301229938Y23239404D01*
X301229938Y23239404D02*
X301182319Y23144166D01*
X301182319Y23144166D02*
X301182319Y22906071D01*
X301182319Y22906071D02*
X301229938Y22810833D01*
X301229938Y22810833D02*
X301277557Y22763214D01*
X301277557Y22763214D02*
X301372795Y22715595D01*
X301372795Y22715595D02*
X301468033Y22715595D01*
X301468033Y22715595D02*
X301610890Y22763214D01*
X301610890Y22763214D02*
X302182319Y23334642D01*
X302182319Y23334642D02*
X302182319Y22715595D01*
X106919819Y63291785D02*
X105919819Y63291785D01*
X105919819Y63291785D02*
X105919819Y63053690D01*
X105919819Y63053690D02*
X105967438Y62910833D01*
X105967438Y62910833D02*
X106062676Y62815595D01*
X106062676Y62815595D02*
X106157914Y62767976D01*
X106157914Y62767976D02*
X106348390Y62720357D01*
X106348390Y62720357D02*
X106491247Y62720357D01*
X106491247Y62720357D02*
X106681723Y62767976D01*
X106681723Y62767976D02*
X106776961Y62815595D01*
X106776961Y62815595D02*
X106872200Y62910833D01*
X106872200Y62910833D02*
X106919819Y63053690D01*
X106919819Y63053690D02*
X106919819Y63291785D01*
X106253152Y61863214D02*
X106919819Y61863214D01*
X105872200Y62101309D02*
X106586485Y62339404D01*
X106586485Y62339404D02*
X106586485Y61720357D01*
X106919819Y61291785D02*
X106919819Y61101309D01*
X106919819Y61101309D02*
X106872200Y61006071D01*
X106872200Y61006071D02*
X106824580Y60958452D01*
X106824580Y60958452D02*
X106681723Y60863214D01*
X106681723Y60863214D02*
X106491247Y60815595D01*
X106491247Y60815595D02*
X106110295Y60815595D01*
X106110295Y60815595D02*
X106015057Y60863214D01*
X106015057Y60863214D02*
X105967438Y60910833D01*
X105967438Y60910833D02*
X105919819Y61006071D01*
X105919819Y61006071D02*
X105919819Y61196547D01*
X105919819Y61196547D02*
X105967438Y61291785D01*
X105967438Y61291785D02*
X106015057Y61339404D01*
X106015057Y61339404D02*
X106110295Y61387023D01*
X106110295Y61387023D02*
X106348390Y61387023D01*
X106348390Y61387023D02*
X106443628Y61339404D01*
X106443628Y61339404D02*
X106491247Y61291785D01*
X106491247Y61291785D02*
X106538866Y61196547D01*
X106538866Y61196547D02*
X106538866Y61006071D01*
X106538866Y61006071D02*
X106491247Y60910833D01*
X106491247Y60910833D02*
X106443628Y60863214D01*
X106443628Y60863214D02*
X106348390Y60815595D01*
X316469819Y82341785D02*
X315469819Y82341785D01*
X315469819Y82341785D02*
X315469819Y82103690D01*
X315469819Y82103690D02*
X315517438Y81960833D01*
X315517438Y81960833D02*
X315612676Y81865595D01*
X315612676Y81865595D02*
X315707914Y81817976D01*
X315707914Y81817976D02*
X315898390Y81770357D01*
X315898390Y81770357D02*
X316041247Y81770357D01*
X316041247Y81770357D02*
X316231723Y81817976D01*
X316231723Y81817976D02*
X316326961Y81865595D01*
X316326961Y81865595D02*
X316422200Y81960833D01*
X316422200Y81960833D02*
X316469819Y82103690D01*
X316469819Y82103690D02*
X316469819Y82341785D01*
X315803152Y80913214D02*
X316469819Y80913214D01*
X315422200Y81151309D02*
X316136485Y81389404D01*
X316136485Y81389404D02*
X316136485Y80770357D01*
X315469819Y79913214D02*
X315469819Y80389404D01*
X315469819Y80389404D02*
X315946009Y80437023D01*
X315946009Y80437023D02*
X315898390Y80389404D01*
X315898390Y80389404D02*
X315850771Y80294166D01*
X315850771Y80294166D02*
X315850771Y80056071D01*
X315850771Y80056071D02*
X315898390Y79960833D01*
X315898390Y79960833D02*
X315946009Y79913214D01*
X315946009Y79913214D02*
X316041247Y79865595D01*
X316041247Y79865595D02*
X316279342Y79865595D01*
X316279342Y79865595D02*
X316374580Y79913214D01*
X316374580Y79913214D02*
X316422200Y79960833D01*
X316422200Y79960833D02*
X316469819Y80056071D01*
X316469819Y80056071D02*
X316469819Y80294166D01*
X316469819Y80294166D02*
X316422200Y80389404D01*
X316422200Y80389404D02*
X316374580Y80437023D01*
X206932319Y124728094D02*
X205932319Y124728094D01*
X205932319Y124728094D02*
X205932319Y124489999D01*
X205932319Y124489999D02*
X205979938Y124347142D01*
X205979938Y124347142D02*
X206075176Y124251904D01*
X206075176Y124251904D02*
X206170414Y124204285D01*
X206170414Y124204285D02*
X206360890Y124156666D01*
X206360890Y124156666D02*
X206503747Y124156666D01*
X206503747Y124156666D02*
X206694223Y124204285D01*
X206694223Y124204285D02*
X206789461Y124251904D01*
X206789461Y124251904D02*
X206884700Y124347142D01*
X206884700Y124347142D02*
X206932319Y124489999D01*
X206932319Y124489999D02*
X206932319Y124728094D01*
X206932319Y123680475D02*
X206932319Y123489999D01*
X206932319Y123489999D02*
X206884700Y123394761D01*
X206884700Y123394761D02*
X206837080Y123347142D01*
X206837080Y123347142D02*
X206694223Y123251904D01*
X206694223Y123251904D02*
X206503747Y123204285D01*
X206503747Y123204285D02*
X206122795Y123204285D01*
X206122795Y123204285D02*
X206027557Y123251904D01*
X206027557Y123251904D02*
X205979938Y123299523D01*
X205979938Y123299523D02*
X205932319Y123394761D01*
X205932319Y123394761D02*
X205932319Y123585237D01*
X205932319Y123585237D02*
X205979938Y123680475D01*
X205979938Y123680475D02*
X206027557Y123728094D01*
X206027557Y123728094D02*
X206122795Y123775713D01*
X206122795Y123775713D02*
X206360890Y123775713D01*
X206360890Y123775713D02*
X206456128Y123728094D01*
X206456128Y123728094D02*
X206503747Y123680475D01*
X206503747Y123680475D02*
X206551366Y123585237D01*
X206551366Y123585237D02*
X206551366Y123394761D01*
X206551366Y123394761D02*
X206503747Y123299523D01*
X206503747Y123299523D02*
X206456128Y123251904D01*
X206456128Y123251904D02*
X206360890Y123204285D01*
X321232319Y125204285D02*
X320232319Y125204285D01*
X320232319Y125204285D02*
X320232319Y124966190D01*
X320232319Y124966190D02*
X320279938Y124823333D01*
X320279938Y124823333D02*
X320375176Y124728095D01*
X320375176Y124728095D02*
X320470414Y124680476D01*
X320470414Y124680476D02*
X320660890Y124632857D01*
X320660890Y124632857D02*
X320803747Y124632857D01*
X320803747Y124632857D02*
X320994223Y124680476D01*
X320994223Y124680476D02*
X321089461Y124728095D01*
X321089461Y124728095D02*
X321184700Y124823333D01*
X321184700Y124823333D02*
X321232319Y124966190D01*
X321232319Y124966190D02*
X321232319Y125204285D01*
X321232319Y123680476D02*
X321232319Y124251904D01*
X321232319Y123966190D02*
X320232319Y123966190D01*
X320232319Y123966190D02*
X320375176Y124061428D01*
X320375176Y124061428D02*
X320470414Y124156666D01*
X320470414Y124156666D02*
X320518033Y124251904D01*
X320232319Y122775714D02*
X320232319Y123251904D01*
X320232319Y123251904D02*
X320708509Y123299523D01*
X320708509Y123299523D02*
X320660890Y123251904D01*
X320660890Y123251904D02*
X320613271Y123156666D01*
X320613271Y123156666D02*
X320613271Y122918571D01*
X320613271Y122918571D02*
X320660890Y122823333D01*
X320660890Y122823333D02*
X320708509Y122775714D01*
X320708509Y122775714D02*
X320803747Y122728095D01*
X320803747Y122728095D02*
X321041842Y122728095D01*
X321041842Y122728095D02*
X321137080Y122775714D01*
X321137080Y122775714D02*
X321184700Y122823333D01*
X321184700Y122823333D02*
X321232319Y122918571D01*
X321232319Y122918571D02*
X321232319Y123156666D01*
X321232319Y123156666D02*
X321184700Y123251904D01*
X321184700Y123251904D02*
X321137080Y123299523D01*
X340282319Y44241785D02*
X339282319Y44241785D01*
X339282319Y44241785D02*
X339282319Y44003690D01*
X339282319Y44003690D02*
X339329938Y43860833D01*
X339329938Y43860833D02*
X339425176Y43765595D01*
X339425176Y43765595D02*
X339520414Y43717976D01*
X339520414Y43717976D02*
X339710890Y43670357D01*
X339710890Y43670357D02*
X339853747Y43670357D01*
X339853747Y43670357D02*
X340044223Y43717976D01*
X340044223Y43717976D02*
X340139461Y43765595D01*
X340139461Y43765595D02*
X340234700Y43860833D01*
X340234700Y43860833D02*
X340282319Y44003690D01*
X340282319Y44003690D02*
X340282319Y44241785D01*
X339282319Y43337023D02*
X339282319Y42670357D01*
X339282319Y42670357D02*
X340282319Y43098928D01*
X339615652Y41860833D02*
X340282319Y41860833D01*
X339234700Y42098928D02*
X339948985Y42337023D01*
X339948985Y42337023D02*
X339948985Y41717976D01*
X125969819Y63291785D02*
X124969819Y63291785D01*
X124969819Y63291785D02*
X124969819Y63053690D01*
X124969819Y63053690D02*
X125017438Y62910833D01*
X125017438Y62910833D02*
X125112676Y62815595D01*
X125112676Y62815595D02*
X125207914Y62767976D01*
X125207914Y62767976D02*
X125398390Y62720357D01*
X125398390Y62720357D02*
X125541247Y62720357D01*
X125541247Y62720357D02*
X125731723Y62767976D01*
X125731723Y62767976D02*
X125826961Y62815595D01*
X125826961Y62815595D02*
X125922200Y62910833D01*
X125922200Y62910833D02*
X125969819Y63053690D01*
X125969819Y63053690D02*
X125969819Y63291785D01*
X124969819Y61815595D02*
X124969819Y62291785D01*
X124969819Y62291785D02*
X125446009Y62339404D01*
X125446009Y62339404D02*
X125398390Y62291785D01*
X125398390Y62291785D02*
X125350771Y62196547D01*
X125350771Y62196547D02*
X125350771Y61958452D01*
X125350771Y61958452D02*
X125398390Y61863214D01*
X125398390Y61863214D02*
X125446009Y61815595D01*
X125446009Y61815595D02*
X125541247Y61767976D01*
X125541247Y61767976D02*
X125779342Y61767976D01*
X125779342Y61767976D02*
X125874580Y61815595D01*
X125874580Y61815595D02*
X125922200Y61863214D01*
X125922200Y61863214D02*
X125969819Y61958452D01*
X125969819Y61958452D02*
X125969819Y62196547D01*
X125969819Y62196547D02*
X125922200Y62291785D01*
X125922200Y62291785D02*
X125874580Y62339404D01*
X124969819Y61148928D02*
X124969819Y61053690D01*
X124969819Y61053690D02*
X125017438Y60958452D01*
X125017438Y60958452D02*
X125065057Y60910833D01*
X125065057Y60910833D02*
X125160295Y60863214D01*
X125160295Y60863214D02*
X125350771Y60815595D01*
X125350771Y60815595D02*
X125588866Y60815595D01*
X125588866Y60815595D02*
X125779342Y60863214D01*
X125779342Y60863214D02*
X125874580Y60910833D01*
X125874580Y60910833D02*
X125922200Y60958452D01*
X125922200Y60958452D02*
X125969819Y61053690D01*
X125969819Y61053690D02*
X125969819Y61148928D01*
X125969819Y61148928D02*
X125922200Y61244166D01*
X125922200Y61244166D02*
X125874580Y61291785D01*
X125874580Y61291785D02*
X125779342Y61339404D01*
X125779342Y61339404D02*
X125588866Y61387023D01*
X125588866Y61387023D02*
X125350771Y61387023D01*
X125350771Y61387023D02*
X125160295Y61339404D01*
X125160295Y61339404D02*
X125065057Y61291785D01*
X125065057Y61291785D02*
X125017438Y61244166D01*
X125017438Y61244166D02*
X124969819Y61148928D01*
X66438569Y44241785D02*
X65438569Y44241785D01*
X65438569Y44241785D02*
X65438569Y44003690D01*
X65438569Y44003690D02*
X65486188Y43860833D01*
X65486188Y43860833D02*
X65581426Y43765595D01*
X65581426Y43765595D02*
X65676664Y43717976D01*
X65676664Y43717976D02*
X65867140Y43670357D01*
X65867140Y43670357D02*
X66009997Y43670357D01*
X66009997Y43670357D02*
X66200473Y43717976D01*
X66200473Y43717976D02*
X66295711Y43765595D01*
X66295711Y43765595D02*
X66390950Y43860833D01*
X66390950Y43860833D02*
X66438569Y44003690D01*
X66438569Y44003690D02*
X66438569Y44241785D01*
X65438569Y42813214D02*
X65438569Y43003690D01*
X65438569Y43003690D02*
X65486188Y43098928D01*
X65486188Y43098928D02*
X65533807Y43146547D01*
X65533807Y43146547D02*
X65676664Y43241785D01*
X65676664Y43241785D02*
X65867140Y43289404D01*
X65867140Y43289404D02*
X66248092Y43289404D01*
X66248092Y43289404D02*
X66343330Y43241785D01*
X66343330Y43241785D02*
X66390950Y43194166D01*
X66390950Y43194166D02*
X66438569Y43098928D01*
X66438569Y43098928D02*
X66438569Y42908452D01*
X66438569Y42908452D02*
X66390950Y42813214D01*
X66390950Y42813214D02*
X66343330Y42765595D01*
X66343330Y42765595D02*
X66248092Y42717976D01*
X66248092Y42717976D02*
X66009997Y42717976D01*
X66009997Y42717976D02*
X65914759Y42765595D01*
X65914759Y42765595D02*
X65867140Y42813214D01*
X65867140Y42813214D02*
X65819521Y42908452D01*
X65819521Y42908452D02*
X65819521Y43098928D01*
X65819521Y43098928D02*
X65867140Y43194166D01*
X65867140Y43194166D02*
X65914759Y43241785D01*
X65914759Y43241785D02*
X66009997Y43289404D01*
X66438569Y41765595D02*
X66438569Y42337023D01*
X66438569Y42051309D02*
X65438569Y42051309D01*
X65438569Y42051309D02*
X65581426Y42146547D01*
X65581426Y42146547D02*
X65676664Y42241785D01*
X65676664Y42241785D02*
X65724283Y42337023D01*
X273607319Y82341785D02*
X272607319Y82341785D01*
X272607319Y82341785D02*
X272607319Y82103690D01*
X272607319Y82103690D02*
X272654938Y81960833D01*
X272654938Y81960833D02*
X272750176Y81865595D01*
X272750176Y81865595D02*
X272845414Y81817976D01*
X272845414Y81817976D02*
X273035890Y81770357D01*
X273035890Y81770357D02*
X273178747Y81770357D01*
X273178747Y81770357D02*
X273369223Y81817976D01*
X273369223Y81817976D02*
X273464461Y81865595D01*
X273464461Y81865595D02*
X273559700Y81960833D01*
X273559700Y81960833D02*
X273607319Y82103690D01*
X273607319Y82103690D02*
X273607319Y82341785D01*
X272940652Y80913214D02*
X273607319Y80913214D01*
X272559700Y81151309D02*
X273273985Y81389404D01*
X273273985Y81389404D02*
X273273985Y80770357D01*
X272607319Y80484642D02*
X272607319Y79865595D01*
X272607319Y79865595D02*
X272988271Y80198928D01*
X272988271Y80198928D02*
X272988271Y80056071D01*
X272988271Y80056071D02*
X273035890Y79960833D01*
X273035890Y79960833D02*
X273083509Y79913214D01*
X273083509Y79913214D02*
X273178747Y79865595D01*
X273178747Y79865595D02*
X273416842Y79865595D01*
X273416842Y79865595D02*
X273512080Y79913214D01*
X273512080Y79913214D02*
X273559700Y79960833D01*
X273559700Y79960833D02*
X273607319Y80056071D01*
X273607319Y80056071D02*
X273607319Y80341785D01*
X273607319Y80341785D02*
X273559700Y80437023D01*
X273559700Y80437023D02*
X273512080Y80484642D01*
X97394819Y44241785D02*
X96394819Y44241785D01*
X96394819Y44241785D02*
X96394819Y44003690D01*
X96394819Y44003690D02*
X96442438Y43860833D01*
X96442438Y43860833D02*
X96537676Y43765595D01*
X96537676Y43765595D02*
X96632914Y43717976D01*
X96632914Y43717976D02*
X96823390Y43670357D01*
X96823390Y43670357D02*
X96966247Y43670357D01*
X96966247Y43670357D02*
X97156723Y43717976D01*
X97156723Y43717976D02*
X97251961Y43765595D01*
X97251961Y43765595D02*
X97347200Y43860833D01*
X97347200Y43860833D02*
X97394819Y44003690D01*
X97394819Y44003690D02*
X97394819Y44241785D01*
X96394819Y42813214D02*
X96394819Y43003690D01*
X96394819Y43003690D02*
X96442438Y43098928D01*
X96442438Y43098928D02*
X96490057Y43146547D01*
X96490057Y43146547D02*
X96632914Y43241785D01*
X96632914Y43241785D02*
X96823390Y43289404D01*
X96823390Y43289404D02*
X97204342Y43289404D01*
X97204342Y43289404D02*
X97299580Y43241785D01*
X97299580Y43241785D02*
X97347200Y43194166D01*
X97347200Y43194166D02*
X97394819Y43098928D01*
X97394819Y43098928D02*
X97394819Y42908452D01*
X97394819Y42908452D02*
X97347200Y42813214D01*
X97347200Y42813214D02*
X97299580Y42765595D01*
X97299580Y42765595D02*
X97204342Y42717976D01*
X97204342Y42717976D02*
X96966247Y42717976D01*
X96966247Y42717976D02*
X96871009Y42765595D01*
X96871009Y42765595D02*
X96823390Y42813214D01*
X96823390Y42813214D02*
X96775771Y42908452D01*
X96775771Y42908452D02*
X96775771Y43098928D01*
X96775771Y43098928D02*
X96823390Y43194166D01*
X96823390Y43194166D02*
X96871009Y43241785D01*
X96871009Y43241785D02*
X96966247Y43289404D01*
X96490057Y42337023D02*
X96442438Y42289404D01*
X96442438Y42289404D02*
X96394819Y42194166D01*
X96394819Y42194166D02*
X96394819Y41956071D01*
X96394819Y41956071D02*
X96442438Y41860833D01*
X96442438Y41860833D02*
X96490057Y41813214D01*
X96490057Y41813214D02*
X96585295Y41765595D01*
X96585295Y41765595D02*
X96680533Y41765595D01*
X96680533Y41765595D02*
X96823390Y41813214D01*
X96823390Y41813214D02*
X97394819Y42384642D01*
X97394819Y42384642D02*
X97394819Y41765595D01*
X87869819Y63291785D02*
X86869819Y63291785D01*
X86869819Y63291785D02*
X86869819Y63053690D01*
X86869819Y63053690D02*
X86917438Y62910833D01*
X86917438Y62910833D02*
X87012676Y62815595D01*
X87012676Y62815595D02*
X87107914Y62767976D01*
X87107914Y62767976D02*
X87298390Y62720357D01*
X87298390Y62720357D02*
X87441247Y62720357D01*
X87441247Y62720357D02*
X87631723Y62767976D01*
X87631723Y62767976D02*
X87726961Y62815595D01*
X87726961Y62815595D02*
X87822200Y62910833D01*
X87822200Y62910833D02*
X87869819Y63053690D01*
X87869819Y63053690D02*
X87869819Y63291785D01*
X87203152Y61863214D02*
X87869819Y61863214D01*
X86822200Y62101309D02*
X87536485Y62339404D01*
X87536485Y62339404D02*
X87536485Y61720357D01*
X87298390Y61196547D02*
X87250771Y61291785D01*
X87250771Y61291785D02*
X87203152Y61339404D01*
X87203152Y61339404D02*
X87107914Y61387023D01*
X87107914Y61387023D02*
X87060295Y61387023D01*
X87060295Y61387023D02*
X86965057Y61339404D01*
X86965057Y61339404D02*
X86917438Y61291785D01*
X86917438Y61291785D02*
X86869819Y61196547D01*
X86869819Y61196547D02*
X86869819Y61006071D01*
X86869819Y61006071D02*
X86917438Y60910833D01*
X86917438Y60910833D02*
X86965057Y60863214D01*
X86965057Y60863214D02*
X87060295Y60815595D01*
X87060295Y60815595D02*
X87107914Y60815595D01*
X87107914Y60815595D02*
X87203152Y60863214D01*
X87203152Y60863214D02*
X87250771Y60910833D01*
X87250771Y60910833D02*
X87298390Y61006071D01*
X87298390Y61006071D02*
X87298390Y61196547D01*
X87298390Y61196547D02*
X87346009Y61291785D01*
X87346009Y61291785D02*
X87393628Y61339404D01*
X87393628Y61339404D02*
X87488866Y61387023D01*
X87488866Y61387023D02*
X87679342Y61387023D01*
X87679342Y61387023D02*
X87774580Y61339404D01*
X87774580Y61339404D02*
X87822200Y61291785D01*
X87822200Y61291785D02*
X87869819Y61196547D01*
X87869819Y61196547D02*
X87869819Y61006071D01*
X87869819Y61006071D02*
X87822200Y60910833D01*
X87822200Y60910833D02*
X87774580Y60863214D01*
X87774580Y60863214D02*
X87679342Y60815595D01*
X87679342Y60815595D02*
X87488866Y60815595D01*
X87488866Y60815595D02*
X87393628Y60863214D01*
X87393628Y60863214D02*
X87346009Y60910833D01*
X87346009Y60910833D02*
X87298390Y61006071D01*
X292657319Y82341785D02*
X291657319Y82341785D01*
X291657319Y82341785D02*
X291657319Y82103690D01*
X291657319Y82103690D02*
X291704938Y81960833D01*
X291704938Y81960833D02*
X291800176Y81865595D01*
X291800176Y81865595D02*
X291895414Y81817976D01*
X291895414Y81817976D02*
X292085890Y81770357D01*
X292085890Y81770357D02*
X292228747Y81770357D01*
X292228747Y81770357D02*
X292419223Y81817976D01*
X292419223Y81817976D02*
X292514461Y81865595D01*
X292514461Y81865595D02*
X292609700Y81960833D01*
X292609700Y81960833D02*
X292657319Y82103690D01*
X292657319Y82103690D02*
X292657319Y82341785D01*
X291990652Y80913214D02*
X292657319Y80913214D01*
X291609700Y81151309D02*
X292323985Y81389404D01*
X292323985Y81389404D02*
X292323985Y80770357D01*
X291990652Y79960833D02*
X292657319Y79960833D01*
X291609700Y80198928D02*
X292323985Y80437023D01*
X292323985Y80437023D02*
X292323985Y79817976D01*
X216457319Y82341785D02*
X215457319Y82341785D01*
X215457319Y82341785D02*
X215457319Y82103690D01*
X215457319Y82103690D02*
X215504938Y81960833D01*
X215504938Y81960833D02*
X215600176Y81865595D01*
X215600176Y81865595D02*
X215695414Y81817976D01*
X215695414Y81817976D02*
X215885890Y81770357D01*
X215885890Y81770357D02*
X216028747Y81770357D01*
X216028747Y81770357D02*
X216219223Y81817976D01*
X216219223Y81817976D02*
X216314461Y81865595D01*
X216314461Y81865595D02*
X216409700Y81960833D01*
X216409700Y81960833D02*
X216457319Y82103690D01*
X216457319Y82103690D02*
X216457319Y82341785D01*
X215790652Y80913214D02*
X216457319Y80913214D01*
X215409700Y81151309D02*
X216123985Y81389404D01*
X216123985Y81389404D02*
X216123985Y80770357D01*
X215457319Y80198928D02*
X215457319Y80103690D01*
X215457319Y80103690D02*
X215504938Y80008452D01*
X215504938Y80008452D02*
X215552557Y79960833D01*
X215552557Y79960833D02*
X215647795Y79913214D01*
X215647795Y79913214D02*
X215838271Y79865595D01*
X215838271Y79865595D02*
X216076366Y79865595D01*
X216076366Y79865595D02*
X216266842Y79913214D01*
X216266842Y79913214D02*
X216362080Y79960833D01*
X216362080Y79960833D02*
X216409700Y80008452D01*
X216409700Y80008452D02*
X216457319Y80103690D01*
X216457319Y80103690D02*
X216457319Y80198928D01*
X216457319Y80198928D02*
X216409700Y80294166D01*
X216409700Y80294166D02*
X216362080Y80341785D01*
X216362080Y80341785D02*
X216266842Y80389404D01*
X216266842Y80389404D02*
X216076366Y80437023D01*
X216076366Y80437023D02*
X215838271Y80437023D01*
X215838271Y80437023D02*
X215647795Y80389404D01*
X215647795Y80389404D02*
X215552557Y80341785D01*
X215552557Y80341785D02*
X215504938Y80294166D01*
X215504938Y80294166D02*
X215457319Y80198928D01*
X121207319Y82341785D02*
X120207319Y82341785D01*
X120207319Y82341785D02*
X120207319Y82103690D01*
X120207319Y82103690D02*
X120254938Y81960833D01*
X120254938Y81960833D02*
X120350176Y81865595D01*
X120350176Y81865595D02*
X120445414Y81817976D01*
X120445414Y81817976D02*
X120635890Y81770357D01*
X120635890Y81770357D02*
X120778747Y81770357D01*
X120778747Y81770357D02*
X120969223Y81817976D01*
X120969223Y81817976D02*
X121064461Y81865595D01*
X121064461Y81865595D02*
X121159700Y81960833D01*
X121159700Y81960833D02*
X121207319Y82103690D01*
X121207319Y82103690D02*
X121207319Y82341785D01*
X120207319Y81437023D02*
X120207319Y80817976D01*
X120207319Y80817976D02*
X120588271Y81151309D01*
X120588271Y81151309D02*
X120588271Y81008452D01*
X120588271Y81008452D02*
X120635890Y80913214D01*
X120635890Y80913214D02*
X120683509Y80865595D01*
X120683509Y80865595D02*
X120778747Y80817976D01*
X120778747Y80817976D02*
X121016842Y80817976D01*
X121016842Y80817976D02*
X121112080Y80865595D01*
X121112080Y80865595D02*
X121159700Y80913214D01*
X121159700Y80913214D02*
X121207319Y81008452D01*
X121207319Y81008452D02*
X121207319Y81294166D01*
X121207319Y81294166D02*
X121159700Y81389404D01*
X121159700Y81389404D02*
X121112080Y81437023D01*
X120207319Y79913214D02*
X120207319Y80389404D01*
X120207319Y80389404D02*
X120683509Y80437023D01*
X120683509Y80437023D02*
X120635890Y80389404D01*
X120635890Y80389404D02*
X120588271Y80294166D01*
X120588271Y80294166D02*
X120588271Y80056071D01*
X120588271Y80056071D02*
X120635890Y79960833D01*
X120635890Y79960833D02*
X120683509Y79913214D01*
X120683509Y79913214D02*
X120778747Y79865595D01*
X120778747Y79865595D02*
X121016842Y79865595D01*
X121016842Y79865595D02*
X121112080Y79913214D01*
X121112080Y79913214D02*
X121159700Y79960833D01*
X121159700Y79960833D02*
X121207319Y80056071D01*
X121207319Y80056071D02*
X121207319Y80294166D01*
X121207319Y80294166D02*
X121159700Y80389404D01*
X121159700Y80389404D02*
X121112080Y80437023D01*
X59294819Y82341785D02*
X58294819Y82341785D01*
X58294819Y82341785D02*
X58294819Y82103690D01*
X58294819Y82103690D02*
X58342438Y81960833D01*
X58342438Y81960833D02*
X58437676Y81865595D01*
X58437676Y81865595D02*
X58532914Y81817976D01*
X58532914Y81817976D02*
X58723390Y81770357D01*
X58723390Y81770357D02*
X58866247Y81770357D01*
X58866247Y81770357D02*
X59056723Y81817976D01*
X59056723Y81817976D02*
X59151961Y81865595D01*
X59151961Y81865595D02*
X59247200Y81960833D01*
X59247200Y81960833D02*
X59294819Y82103690D01*
X59294819Y82103690D02*
X59294819Y82341785D01*
X58294819Y81437023D02*
X58294819Y80817976D01*
X58294819Y80817976D02*
X58675771Y81151309D01*
X58675771Y81151309D02*
X58675771Y81008452D01*
X58675771Y81008452D02*
X58723390Y80913214D01*
X58723390Y80913214D02*
X58771009Y80865595D01*
X58771009Y80865595D02*
X58866247Y80817976D01*
X58866247Y80817976D02*
X59104342Y80817976D01*
X59104342Y80817976D02*
X59199580Y80865595D01*
X59199580Y80865595D02*
X59247200Y80913214D01*
X59247200Y80913214D02*
X59294819Y81008452D01*
X59294819Y81008452D02*
X59294819Y81294166D01*
X59294819Y81294166D02*
X59247200Y81389404D01*
X59247200Y81389404D02*
X59199580Y81437023D01*
X58390057Y80437023D02*
X58342438Y80389404D01*
X58342438Y80389404D02*
X58294819Y80294166D01*
X58294819Y80294166D02*
X58294819Y80056071D01*
X58294819Y80056071D02*
X58342438Y79960833D01*
X58342438Y79960833D02*
X58390057Y79913214D01*
X58390057Y79913214D02*
X58485295Y79865595D01*
X58485295Y79865595D02*
X58580533Y79865595D01*
X58580533Y79865595D02*
X58723390Y79913214D01*
X58723390Y79913214D02*
X59294819Y80484642D01*
X59294819Y80484642D02*
X59294819Y79865595D01*
X111682319Y101391785D02*
X110682319Y101391785D01*
X110682319Y101391785D02*
X110682319Y101153690D01*
X110682319Y101153690D02*
X110729938Y101010833D01*
X110729938Y101010833D02*
X110825176Y100915595D01*
X110825176Y100915595D02*
X110920414Y100867976D01*
X110920414Y100867976D02*
X111110890Y100820357D01*
X111110890Y100820357D02*
X111253747Y100820357D01*
X111253747Y100820357D02*
X111444223Y100867976D01*
X111444223Y100867976D02*
X111539461Y100915595D01*
X111539461Y100915595D02*
X111634700Y101010833D01*
X111634700Y101010833D02*
X111682319Y101153690D01*
X111682319Y101153690D02*
X111682319Y101391785D01*
X110777557Y100439404D02*
X110729938Y100391785D01*
X110729938Y100391785D02*
X110682319Y100296547D01*
X110682319Y100296547D02*
X110682319Y100058452D01*
X110682319Y100058452D02*
X110729938Y99963214D01*
X110729938Y99963214D02*
X110777557Y99915595D01*
X110777557Y99915595D02*
X110872795Y99867976D01*
X110872795Y99867976D02*
X110968033Y99867976D01*
X110968033Y99867976D02*
X111110890Y99915595D01*
X111110890Y99915595D02*
X111682319Y100487023D01*
X111682319Y100487023D02*
X111682319Y99867976D01*
X110682319Y99248928D02*
X110682319Y99153690D01*
X110682319Y99153690D02*
X110729938Y99058452D01*
X110729938Y99058452D02*
X110777557Y99010833D01*
X110777557Y99010833D02*
X110872795Y98963214D01*
X110872795Y98963214D02*
X111063271Y98915595D01*
X111063271Y98915595D02*
X111301366Y98915595D01*
X111301366Y98915595D02*
X111491842Y98963214D01*
X111491842Y98963214D02*
X111587080Y99010833D01*
X111587080Y99010833D02*
X111634700Y99058452D01*
X111634700Y99058452D02*
X111682319Y99153690D01*
X111682319Y99153690D02*
X111682319Y99248928D01*
X111682319Y99248928D02*
X111634700Y99344166D01*
X111634700Y99344166D02*
X111587080Y99391785D01*
X111587080Y99391785D02*
X111491842Y99439404D01*
X111491842Y99439404D02*
X111301366Y99487023D01*
X111301366Y99487023D02*
X111063271Y99487023D01*
X111063271Y99487023D02*
X110872795Y99439404D01*
X110872795Y99439404D02*
X110777557Y99391785D01*
X110777557Y99391785D02*
X110729938Y99344166D01*
X110729938Y99344166D02*
X110682319Y99248928D01*
X54532319Y101391785D02*
X53532319Y101391785D01*
X53532319Y101391785D02*
X53532319Y101153690D01*
X53532319Y101153690D02*
X53579938Y101010833D01*
X53579938Y101010833D02*
X53675176Y100915595D01*
X53675176Y100915595D02*
X53770414Y100867976D01*
X53770414Y100867976D02*
X53960890Y100820357D01*
X53960890Y100820357D02*
X54103747Y100820357D01*
X54103747Y100820357D02*
X54294223Y100867976D01*
X54294223Y100867976D02*
X54389461Y100915595D01*
X54389461Y100915595D02*
X54484700Y101010833D01*
X54484700Y101010833D02*
X54532319Y101153690D01*
X54532319Y101153690D02*
X54532319Y101391785D01*
X54532319Y99867976D02*
X54532319Y100439404D01*
X54532319Y100153690D02*
X53532319Y100153690D01*
X53532319Y100153690D02*
X53675176Y100248928D01*
X53675176Y100248928D02*
X53770414Y100344166D01*
X53770414Y100344166D02*
X53818033Y100439404D01*
X53532319Y99534642D02*
X53532319Y98867976D01*
X53532319Y98867976D02*
X54532319Y99296547D01*
X283132319Y125204285D02*
X282132319Y125204285D01*
X282132319Y125204285D02*
X282132319Y124966190D01*
X282132319Y124966190D02*
X282179938Y124823333D01*
X282179938Y124823333D02*
X282275176Y124728095D01*
X282275176Y124728095D02*
X282370414Y124680476D01*
X282370414Y124680476D02*
X282560890Y124632857D01*
X282560890Y124632857D02*
X282703747Y124632857D01*
X282703747Y124632857D02*
X282894223Y124680476D01*
X282894223Y124680476D02*
X282989461Y124728095D01*
X282989461Y124728095D02*
X283084700Y124823333D01*
X283084700Y124823333D02*
X283132319Y124966190D01*
X283132319Y124966190D02*
X283132319Y125204285D01*
X283132319Y123680476D02*
X283132319Y124251904D01*
X283132319Y123966190D02*
X282132319Y123966190D01*
X282132319Y123966190D02*
X282275176Y124061428D01*
X282275176Y124061428D02*
X282370414Y124156666D01*
X282370414Y124156666D02*
X282418033Y124251904D01*
X282132319Y123347142D02*
X282132319Y122728095D01*
X282132319Y122728095D02*
X282513271Y123061428D01*
X282513271Y123061428D02*
X282513271Y122918571D01*
X282513271Y122918571D02*
X282560890Y122823333D01*
X282560890Y122823333D02*
X282608509Y122775714D01*
X282608509Y122775714D02*
X282703747Y122728095D01*
X282703747Y122728095D02*
X282941842Y122728095D01*
X282941842Y122728095D02*
X283037080Y122775714D01*
X283037080Y122775714D02*
X283084700Y122823333D01*
X283084700Y122823333D02*
X283132319Y122918571D01*
X283132319Y122918571D02*
X283132319Y123204285D01*
X283132319Y123204285D02*
X283084700Y123299523D01*
X283084700Y123299523D02*
X283037080Y123347142D01*
X340282319Y125204285D02*
X339282319Y125204285D01*
X339282319Y125204285D02*
X339282319Y124966190D01*
X339282319Y124966190D02*
X339329938Y124823333D01*
X339329938Y124823333D02*
X339425176Y124728095D01*
X339425176Y124728095D02*
X339520414Y124680476D01*
X339520414Y124680476D02*
X339710890Y124632857D01*
X339710890Y124632857D02*
X339853747Y124632857D01*
X339853747Y124632857D02*
X340044223Y124680476D01*
X340044223Y124680476D02*
X340139461Y124728095D01*
X340139461Y124728095D02*
X340234700Y124823333D01*
X340234700Y124823333D02*
X340282319Y124966190D01*
X340282319Y124966190D02*
X340282319Y125204285D01*
X340282319Y123680476D02*
X340282319Y124251904D01*
X340282319Y123966190D02*
X339282319Y123966190D01*
X339282319Y123966190D02*
X339425176Y124061428D01*
X339425176Y124061428D02*
X339520414Y124156666D01*
X339520414Y124156666D02*
X339568033Y124251904D01*
X339282319Y122823333D02*
X339282319Y123013809D01*
X339282319Y123013809D02*
X339329938Y123109047D01*
X339329938Y123109047D02*
X339377557Y123156666D01*
X339377557Y123156666D02*
X339520414Y123251904D01*
X339520414Y123251904D02*
X339710890Y123299523D01*
X339710890Y123299523D02*
X340091842Y123299523D01*
X340091842Y123299523D02*
X340187080Y123251904D01*
X340187080Y123251904D02*
X340234700Y123204285D01*
X340234700Y123204285D02*
X340282319Y123109047D01*
X340282319Y123109047D02*
X340282319Y122918571D01*
X340282319Y122918571D02*
X340234700Y122823333D01*
X340234700Y122823333D02*
X340187080Y122775714D01*
X340187080Y122775714D02*
X340091842Y122728095D01*
X340091842Y122728095D02*
X339853747Y122728095D01*
X339853747Y122728095D02*
X339758509Y122775714D01*
X339758509Y122775714D02*
X339710890Y122823333D01*
X339710890Y122823333D02*
X339663271Y122918571D01*
X339663271Y122918571D02*
X339663271Y123109047D01*
X339663271Y123109047D02*
X339710890Y123204285D01*
X339710890Y123204285D02*
X339758509Y123251904D01*
X339758509Y123251904D02*
X339853747Y123299523D01*
X206932319Y101391785D02*
X205932319Y101391785D01*
X205932319Y101391785D02*
X205932319Y101153690D01*
X205932319Y101153690D02*
X205979938Y101010833D01*
X205979938Y101010833D02*
X206075176Y100915595D01*
X206075176Y100915595D02*
X206170414Y100867976D01*
X206170414Y100867976D02*
X206360890Y100820357D01*
X206360890Y100820357D02*
X206503747Y100820357D01*
X206503747Y100820357D02*
X206694223Y100867976D01*
X206694223Y100867976D02*
X206789461Y100915595D01*
X206789461Y100915595D02*
X206884700Y101010833D01*
X206884700Y101010833D02*
X206932319Y101153690D01*
X206932319Y101153690D02*
X206932319Y101391785D01*
X206027557Y100439404D02*
X205979938Y100391785D01*
X205979938Y100391785D02*
X205932319Y100296547D01*
X205932319Y100296547D02*
X205932319Y100058452D01*
X205932319Y100058452D02*
X205979938Y99963214D01*
X205979938Y99963214D02*
X206027557Y99915595D01*
X206027557Y99915595D02*
X206122795Y99867976D01*
X206122795Y99867976D02*
X206218033Y99867976D01*
X206218033Y99867976D02*
X206360890Y99915595D01*
X206360890Y99915595D02*
X206932319Y100487023D01*
X206932319Y100487023D02*
X206932319Y99867976D01*
X205932319Y98963214D02*
X205932319Y99439404D01*
X205932319Y99439404D02*
X206408509Y99487023D01*
X206408509Y99487023D02*
X206360890Y99439404D01*
X206360890Y99439404D02*
X206313271Y99344166D01*
X206313271Y99344166D02*
X206313271Y99106071D01*
X206313271Y99106071D02*
X206360890Y99010833D01*
X206360890Y99010833D02*
X206408509Y98963214D01*
X206408509Y98963214D02*
X206503747Y98915595D01*
X206503747Y98915595D02*
X206741842Y98915595D01*
X206741842Y98915595D02*
X206837080Y98963214D01*
X206837080Y98963214D02*
X206884700Y99010833D01*
X206884700Y99010833D02*
X206932319Y99106071D01*
X206932319Y99106071D02*
X206932319Y99344166D01*
X206932319Y99344166D02*
X206884700Y99439404D01*
X206884700Y99439404D02*
X206837080Y99487023D01*
X56913569Y25191785D02*
X55913569Y25191785D01*
X55913569Y25191785D02*
X55913569Y24953690D01*
X55913569Y24953690D02*
X55961188Y24810833D01*
X55961188Y24810833D02*
X56056426Y24715595D01*
X56056426Y24715595D02*
X56151664Y24667976D01*
X56151664Y24667976D02*
X56342140Y24620357D01*
X56342140Y24620357D02*
X56484997Y24620357D01*
X56484997Y24620357D02*
X56675473Y24667976D01*
X56675473Y24667976D02*
X56770711Y24715595D01*
X56770711Y24715595D02*
X56865950Y24810833D01*
X56865950Y24810833D02*
X56913569Y24953690D01*
X56913569Y24953690D02*
X56913569Y25191785D01*
X55913569Y24287023D02*
X55913569Y23620357D01*
X55913569Y23620357D02*
X56913569Y24048928D01*
X55913569Y22763214D02*
X55913569Y23239404D01*
X55913569Y23239404D02*
X56389759Y23287023D01*
X56389759Y23287023D02*
X56342140Y23239404D01*
X56342140Y23239404D02*
X56294521Y23144166D01*
X56294521Y23144166D02*
X56294521Y22906071D01*
X56294521Y22906071D02*
X56342140Y22810833D01*
X56342140Y22810833D02*
X56389759Y22763214D01*
X56389759Y22763214D02*
X56484997Y22715595D01*
X56484997Y22715595D02*
X56723092Y22715595D01*
X56723092Y22715595D02*
X56818330Y22763214D01*
X56818330Y22763214D02*
X56865950Y22810833D01*
X56865950Y22810833D02*
X56913569Y22906071D01*
X56913569Y22906071D02*
X56913569Y23144166D01*
X56913569Y23144166D02*
X56865950Y23239404D01*
X56865950Y23239404D02*
X56818330Y23287023D01*
X264082319Y125204285D02*
X263082319Y125204285D01*
X263082319Y125204285D02*
X263082319Y124966190D01*
X263082319Y124966190D02*
X263129938Y124823333D01*
X263129938Y124823333D02*
X263225176Y124728095D01*
X263225176Y124728095D02*
X263320414Y124680476D01*
X263320414Y124680476D02*
X263510890Y124632857D01*
X263510890Y124632857D02*
X263653747Y124632857D01*
X263653747Y124632857D02*
X263844223Y124680476D01*
X263844223Y124680476D02*
X263939461Y124728095D01*
X263939461Y124728095D02*
X264034700Y124823333D01*
X264034700Y124823333D02*
X264082319Y124966190D01*
X264082319Y124966190D02*
X264082319Y125204285D01*
X264082319Y123680476D02*
X264082319Y124251904D01*
X264082319Y123966190D02*
X263082319Y123966190D01*
X263082319Y123966190D02*
X263225176Y124061428D01*
X263225176Y124061428D02*
X263320414Y124156666D01*
X263320414Y124156666D02*
X263368033Y124251904D01*
X263177557Y123299523D02*
X263129938Y123251904D01*
X263129938Y123251904D02*
X263082319Y123156666D01*
X263082319Y123156666D02*
X263082319Y122918571D01*
X263082319Y122918571D02*
X263129938Y122823333D01*
X263129938Y122823333D02*
X263177557Y122775714D01*
X263177557Y122775714D02*
X263272795Y122728095D01*
X263272795Y122728095D02*
X263368033Y122728095D01*
X263368033Y122728095D02*
X263510890Y122775714D01*
X263510890Y122775714D02*
X264082319Y123347142D01*
X264082319Y123347142D02*
X264082319Y122728095D01*
X104538569Y25191785D02*
X103538569Y25191785D01*
X103538569Y25191785D02*
X103538569Y24953690D01*
X103538569Y24953690D02*
X103586188Y24810833D01*
X103586188Y24810833D02*
X103681426Y24715595D01*
X103681426Y24715595D02*
X103776664Y24667976D01*
X103776664Y24667976D02*
X103967140Y24620357D01*
X103967140Y24620357D02*
X104109997Y24620357D01*
X104109997Y24620357D02*
X104300473Y24667976D01*
X104300473Y24667976D02*
X104395711Y24715595D01*
X104395711Y24715595D02*
X104490950Y24810833D01*
X104490950Y24810833D02*
X104538569Y24953690D01*
X104538569Y24953690D02*
X104538569Y25191785D01*
X103538569Y24287023D02*
X103538569Y23620357D01*
X103538569Y23620357D02*
X104538569Y24048928D01*
X103538569Y23334642D02*
X103538569Y22667976D01*
X103538569Y22667976D02*
X104538569Y23096547D01*
X264082319Y25191785D02*
X263082319Y25191785D01*
X263082319Y25191785D02*
X263082319Y24953690D01*
X263082319Y24953690D02*
X263129938Y24810833D01*
X263129938Y24810833D02*
X263225176Y24715595D01*
X263225176Y24715595D02*
X263320414Y24667976D01*
X263320414Y24667976D02*
X263510890Y24620357D01*
X263510890Y24620357D02*
X263653747Y24620357D01*
X263653747Y24620357D02*
X263844223Y24667976D01*
X263844223Y24667976D02*
X263939461Y24715595D01*
X263939461Y24715595D02*
X264034700Y24810833D01*
X264034700Y24810833D02*
X264082319Y24953690D01*
X264082319Y24953690D02*
X264082319Y25191785D01*
X263510890Y24048928D02*
X263463271Y24144166D01*
X263463271Y24144166D02*
X263415652Y24191785D01*
X263415652Y24191785D02*
X263320414Y24239404D01*
X263320414Y24239404D02*
X263272795Y24239404D01*
X263272795Y24239404D02*
X263177557Y24191785D01*
X263177557Y24191785D02*
X263129938Y24144166D01*
X263129938Y24144166D02*
X263082319Y24048928D01*
X263082319Y24048928D02*
X263082319Y23858452D01*
X263082319Y23858452D02*
X263129938Y23763214D01*
X263129938Y23763214D02*
X263177557Y23715595D01*
X263177557Y23715595D02*
X263272795Y23667976D01*
X263272795Y23667976D02*
X263320414Y23667976D01*
X263320414Y23667976D02*
X263415652Y23715595D01*
X263415652Y23715595D02*
X263463271Y23763214D01*
X263463271Y23763214D02*
X263510890Y23858452D01*
X263510890Y23858452D02*
X263510890Y24048928D01*
X263510890Y24048928D02*
X263558509Y24144166D01*
X263558509Y24144166D02*
X263606128Y24191785D01*
X263606128Y24191785D02*
X263701366Y24239404D01*
X263701366Y24239404D02*
X263891842Y24239404D01*
X263891842Y24239404D02*
X263987080Y24191785D01*
X263987080Y24191785D02*
X264034700Y24144166D01*
X264034700Y24144166D02*
X264082319Y24048928D01*
X264082319Y24048928D02*
X264082319Y23858452D01*
X264082319Y23858452D02*
X264034700Y23763214D01*
X264034700Y23763214D02*
X263987080Y23715595D01*
X263987080Y23715595D02*
X263891842Y23667976D01*
X263891842Y23667976D02*
X263701366Y23667976D01*
X263701366Y23667976D02*
X263606128Y23715595D01*
X263606128Y23715595D02*
X263558509Y23763214D01*
X263558509Y23763214D02*
X263510890Y23858452D01*
X263082319Y23048928D02*
X263082319Y22953690D01*
X263082319Y22953690D02*
X263129938Y22858452D01*
X263129938Y22858452D02*
X263177557Y22810833D01*
X263177557Y22810833D02*
X263272795Y22763214D01*
X263272795Y22763214D02*
X263463271Y22715595D01*
X263463271Y22715595D02*
X263701366Y22715595D01*
X263701366Y22715595D02*
X263891842Y22763214D01*
X263891842Y22763214D02*
X263987080Y22810833D01*
X263987080Y22810833D02*
X264034700Y22858452D01*
X264034700Y22858452D02*
X264082319Y22953690D01*
X264082319Y22953690D02*
X264082319Y23048928D01*
X264082319Y23048928D02*
X264034700Y23144166D01*
X264034700Y23144166D02*
X263987080Y23191785D01*
X263987080Y23191785D02*
X263891842Y23239404D01*
X263891842Y23239404D02*
X263701366Y23287023D01*
X263701366Y23287023D02*
X263463271Y23287023D01*
X263463271Y23287023D02*
X263272795Y23239404D01*
X263272795Y23239404D02*
X263177557Y23191785D01*
X263177557Y23191785D02*
X263129938Y23144166D01*
X263129938Y23144166D02*
X263082319Y23048928D01*
X202169819Y63291785D02*
X201169819Y63291785D01*
X201169819Y63291785D02*
X201169819Y63053690D01*
X201169819Y63053690D02*
X201217438Y62910833D01*
X201217438Y62910833D02*
X201312676Y62815595D01*
X201312676Y62815595D02*
X201407914Y62767976D01*
X201407914Y62767976D02*
X201598390Y62720357D01*
X201598390Y62720357D02*
X201741247Y62720357D01*
X201741247Y62720357D02*
X201931723Y62767976D01*
X201931723Y62767976D02*
X202026961Y62815595D01*
X202026961Y62815595D02*
X202122200Y62910833D01*
X202122200Y62910833D02*
X202169819Y63053690D01*
X202169819Y63053690D02*
X202169819Y63291785D01*
X201169819Y61815595D02*
X201169819Y62291785D01*
X201169819Y62291785D02*
X201646009Y62339404D01*
X201646009Y62339404D02*
X201598390Y62291785D01*
X201598390Y62291785D02*
X201550771Y62196547D01*
X201550771Y62196547D02*
X201550771Y61958452D01*
X201550771Y61958452D02*
X201598390Y61863214D01*
X201598390Y61863214D02*
X201646009Y61815595D01*
X201646009Y61815595D02*
X201741247Y61767976D01*
X201741247Y61767976D02*
X201979342Y61767976D01*
X201979342Y61767976D02*
X202074580Y61815595D01*
X202074580Y61815595D02*
X202122200Y61863214D01*
X202122200Y61863214D02*
X202169819Y61958452D01*
X202169819Y61958452D02*
X202169819Y62196547D01*
X202169819Y62196547D02*
X202122200Y62291785D01*
X202122200Y62291785D02*
X202074580Y62339404D01*
X201503152Y60910833D02*
X202169819Y60910833D01*
X201122200Y61148928D02*
X201836485Y61387023D01*
X201836485Y61387023D02*
X201836485Y60767976D01*
%TO.C,D55*%
D12*
X217765000Y59717500D02*
X217765000Y63727500D01*
X219765000Y59717500D02*
X217765000Y59717500D01*
X219765000Y59717500D02*
X219765000Y63727500D01*
%TO.C,D31*%
X336827500Y97817500D02*
X336827500Y101827500D01*
X338827500Y97817500D02*
X336827500Y97817500D01*
X338827500Y97817500D02*
X338827500Y101827500D01*
%TO.C,D7*%
X165377500Y121630000D02*
X165377500Y125640000D01*
X167377500Y121630000D02*
X165377500Y121630000D01*
X167377500Y121630000D02*
X167377500Y125640000D01*
%TO.C,D21*%
X127277500Y97817500D02*
X127277500Y101827500D01*
X129277500Y97817500D02*
X127277500Y97817500D01*
X129277500Y97817500D02*
X129277500Y101827500D01*
%TO.C,D51*%
X141565000Y59717500D02*
X141565000Y63727500D01*
X143565000Y59717500D02*
X141565000Y59717500D01*
X143565000Y59717500D02*
X143565000Y63727500D01*
%TO.C,D57*%
X255865000Y59717500D02*
X255865000Y63727500D01*
X257865000Y59717500D02*
X255865000Y59717500D01*
X257865000Y59717500D02*
X257865000Y63727500D01*
%TO.C,D52*%
X160615000Y59717500D02*
X160615000Y63727500D01*
X162615000Y59717500D02*
X160615000Y59717500D01*
X162615000Y59717500D02*
X162615000Y63727500D01*
%TO.C,D42*%
X251102500Y78767500D02*
X251102500Y82777500D01*
X253102500Y78767500D02*
X251102500Y78767500D01*
X253102500Y78767500D02*
X253102500Y82777500D01*
%TO.C,D81*%
X279677500Y21617500D02*
X279677500Y25627500D01*
X281677500Y21617500D02*
X279677500Y21617500D01*
X281677500Y21617500D02*
X281677500Y25627500D01*
%TO.C,D65*%
X151090000Y40667500D02*
X151090000Y44677500D01*
X153090000Y40667500D02*
X151090000Y40667500D01*
X153090000Y40667500D02*
X153090000Y44677500D01*
%TO.C,D26*%
X222527500Y97817500D02*
X222527500Y101827500D01*
X224527500Y97817500D02*
X222527500Y97817500D01*
X224527500Y97817500D02*
X224527500Y101827500D01*
%TO.C,D83*%
X317777500Y21617500D02*
X317777500Y25627500D01*
X319777500Y21617500D02*
X317777500Y21617500D01*
X319777500Y21617500D02*
X319777500Y25627500D01*
%TO.C,D33*%
X79652500Y78767500D02*
X79652500Y82777500D01*
X81652500Y78767500D02*
X79652500Y78767500D01*
X81652500Y78767500D02*
X81652500Y82777500D01*
%TO.C,D66*%
X170140000Y40667500D02*
X170140000Y44677500D01*
X172140000Y40667500D02*
X170140000Y40667500D01*
X172140000Y40667500D02*
X172140000Y44677500D01*
%TO.C,D24*%
X184427500Y97817500D02*
X184427500Y101827500D01*
X186427500Y97817500D02*
X184427500Y97817500D01*
X186427500Y97817500D02*
X186427500Y101827500D01*
%TO.C,D68*%
X208240000Y40667500D02*
X208240000Y44677500D01*
X210240000Y40667500D02*
X208240000Y40667500D01*
X210240000Y40667500D02*
X210240000Y44677500D01*
%TO.C,D18*%
X70127500Y97817500D02*
X70127500Y101827500D01*
X72127500Y97817500D02*
X70127500Y97817500D01*
X72127500Y97817500D02*
X72127500Y101827500D01*
%TO.C,D14*%
X298727500Y121630000D02*
X298727500Y125640000D01*
X300727500Y121630000D02*
X298727500Y121630000D01*
X300727500Y121630000D02*
X300727500Y125640000D01*
%TO.C,D67*%
X189190000Y40667500D02*
X189190000Y44677500D01*
X191190000Y40667500D02*
X189190000Y40667500D01*
X191190000Y40667500D02*
X191190000Y44677500D01*
%TO.C,D41*%
X232052500Y78767500D02*
X232052500Y82777500D01*
X234052500Y78767500D02*
X232052500Y78767500D01*
X234052500Y78767500D02*
X234052500Y82777500D01*
%TO.C,D6*%
X146327500Y121630000D02*
X146327500Y125640000D01*
X148327500Y121630000D02*
X146327500Y121630000D01*
X148327500Y121630000D02*
X148327500Y125640000D01*
%TO.C,D38*%
X174902500Y78767500D02*
X174902500Y82777500D01*
X176902500Y78767500D02*
X174902500Y78767500D01*
X176902500Y78767500D02*
X176902500Y82777500D01*
%TO.C,D71*%
X265390000Y40667500D02*
X265390000Y44677500D01*
X267390000Y40667500D02*
X265390000Y40667500D01*
X267390000Y40667500D02*
X267390000Y44677500D01*
%TO.C,D10*%
X222527500Y121630000D02*
X222527500Y125640000D01*
X224527500Y121630000D02*
X222527500Y121630000D01*
X224527500Y121630000D02*
X224527500Y125640000D01*
%TO.C,D4*%
X108227500Y121630000D02*
X108227500Y125640000D01*
X110227500Y121630000D02*
X108227500Y121630000D01*
X110227500Y121630000D02*
X110227500Y125640000D01*
%TO.C,D36*%
X136802500Y78767500D02*
X136802500Y82777500D01*
X138802500Y78767500D02*
X136802500Y78767500D01*
X138802500Y78767500D02*
X138802500Y82777500D01*
%TO.C,D79*%
X241577500Y21617500D02*
X241577500Y25627500D01*
X243577500Y21617500D02*
X241577500Y21617500D01*
X243577500Y21617500D02*
X243577500Y25627500D01*
%TO.C,D78*%
X172521250Y21617500D02*
X172521250Y25627500D01*
X174521250Y21617500D02*
X172521250Y21617500D01*
X174521250Y21617500D02*
X174521250Y25627500D01*
%TO.C,D1*%
X51077500Y121630000D02*
X51077500Y125640000D01*
X53077500Y121630000D02*
X51077500Y121630000D01*
X53077500Y121630000D02*
X53077500Y125640000D01*
%TO.C,D47*%
X58221250Y59717500D02*
X58221250Y63727500D01*
X60221250Y59717500D02*
X58221250Y59717500D01*
X60221250Y59717500D02*
X60221250Y63727500D01*
%TO.C,D19*%
X89177500Y97817500D02*
X89177500Y101827500D01*
X91177500Y97817500D02*
X89177500Y97817500D01*
X91177500Y97817500D02*
X91177500Y101827500D01*
%TO.C,D84*%
X336827500Y21617500D02*
X336827500Y25627500D01*
X338827500Y21617500D02*
X336827500Y21617500D01*
X338827500Y21617500D02*
X338827500Y25627500D01*
%TO.C,D28*%
X260627500Y97817500D02*
X260627500Y101827500D01*
X262627500Y97817500D02*
X260627500Y97817500D01*
X262627500Y97817500D02*
X262627500Y101827500D01*
%TO.C,D59*%
X305871250Y59717500D02*
X305871250Y63727500D01*
X307871250Y59717500D02*
X305871250Y59717500D01*
X307871250Y59717500D02*
X307871250Y63727500D01*
%TO.C,D53*%
X179665000Y59717500D02*
X179665000Y63727500D01*
X181665000Y59717500D02*
X179665000Y59717500D01*
X181665000Y59717500D02*
X181665000Y63727500D01*
%TO.C,D56*%
X236815000Y59717500D02*
X236815000Y63727500D01*
X238815000Y59717500D02*
X236815000Y59717500D01*
X238815000Y59717500D02*
X238815000Y63727500D01*
%TO.C,D30*%
X308252500Y97817500D02*
X308252500Y101827500D01*
X310252500Y97817500D02*
X308252500Y97817500D01*
X310252500Y97817500D02*
X310252500Y101827500D01*
%TO.C,D23*%
X165377500Y97817500D02*
X165377500Y101827500D01*
X167377500Y97817500D02*
X165377500Y97817500D01*
X167377500Y97817500D02*
X167377500Y101827500D01*
%TO.C,D73*%
X317777500Y40667500D02*
X317777500Y44677500D01*
X319777500Y40667500D02*
X317777500Y40667500D01*
X319777500Y40667500D02*
X319777500Y44677500D01*
%TO.C,D34*%
X98702500Y78767500D02*
X98702500Y82777500D01*
X100702500Y78767500D02*
X98702500Y78767500D01*
X100702500Y78767500D02*
X100702500Y82777500D01*
%TO.C,D72*%
X291583750Y40667500D02*
X291583750Y44677500D01*
X293583750Y40667500D02*
X291583750Y40667500D01*
X293583750Y40667500D02*
X293583750Y44677500D01*
%TO.C,D76*%
X77271250Y21617500D02*
X77271250Y25627500D01*
X79271250Y21617500D02*
X77271250Y21617500D01*
X79271250Y21617500D02*
X79271250Y25627500D01*
%TO.C,D46*%
X336827500Y78767500D02*
X336827500Y82777500D01*
X338827500Y78767500D02*
X336827500Y78767500D01*
X338827500Y78767500D02*
X338827500Y82777500D01*
%TO.C,D64*%
X132040000Y40667500D02*
X132040000Y44677500D01*
X134040000Y40667500D02*
X132040000Y40667500D01*
X134040000Y40667500D02*
X134040000Y44677500D01*
%TO.C,D60*%
X336827500Y59717500D02*
X336827500Y63727500D01*
X338827500Y59717500D02*
X336827500Y59717500D01*
X338827500Y59717500D02*
X338827500Y63727500D01*
%TO.C,D63*%
X112990000Y40667500D02*
X112990000Y44677500D01*
X114990000Y40667500D02*
X112990000Y40667500D01*
X114990000Y40667500D02*
X114990000Y44677500D01*
%TO.C,D39*%
X193952500Y78767500D02*
X193952500Y82777500D01*
X195952500Y78767500D02*
X193952500Y78767500D01*
X195952500Y78767500D02*
X195952500Y82777500D01*
%TO.C,D2*%
X70127500Y121630000D02*
X70127500Y125640000D01*
X72127500Y121630000D02*
X70127500Y121630000D01*
X72127500Y121630000D02*
X72127500Y125640000D01*
%TO.C,D27*%
X241577500Y97817500D02*
X241577500Y101827500D01*
X243577500Y97817500D02*
X241577500Y97817500D01*
X243577500Y97817500D02*
X243577500Y101827500D01*
%TO.C,D8*%
X184427500Y121630000D02*
X184427500Y125640000D01*
X186427500Y121630000D02*
X184427500Y121630000D01*
X186427500Y121630000D02*
X186427500Y125640000D01*
%TO.C,D70*%
X246340000Y40667500D02*
X246340000Y44677500D01*
X248340000Y40667500D02*
X246340000Y40667500D01*
X248340000Y40667500D02*
X248340000Y44677500D01*
%TO.C,D5*%
X127277500Y121630000D02*
X127277500Y125640000D01*
X129277500Y121630000D02*
X127277500Y121630000D01*
X129277500Y121630000D02*
X129277500Y125640000D01*
%TO.C,D11*%
X241577500Y121630000D02*
X241577500Y125640000D01*
X243577500Y121630000D02*
X241577500Y121630000D01*
X243577500Y121630000D02*
X243577500Y125640000D01*
%TO.C,D37*%
X155852500Y78767500D02*
X155852500Y82777500D01*
X157852500Y78767500D02*
X155852500Y78767500D01*
X157852500Y78767500D02*
X157852500Y82777500D01*
%TO.C,D29*%
X279677500Y97817500D02*
X279677500Y101827500D01*
X281677500Y97817500D02*
X279677500Y97817500D01*
X281677500Y97817500D02*
X281677500Y101827500D01*
%TO.C,D69*%
X227290000Y40667500D02*
X227290000Y44677500D01*
X229290000Y40667500D02*
X227290000Y40667500D01*
X229290000Y40667500D02*
X229290000Y44677500D01*
%TO.C,D3*%
X89177500Y121630000D02*
X89177500Y125640000D01*
X91177500Y121630000D02*
X89177500Y121630000D01*
X91177500Y121630000D02*
X91177500Y125640000D01*
%TO.C,D22*%
X146327500Y97817500D02*
X146327500Y101827500D01*
X148327500Y97817500D02*
X146327500Y97817500D01*
X148327500Y97817500D02*
X148327500Y101827500D01*
%TO.C,D58*%
X274915000Y59717500D02*
X274915000Y63727500D01*
X276915000Y59717500D02*
X274915000Y59717500D01*
X276915000Y59717500D02*
X276915000Y63727500D01*
%TO.C,D82*%
X298727500Y21617500D02*
X298727500Y25627500D01*
X300727500Y21617500D02*
X298727500Y21617500D01*
X300727500Y21617500D02*
X300727500Y25627500D01*
%TO.C,D49*%
X103465000Y59717500D02*
X103465000Y63727500D01*
X105465000Y59717500D02*
X103465000Y59717500D01*
X105465000Y59717500D02*
X105465000Y63727500D01*
%TO.C,D45*%
X313015000Y78767500D02*
X313015000Y82777500D01*
X315015000Y78767500D02*
X313015000Y78767500D01*
X315015000Y78767500D02*
X315015000Y82777500D01*
%TO.C,D9*%
X203477500Y121630000D02*
X203477500Y125640000D01*
X205477500Y121630000D02*
X203477500Y121630000D01*
X205477500Y121630000D02*
X205477500Y125640000D01*
%TO.C,D15*%
X317777500Y121630000D02*
X317777500Y125640000D01*
X319777500Y121630000D02*
X317777500Y121630000D01*
X319777500Y121630000D02*
X319777500Y125640000D01*
%TO.C,D74*%
X336827500Y40667500D02*
X336827500Y44677500D01*
X338827500Y40667500D02*
X336827500Y40667500D01*
X338827500Y40667500D02*
X338827500Y44677500D01*
%TO.C,D50*%
X122515000Y59717500D02*
X122515000Y63727500D01*
X124515000Y59717500D02*
X122515000Y59717500D01*
X124515000Y59717500D02*
X124515000Y63727500D01*
%TO.C,D61*%
X62983750Y40667500D02*
X62983750Y44677500D01*
X64983750Y40667500D02*
X62983750Y40667500D01*
X64983750Y40667500D02*
X64983750Y44677500D01*
%TO.C,D43*%
X270152500Y78767500D02*
X270152500Y82777500D01*
X272152500Y78767500D02*
X270152500Y78767500D01*
X272152500Y78767500D02*
X272152500Y82777500D01*
%TO.C,D62*%
X93940000Y40667500D02*
X93940000Y44677500D01*
X95940000Y40667500D02*
X93940000Y40667500D01*
X95940000Y40667500D02*
X95940000Y44677500D01*
%TO.C,D48*%
X84415000Y59717500D02*
X84415000Y63727500D01*
X86415000Y59717500D02*
X84415000Y59717500D01*
X86415000Y59717500D02*
X86415000Y63727500D01*
%TO.C,D44*%
X289202500Y78767500D02*
X289202500Y82777500D01*
X291202500Y78767500D02*
X289202500Y78767500D01*
X291202500Y78767500D02*
X291202500Y82777500D01*
%TO.C,D40*%
X213002500Y78767500D02*
X213002500Y82777500D01*
X215002500Y78767500D02*
X213002500Y78767500D01*
X215002500Y78767500D02*
X215002500Y82777500D01*
%TO.C,D35*%
X117752500Y78767500D02*
X117752500Y82777500D01*
X119752500Y78767500D02*
X117752500Y78767500D01*
X119752500Y78767500D02*
X119752500Y82777500D01*
%TO.C,D32*%
X55840000Y78767500D02*
X55840000Y82777500D01*
X57840000Y78767500D02*
X55840000Y78767500D01*
X57840000Y78767500D02*
X57840000Y82777500D01*
%TO.C,D20*%
X108227500Y97817500D02*
X108227500Y101827500D01*
X110227500Y97817500D02*
X108227500Y97817500D01*
X110227500Y97817500D02*
X110227500Y101827500D01*
%TO.C,D17*%
X51077500Y97817500D02*
X51077500Y101827500D01*
X53077500Y97817500D02*
X51077500Y97817500D01*
X53077500Y97817500D02*
X53077500Y101827500D01*
%TO.C,D13*%
X279677500Y121630000D02*
X279677500Y125640000D01*
X281677500Y121630000D02*
X279677500Y121630000D01*
X281677500Y121630000D02*
X281677500Y125640000D01*
%TO.C,D16*%
X336827500Y121630000D02*
X336827500Y125640000D01*
X338827500Y121630000D02*
X336827500Y121630000D01*
X338827500Y121630000D02*
X338827500Y125640000D01*
%TO.C,D25*%
X203477500Y97817500D02*
X203477500Y101827500D01*
X205477500Y97817500D02*
X203477500Y97817500D01*
X205477500Y97817500D02*
X205477500Y101827500D01*
%TO.C,D75*%
X53458750Y21617500D02*
X53458750Y25627500D01*
X55458750Y21617500D02*
X53458750Y21617500D01*
X55458750Y21617500D02*
X55458750Y25627500D01*
%TO.C,D12*%
X260627500Y121630000D02*
X260627500Y125640000D01*
X262627500Y121630000D02*
X260627500Y121630000D01*
X262627500Y121630000D02*
X262627500Y125640000D01*
%TO.C,D77*%
X101083750Y21617500D02*
X101083750Y25627500D01*
X103083750Y21617500D02*
X101083750Y21617500D01*
X103083750Y21617500D02*
X103083750Y25627500D01*
%TO.C,D80*%
X260627500Y21617500D02*
X260627500Y25627500D01*
X262627500Y21617500D02*
X260627500Y21617500D01*
X262627500Y21617500D02*
X262627500Y25627500D01*
%TO.C,D54*%
X198715000Y59717500D02*
X198715000Y63727500D01*
X200715000Y59717500D02*
X198715000Y59717500D01*
X200715000Y59717500D02*
X200715000Y63727500D01*
%TD*%
M02*
