%TF.GenerationSoftware,KiCad,Pcbnew,10.0.1*%
%TF.CreationDate,2026-09-07T17:09:02+03:00*%
%TF.ProjectId,mariboard,6d617269-626f-4617-9264-2e6b69636164,rev?*%
%TF.SameCoordinates,Original*%
%TF.FileFunction,Profile,NP*%
%FSLAX46Y46*%
G04 Gerber Fmt 4.6, Leading zero omitted, Abs format (unit mm)*
G04 Created by KiCad (PCBNEW 10.0.1) date 2026-09-07 17:09:02*
%MOMM*%
%LPD*%
G01*
G04 APERTURE LIST*
%TA.AperFunction,Profile*%
%ADD10C,0.100000*%
%TD*%
%TA.AperFunction,Profile*%
%ADD11C,0.050000*%
%TD*%
G04 APERTURE END LIST*
D10*
X529425700Y86917298D02*
X543425000Y86917298D01*
X533900000Y129778898D02*
X533900000Y115778898D01*
X541043800Y15766548D02*
X527043000Y15766548D01*
X533306200Y35046698D02*
X535031400Y35046698D01*
X535031400Y41316798D02*
X535856900Y41316798D01*
X530005800Y35046698D02*
X530005800Y33846398D01*
X543425000Y72916598D02*
X529425700Y72916598D01*
X543425000Y86917298D02*
X543425000Y72916598D01*
X541043800Y29767398D02*
X541043800Y15766548D01*
X538950700Y91966598D02*
X538950700Y105967298D01*
X538950700Y105967298D02*
X552950000Y105967298D01*
X538950700Y115778898D02*
X538950700Y129778898D01*
X535031400Y44116898D02*
X535031400Y47347098D01*
X538950700Y129778898D02*
X552950000Y129778898D01*
X535856900Y41316798D02*
X535856900Y44116898D01*
X535856900Y44116898D02*
X535031400Y44116898D01*
X535031400Y35046698D02*
X535031400Y41316798D01*
X535031400Y47347098D02*
X528281900Y47347098D01*
X533900000Y91966598D02*
X519900700Y91966598D01*
X528281900Y44116898D02*
X526756400Y44116898D01*
X533306200Y33846398D02*
X533306200Y35046698D01*
X533900000Y105967298D02*
X533900000Y91966598D01*
X533900000Y115778898D02*
X519900700Y115778898D01*
X527043000Y29767398D02*
X541043800Y29767398D01*
X526756400Y39516998D02*
X528281900Y39516998D01*
X526756400Y44116898D02*
X526756400Y48817298D01*
X530005800Y33846398D02*
X533306200Y33846398D01*
X519900700Y115778898D02*
X519900700Y129778898D01*
X534188200Y53866598D02*
X534188200Y67867298D01*
X528281900Y35046698D02*
X530005800Y35046698D01*
X526756400Y48817298D02*
X512756900Y48817298D01*
X506207090Y33846398D02*
X509506100Y33846398D01*
X512756900Y44116898D02*
X511231400Y44116898D01*
X511231400Y39516998D02*
X512756900Y39516998D01*
X521993900Y67867298D02*
X521993900Y53866598D01*
X517231400Y29767398D02*
X517231400Y15766548D01*
X506207090Y35046698D02*
X506207090Y33846398D01*
X534188200Y67867298D02*
X548187500Y67867298D01*
X529425700Y72916598D02*
X529425700Y86917298D01*
X509506100Y35046698D02*
X511231400Y35046698D01*
X526756400Y34816498D02*
X526756400Y39516998D01*
X514850200Y91966598D02*
X500850650Y91966598D01*
X519900700Y91966598D02*
X519900700Y105967298D01*
X512756900Y48817298D02*
X512756900Y44116898D01*
X512756900Y34816498D02*
X526756400Y34816498D01*
X528281900Y39516998D02*
X528281900Y35046698D01*
X519900700Y129778898D02*
X533900000Y129778898D01*
X507993030Y53866598D02*
X507993030Y67867298D01*
X519612700Y86917298D02*
X519612700Y72916598D01*
X517231400Y15766548D02*
X503231910Y15766548D01*
X511231400Y35046698D02*
X511231400Y39516998D01*
X528281900Y47347098D02*
X528281900Y44116898D01*
X519612700Y72916598D02*
X505613160Y72916598D01*
X514850200Y105967298D02*
X514850200Y91966598D01*
X519900700Y105967298D02*
X533900000Y105967298D01*
X512756900Y39516998D02*
X512756900Y34816498D01*
X514850200Y115778898D02*
X500850650Y115778898D01*
X509506100Y33846398D02*
X509506100Y35046698D01*
X527043000Y15766548D02*
X527043000Y29767398D01*
X511231400Y44116898D02*
X511231400Y47347098D01*
X511231400Y47347098D02*
X504481800Y47347098D01*
X514850200Y129778898D02*
X514850200Y115778898D01*
X507993030Y67867298D02*
X521993900Y67867298D01*
X521993900Y53866598D02*
X507993030Y53866598D01*
X800600000Y34816498D02*
X786601000Y34816498D01*
X800600000Y29767398D02*
X800600000Y15766548D01*
X800600000Y15766548D02*
X786601000Y15766548D01*
X800600000Y72916598D02*
X786601000Y72916598D01*
D11*
X868058148Y5172859D02*
X493558148Y5017859D01*
X868058148Y153767859D02*
G75*
G02*
X872153059Y149672859I-48J-4094959D01*
G01*
D10*
X800600000Y53866598D02*
X786601000Y53866598D01*
D11*
X822750000Y74181898D02*
X857500000Y74181898D01*
X857500000Y61931898D01*
X822750000Y61931898D01*
X822750000Y74181898D01*
D10*
X800600000Y48817298D02*
X800600000Y34816498D01*
D11*
X872153148Y149672859D02*
X872153148Y9267859D01*
D10*
X800600000Y67867298D02*
X800600000Y53866598D01*
X800600000Y91966598D02*
X786601000Y91966598D01*
X800600000Y86917298D02*
X800600000Y72916598D01*
D11*
X851750000Y127931898D02*
X860500000Y127931898D01*
X860500000Y120931898D01*
X851750000Y120931898D01*
X851750000Y127931898D01*
X872153148Y9267859D02*
G75*
G02*
X868058148Y5172852I-4095048J41D01*
G01*
D10*
X776788000Y72916598D02*
X762788000Y72916598D01*
X773551000Y101266898D02*
X772025000Y101266898D01*
X781550000Y48817298D02*
X781550000Y34816498D01*
X781550000Y34816498D02*
X767551000Y34816498D01*
X780300000Y98466898D02*
X781126000Y98466898D01*
X780300000Y92196698D02*
X780300000Y98466898D01*
X778743000Y63166898D02*
X777919000Y63166898D01*
X786601000Y91966598D02*
X786601000Y105967298D01*
X800600000Y105967298D02*
X800600000Y91966598D01*
X786601000Y86917298D02*
X800600000Y86917298D01*
X786601000Y72916598D02*
X786601000Y86917298D01*
X786601000Y29767398D02*
X800600000Y29767398D01*
X781126000Y101266898D02*
X780300000Y101266898D01*
X781550000Y15766548D02*
X767551000Y15766548D01*
X781550000Y129778898D02*
X781550000Y115778898D01*
X771168000Y54096698D02*
X772893000Y54096698D01*
X786601000Y115778898D02*
X786601000Y129778898D01*
X800600000Y115778898D02*
X786601000Y115778898D01*
X786601000Y15766548D02*
X786601000Y29767398D01*
X786601000Y105967298D02*
X800600000Y105967298D01*
X781550000Y29767398D02*
X781550000Y15766548D01*
X800600000Y129778898D02*
X800600000Y115778898D01*
X786601000Y48817298D02*
X800600000Y48817298D01*
X786601000Y67867298D02*
X800600000Y67867298D01*
X780300000Y101266898D02*
X780300000Y104496998D01*
X772025000Y91966598D02*
X772025000Y96667098D01*
X777919000Y60366898D02*
X778743000Y60366898D01*
X786601000Y34816498D02*
X786601000Y48817298D01*
X781550000Y115778898D02*
X767551000Y115778898D01*
X773551000Y104496998D02*
X773551000Y101266898D01*
X776194000Y54096698D02*
X777919000Y54096698D01*
X786601000Y53866598D02*
X786601000Y67867298D01*
X776194000Y52896498D02*
X776194000Y54096698D01*
X777919000Y66396998D02*
X771168000Y66396998D01*
X769644000Y58567098D02*
X771168000Y58567098D01*
X772893000Y54096698D02*
X772893000Y52896498D01*
X776788000Y86917298D02*
X776788000Y72916598D01*
X775276000Y90996498D02*
X778575000Y90996498D01*
X777919000Y54096698D02*
X777919000Y60366898D01*
X773551000Y92196698D02*
X775276000Y92196698D01*
X771168000Y66396998D02*
X771168000Y63166898D01*
X778575000Y92196698D02*
X780300000Y92196698D01*
X772893000Y52896498D02*
X776194000Y52896498D01*
X769644000Y53866598D02*
X769644000Y58567098D01*
X769644000Y63166898D02*
X769644000Y67867298D01*
X778743000Y60366898D02*
X778743000Y63166898D01*
X778575000Y90996498D02*
X778575000Y92196698D01*
X772025000Y101266898D02*
X772025000Y105967298D01*
X772025000Y105967298D02*
X758026000Y105967298D01*
X771168000Y58567098D02*
X771168000Y54096698D01*
X772025000Y96667098D02*
X773551000Y96667098D01*
X773551000Y96667098D02*
X773551000Y92196698D01*
X769644000Y67867298D02*
X755643000Y67867298D01*
X777919000Y63166898D02*
X777919000Y66396998D01*
X786601000Y129778898D02*
X800600000Y129778898D01*
X781126000Y98466898D02*
X781126000Y101266898D01*
X775276000Y92196698D02*
X775276000Y90996498D01*
X771168000Y63166898D02*
X769644000Y63166898D01*
X780300000Y104496998D02*
X773551000Y104496998D01*
X756500000Y96667098D02*
X758026000Y96667098D01*
X755643000Y53866598D02*
X769644000Y53866598D01*
X767551000Y29767398D02*
X781550000Y29767398D01*
X767551000Y129778898D02*
X781550000Y129778898D01*
X758026000Y105967298D02*
X758026000Y101266898D01*
X767551000Y115778898D02*
X767551000Y129778898D01*
X767551000Y15766548D02*
X767551000Y29767398D01*
X767551000Y34816498D02*
X767551000Y48817298D01*
X767551000Y48817298D02*
X781550000Y48817298D01*
X762788000Y72916598D02*
X762788000Y86917298D01*
X762788000Y86917298D02*
X776788000Y86917298D01*
X762500000Y15766548D02*
X748501000Y15766548D01*
X762500000Y29767398D02*
X762500000Y15766548D01*
X756500000Y101266898D02*
X756500000Y104496998D01*
X756500000Y104496998D02*
X749751000Y104496998D01*
X758026000Y96667098D02*
X758026000Y91966598D01*
X758026000Y91966598D02*
X772025000Y91966598D01*
X751474000Y92196698D02*
X751474000Y90996498D01*
X752975000Y86917298D02*
X752975000Y72916598D01*
X749093000Y54096698D02*
X749093000Y52896498D01*
X749751000Y92196698D02*
X751474000Y92196698D01*
X754775000Y92196698D02*
X756500000Y92196698D01*
X743450000Y129778898D02*
X743450000Y115778898D01*
X754119000Y66396998D02*
X747368000Y66396998D01*
X749751000Y104496998D02*
X749751000Y101266898D01*
X748501000Y15766548D02*
X748501000Y29767398D01*
X755643000Y58567098D02*
X755643000Y53866598D01*
X748501000Y129778898D02*
X762500000Y129778898D01*
X743450000Y15766548D02*
X729451000Y15766548D01*
X752392000Y52896498D02*
X752392000Y54096698D01*
X749751000Y98466898D02*
X749751000Y92196698D01*
X754119000Y54096698D02*
X754119000Y58567098D01*
X749093000Y52896498D02*
X752392000Y52896498D01*
X748925000Y98466898D02*
X749751000Y98466898D01*
X752392000Y54096698D02*
X754119000Y54096698D01*
X756500000Y92196698D02*
X756500000Y96667098D01*
X749751000Y101266898D02*
X748925000Y101266898D01*
X746544000Y60366898D02*
X747368000Y60366898D01*
X747368000Y66396998D02*
X747368000Y63166898D01*
X747368000Y54096698D02*
X749093000Y54096698D01*
X755356000Y34816498D02*
X741357000Y34816498D01*
X752975000Y72916598D02*
X738976000Y72916598D01*
X743450000Y115778898D02*
X729451000Y115778898D01*
X743450000Y29767398D02*
X743450000Y15766548D01*
X741357000Y34816498D02*
X741357000Y48817298D01*
X743450000Y105967298D02*
X743450000Y91966598D01*
X758026000Y101266898D02*
X756500000Y101266898D01*
X748501000Y115778898D02*
X748501000Y129778898D01*
X762500000Y129778898D02*
X762500000Y115778898D01*
X747368000Y63166898D02*
X746544000Y63166898D01*
X748501000Y29767398D02*
X762500000Y29767398D01*
X755643000Y63166898D02*
X754119000Y63166898D01*
X754119000Y58567098D02*
X755643000Y58567098D01*
X751474000Y90996498D02*
X754775000Y90996498D01*
X762500000Y115778898D02*
X748501000Y115778898D01*
X755356000Y48817298D02*
X755356000Y34816498D01*
X755643000Y67867298D02*
X755643000Y63166898D01*
X747368000Y60366898D02*
X747368000Y54096698D01*
X754775000Y90996498D02*
X754775000Y92196698D01*
X754119000Y63166898D02*
X754119000Y66396998D01*
X746544000Y63166898D02*
X746544000Y60366898D01*
X743450000Y91966598D02*
X729451000Y91966598D01*
X748925000Y101266898D02*
X748925000Y98466898D01*
X741357000Y48817298D02*
X755356000Y48817298D01*
X738976000Y86917298D02*
X752975000Y86917298D01*
X738976000Y72916598D02*
X738976000Y86917298D01*
X738688000Y67867298D02*
X738688000Y53866598D01*
X738688000Y53866598D02*
X724688000Y53866598D01*
X724688000Y67867298D02*
X738688000Y67867298D01*
X733925000Y72916598D02*
X719926000Y72916598D01*
X729163000Y34816498D02*
X715163000Y34816498D01*
X733925000Y86917298D02*
X733925000Y72916598D01*
X729163000Y48817298D02*
X729163000Y34816498D01*
X729451000Y15766548D02*
X729451000Y29767398D01*
X729451000Y91966598D02*
X729451000Y105967298D01*
X729451000Y29767398D02*
X743450000Y29767398D01*
X729451000Y105967298D02*
X743450000Y105967298D01*
X729451000Y115778898D02*
X729451000Y129778898D01*
X729451000Y129778898D02*
X743450000Y129778898D01*
X724688000Y53866598D02*
X724688000Y67867298D01*
X724400000Y105967298D02*
X724400000Y91966598D01*
X719926000Y86917298D02*
X733925000Y86917298D01*
X719638000Y53866598D02*
X705638000Y53866598D01*
X719638000Y67867298D02*
X719638000Y53866598D01*
X714875000Y72916598D02*
X700876000Y72916598D01*
X696113000Y34816498D02*
X696113000Y48817298D01*
X705350000Y115778898D02*
X691351000Y115778898D01*
X691351000Y115778898D02*
X691351000Y129778898D01*
X700588000Y67867298D02*
X700588000Y53866598D01*
X714875000Y86917298D02*
X714875000Y72916598D01*
X724400000Y91966598D02*
X710401000Y91966598D01*
X705350000Y105967298D02*
X705350000Y91966598D01*
X710401000Y105967298D02*
X724400000Y105967298D01*
X705638000Y67867298D02*
X719638000Y67867298D01*
X696113000Y48817298D02*
X710113000Y48817298D01*
X691351000Y105967298D02*
X705350000Y105967298D01*
X710113000Y34816498D02*
X696113000Y34816498D01*
X691351000Y29767398D02*
X705350000Y29767398D01*
X710401000Y29767398D02*
X724400000Y29767398D01*
X700876000Y86917298D02*
X714875000Y86917298D01*
X700876000Y72916598D02*
X700876000Y86917298D01*
X710401000Y91966598D02*
X710401000Y105967298D01*
X715163000Y48817298D02*
X729163000Y48817298D01*
X710113000Y48817298D02*
X710113000Y34816498D01*
X705350000Y129778898D02*
X705350000Y115778898D01*
X700588000Y53866598D02*
X686588000Y53866598D01*
X691351000Y15766548D02*
X691351000Y29767398D01*
X705638000Y53866598D02*
X705638000Y67867298D01*
X686588000Y53866598D02*
X686588000Y67867298D01*
X695825000Y86917298D02*
X695825000Y72916598D01*
X705350000Y29767398D02*
X705350000Y15766548D01*
X724400000Y115778898D02*
X710401000Y115778898D01*
X691063000Y34816498D02*
X677063000Y34816498D01*
X724400000Y15766548D02*
X710401000Y15766548D01*
X710401000Y129778898D02*
X724400000Y129778898D01*
X724400000Y29767398D02*
X724400000Y15766548D01*
X719926000Y72916598D02*
X719926000Y86917298D01*
X695825000Y72916598D02*
X681826000Y72916598D01*
X710401000Y15766548D02*
X710401000Y29767398D01*
X715163000Y34816498D02*
X715163000Y48817298D01*
X705350000Y91966598D02*
X691351000Y91966598D01*
X705350000Y15766548D02*
X691351000Y15766548D01*
X691351000Y91966598D02*
X691351000Y105967298D01*
X691063000Y48817298D02*
X691063000Y34816498D01*
X710401000Y115778898D02*
X710401000Y129778898D01*
X691351000Y129778898D02*
X705350000Y129778898D01*
X724400000Y129778898D02*
X724400000Y115778898D01*
X682669000Y22266748D02*
X683493000Y22266748D01*
X686588000Y67867298D02*
X700588000Y67867298D01*
X677063000Y34816498D02*
X677063000Y48817298D01*
X686300000Y91966598D02*
X672301000Y91966598D01*
X682669000Y25066898D02*
X682669000Y28297098D01*
X682669000Y15996678D02*
X682669000Y22266748D01*
X686300000Y115778898D02*
X672301000Y115778898D01*
X682669000Y28297098D02*
X675918000Y28297098D01*
X686300000Y105967298D02*
X686300000Y91966598D01*
X677643000Y14796408D02*
X680944000Y14796408D01*
X686300000Y129778898D02*
X686300000Y115778898D01*
X683493000Y22266748D02*
X683493000Y25066898D01*
X683493000Y25066898D02*
X682669000Y25066898D01*
X680944000Y15996678D02*
X682669000Y15996678D01*
X681826000Y72916598D02*
X681826000Y86917298D01*
X681826000Y86917298D02*
X695825000Y86917298D01*
X677643000Y15996678D02*
X677643000Y14796408D01*
X681538000Y67867298D02*
X681538000Y53866598D01*
X680944000Y14796408D02*
X680944000Y15996678D01*
X675918000Y15996678D02*
X677643000Y15996678D01*
X667538000Y53866598D02*
X667538000Y67867298D01*
X667538000Y67867298D02*
X681538000Y67867298D01*
X667250000Y105967298D02*
X667250000Y91966598D01*
X675918000Y25066898D02*
X636294000Y25066898D01*
X675918000Y20467018D02*
X675918000Y15996678D01*
X643726000Y86917298D02*
X657725000Y86917298D01*
X658013000Y34816498D02*
X658013000Y48817298D01*
X667250000Y91966598D02*
X653251000Y91966598D01*
X657725000Y86917298D02*
X657725000Y72916598D01*
X648200000Y105967298D02*
X648200000Y91966598D01*
X677063000Y48817298D02*
X691063000Y48817298D01*
X657725000Y72916598D02*
X643726000Y72916598D01*
X648200000Y115778898D02*
X634201000Y115778898D01*
X662776000Y72916598D02*
X662776000Y86917298D01*
X675918000Y28297098D02*
X675918000Y25066898D01*
X672013000Y48817298D02*
X672013000Y34816498D01*
X672301000Y129778898D02*
X686300000Y129778898D01*
X643438000Y67867298D02*
X643438000Y53866598D01*
X653251000Y91966598D02*
X653251000Y105967298D01*
X652963000Y34816498D02*
X638963000Y34816498D01*
X658013000Y48817298D02*
X672013000Y48817298D01*
X643438000Y53866598D02*
X629438000Y53866598D01*
X653251000Y115778898D02*
X653251000Y129778898D01*
X667250000Y115778898D02*
X653251000Y115778898D01*
X667250000Y129778898D02*
X667250000Y115778898D01*
X653251000Y105967298D02*
X667250000Y105967298D01*
X672013000Y34816498D02*
X658013000Y34816498D01*
X662488000Y67867298D02*
X662488000Y53866598D01*
X629150000Y91966598D02*
X615149000Y91966598D01*
X648488000Y67867298D02*
X662488000Y67867298D01*
X681538000Y53866598D02*
X667538000Y53866598D01*
X672301000Y105967298D02*
X686300000Y105967298D01*
X652963000Y48817298D02*
X652963000Y34816498D01*
X672301000Y115778898D02*
X672301000Y129778898D01*
X653251000Y129778898D02*
X667250000Y129778898D01*
X662776000Y86917298D02*
X676775000Y86917298D01*
X676775000Y86917298D02*
X676775000Y72916598D01*
X648200000Y129778898D02*
X648200000Y115778898D01*
X648488000Y53866598D02*
X648488000Y67867298D01*
X672301000Y91966598D02*
X672301000Y105967298D01*
X662488000Y53866598D02*
X648488000Y53866598D01*
X676775000Y72916598D02*
X662776000Y72916598D01*
X648200000Y91966598D02*
X634201000Y91966598D01*
X643726000Y72916598D02*
X643726000Y86917298D01*
X638963000Y34816498D02*
X638963000Y48817298D01*
X638963000Y48817298D02*
X652963000Y48817298D01*
X638675000Y72916598D02*
X624676000Y72916598D01*
X638675000Y86917298D02*
X638675000Y72916598D01*
X636294000Y15766548D02*
X636294000Y20467018D01*
X633913000Y48817298D02*
X633913000Y34816498D01*
X629438000Y67867298D02*
X643438000Y67867298D01*
X636294000Y20467018D02*
X675918000Y20467018D01*
X629150000Y115778898D02*
X615149000Y115778898D01*
X636294000Y25066898D02*
X636294000Y29767398D01*
X636294000Y29767398D02*
X622293000Y29767398D01*
X633913000Y34816498D02*
X619913000Y34816498D01*
X634201000Y91966598D02*
X634201000Y105967298D01*
X634201000Y105967298D02*
X648200000Y105967298D01*
X634201000Y115778898D02*
X634201000Y129778898D01*
X629438000Y53866598D02*
X629438000Y67867298D01*
X629150000Y105967298D02*
X629150000Y91966598D01*
X622293000Y15766548D02*
X636294000Y15766548D01*
X619913000Y48817298D02*
X633913000Y48817298D01*
X622293000Y20467018D02*
X622293000Y15766548D01*
X605626000Y86917298D02*
X619625000Y86917298D01*
X591050000Y129778898D02*
X591050000Y115778898D01*
X624676000Y86917298D02*
X638675000Y86917298D01*
X605626000Y72916598D02*
X605626000Y86917298D01*
X591338200Y67867298D02*
X605338000Y67867298D01*
X614863000Y34816498D02*
X600863000Y34816498D01*
X600575000Y72916598D02*
X586575700Y72916598D01*
X624388000Y67867298D02*
X624388000Y53866598D01*
X595812500Y34816498D02*
X581813200Y34816498D01*
X624388000Y53866598D02*
X610388000Y53866598D01*
X610388000Y53866598D02*
X610388000Y67867298D01*
X610100000Y105967298D02*
X610100000Y91966598D01*
X619913000Y34816498D02*
X619913000Y48817298D01*
X619625000Y86917298D02*
X619625000Y72916598D01*
X615149000Y115778898D02*
X615149000Y129778898D01*
X622293000Y29767398D02*
X622293000Y25066898D01*
X595812500Y48817298D02*
X595812500Y34816498D01*
X596099300Y115778898D02*
X596099300Y129778898D01*
X600863000Y48817298D02*
X614863000Y48817298D01*
X610388000Y67867298D02*
X624388000Y67867298D01*
X615149000Y129778898D02*
X629150000Y129778898D01*
X591050000Y115778898D02*
X577050700Y115778898D01*
X624676000Y72916598D02*
X624676000Y86917298D01*
X605338000Y67867298D02*
X605338000Y53866598D01*
X615149000Y105967298D02*
X629150000Y105967298D01*
X610100000Y129778898D02*
X610100000Y115778898D01*
X634201000Y129778898D02*
X648200000Y129778898D01*
X610100000Y91966598D02*
X596099300Y91966598D01*
X622293000Y25066898D02*
X582669100Y25066898D01*
X615149000Y91966598D02*
X615149000Y105967298D01*
X619625000Y72916598D02*
X605626000Y72916598D01*
X605338000Y53866598D02*
X591338200Y53866598D01*
X629150000Y129778898D02*
X629150000Y115778898D01*
X596099300Y129778898D02*
X610100000Y129778898D01*
X591050000Y91966598D02*
X577050700Y91966598D01*
X596099300Y105967298D02*
X610100000Y105967298D01*
X591050000Y105967298D02*
X591050000Y91966598D01*
X600575000Y86917298D02*
X600575000Y72916598D01*
X586575700Y72916598D02*
X586575700Y86917298D01*
X614863000Y48817298D02*
X614863000Y34816498D01*
X596099300Y91966598D02*
X596099300Y105967298D01*
X610100000Y115778898D02*
X596099300Y115778898D01*
X591338200Y53866598D02*
X591338200Y67867298D01*
X600863000Y34816498D02*
X600863000Y48817298D01*
X586575700Y86917298D02*
X600575000Y86917298D01*
X586287500Y53866598D02*
X572288200Y53866598D01*
X586287500Y67867298D02*
X586287500Y53866598D01*
X580943600Y14796408D02*
X580943600Y15996678D01*
X580943600Y15996678D02*
X582669100Y15996678D01*
X582669100Y15996678D02*
X582669100Y20467018D01*
X567525700Y86917298D02*
X581525000Y86917298D01*
X577643000Y15996678D02*
X577643000Y14796408D01*
X577050700Y91966598D02*
X577050700Y105967298D01*
X562763200Y34816498D02*
X562763200Y48817298D01*
X582669100Y20467018D02*
X622293000Y20467018D01*
X575918000Y28297098D02*
X575918000Y25066898D01*
X582669100Y25066898D02*
X582669100Y28297098D01*
X582669100Y28297098D02*
X575918000Y28297098D01*
X581813200Y34816498D02*
X581813200Y48817298D01*
X577050700Y105967298D02*
X591050000Y105967298D01*
X581813200Y48817298D02*
X595812500Y48817298D01*
X581525000Y86917298D02*
X581525000Y72916598D01*
X558000700Y91966598D02*
X558000700Y105967298D01*
X577643000Y14796408D02*
X580943600Y14796408D01*
X576762500Y48817298D02*
X576762500Y34816498D01*
X577050700Y115778898D02*
X577050700Y129778898D01*
X576762500Y34816498D02*
X562763200Y34816498D01*
X575918000Y15996678D02*
X577643000Y15996678D01*
X575093900Y25066898D02*
X575093900Y22266748D01*
X553238200Y67867298D02*
X567237500Y67867298D01*
X564856300Y29767398D02*
X564856300Y15766548D01*
X558000700Y129778898D02*
X572000000Y129778898D01*
X548475700Y86917298D02*
X562475000Y86917298D01*
X557712500Y48817298D02*
X557712500Y34816498D01*
X572000000Y115778898D02*
X558000700Y115778898D01*
X562763200Y48817298D02*
X576762500Y48817298D01*
X572288200Y67867298D02*
X586287500Y67867298D01*
X567525700Y72916598D02*
X567525700Y86917298D01*
X567237500Y67867298D02*
X567237500Y53866598D01*
X577050700Y129778898D02*
X591050000Y129778898D01*
X581525000Y72916598D02*
X567525700Y72916598D01*
X558000700Y115778898D02*
X558000700Y129778898D01*
X552950000Y115778898D02*
X538950700Y115778898D01*
X572288200Y53866598D02*
X572288200Y67867298D01*
X543713200Y34816498D02*
X543713200Y48817298D01*
X558000700Y105967298D02*
X572000000Y105967298D01*
X548187500Y53866598D02*
X534188200Y53866598D01*
X572000000Y129778898D02*
X572000000Y115778898D01*
X552950000Y91966598D02*
X538950700Y91966598D01*
X550857000Y29767398D02*
X564856300Y29767398D01*
X543713200Y48817298D02*
X557712500Y48817298D01*
X572000000Y91966598D02*
X558000700Y91966598D01*
X575918000Y25066898D02*
X575093900Y25066898D01*
X575918000Y22266748D02*
X575918000Y15996678D01*
X564856300Y15766548D02*
X550857000Y15766548D01*
X548187500Y67867298D02*
X548187500Y53866598D01*
X550857000Y15766548D02*
X550857000Y29767398D01*
X572000000Y105967298D02*
X572000000Y91966598D01*
X553238200Y53866598D02*
X553238200Y67867298D01*
X557712500Y34816498D02*
X543713200Y34816498D01*
X575093900Y22266748D02*
X575918000Y22266748D01*
X552950000Y129778898D02*
X552950000Y115778898D01*
X548475700Y72916598D02*
X548475700Y86917298D01*
X562475000Y72916598D02*
X548475700Y72916598D01*
X567237500Y53866598D02*
X553238200Y53866598D01*
X562475000Y86917298D02*
X562475000Y72916598D01*
X552950000Y105967298D02*
X552950000Y91966598D01*
X505613160Y72916598D02*
X505613160Y86917298D01*
X505613160Y86917298D02*
X519612700Y86917298D01*
X504481800Y35046698D02*
X506207090Y35046698D01*
X500850650Y105967298D02*
X514850200Y105967298D01*
X504481800Y44116898D02*
X503656330Y44116898D01*
X504481800Y47347098D02*
X504481800Y44116898D01*
X500850650Y129778898D02*
X514850200Y129778898D01*
X503231910Y15766548D02*
X503231910Y29767398D01*
X503656330Y41316798D02*
X504481800Y41316798D01*
X503231910Y29767398D02*
X517231400Y29767398D01*
X503656330Y44116898D02*
X503656330Y41316798D01*
X500850650Y91966598D02*
X500850650Y105967298D01*
X500850650Y115778898D02*
X500850650Y129778898D01*
D11*
X493558148Y5017859D02*
G75*
G02*
X489463148Y9112859I1J4095001D01*
G01*
X493558148Y153612859D02*
X868058148Y153767859D01*
X489463148Y9112859D02*
X489463148Y149517859D01*
X489463148Y149517859D02*
G75*
G02*
X493558148Y153612859I4095001J-1D01*
G01*
D10*
X504481800Y41316798D02*
X504481800Y35046698D01*
M02*
