%TF.GenerationSoftware,KiCad,Pcbnew,10.0.5*%
%TF.CreationDate,2026-09-03T15:00:05+03:00*%
%TF.ProjectId,mariboard,6d617269-626f-4617-9264-2e6b69636164,rev?*%
%TF.SameCoordinates,Original*%
%TF.FileFunction,Soldermask,Top*%
%TF.FilePolarity,Negative*%
%FSLAX46Y46*%
G04 Gerber Fmt 4.6, Leading zero omitted, Abs format (unit mm)*
G04 Created by KiCad (PCBNEW 10.0.5) date 2026-09-03 15:00:05*
%MOMM*%
%LPD*%
G01*
G04 APERTURE LIST*
G04 Aperture macros list*
%AMRoundRect*
0 Rectangle with rounded corners*
0 $1 Rounding radius*
0 $2 $3 $4 $5 $6 $7 $8 $9 X,Y pos of 4 corners*
0 Add a 4 corners polygon primitive as box body*
4,1,4,$2,$3,$4,$5,$6,$7,$8,$9,$2,$3,0*
0 Add four circle primitives for the rounded corners*
1,1,$1+$1,$2,$3*
1,1,$1+$1,$4,$5*
1,1,$1+$1,$6,$7*
1,1,$1+$1,$8,$9*
0 Add four rect primitives between the rounded corners*
20,1,$1+$1,$2,$3,$4,$5,0*
20,1,$1+$1,$4,$5,$6,$7,0*
20,1,$1+$1,$6,$7,$8,$9,0*
20,1,$1+$1,$8,$9,$2,$3,0*%
%AMFreePoly0*
4,1,37,0.800000,0.796148,0.878414,0.796148,1.032228,0.765552,1.177117,0.705537,1.307515,0.618408,1.418408,0.507515,1.505537,0.377117,1.565552,0.232228,1.596148,0.078414,1.596148,-0.078414,1.565552,-0.232228,1.505537,-0.377117,1.418408,-0.507515,1.307515,-0.618408,1.177117,-0.705537,1.032228,-0.765552,0.878414,-0.796148,0.800000,-0.796148,0.800000,-0.800000,-1.400000,-0.800000,
-1.403843,-0.796157,-1.439018,-0.796157,-1.511114,-0.766294,-1.566294,-0.711114,-1.596157,-0.639018,-1.596157,-0.603843,-1.600000,-0.600000,-1.600000,0.600000,-1.596157,0.603843,-1.596157,0.639018,-1.566294,0.711114,-1.511114,0.766294,-1.439018,0.796157,-1.403843,0.796157,-1.400000,0.800000,0.800000,0.800000,0.800000,0.796148,0.800000,0.796148,$1*%
%AMFreePoly1*
4,1,37,1.403843,0.796157,1.439018,0.796157,1.511114,0.766294,1.566294,0.711114,1.596157,0.639018,1.596157,0.603843,1.600000,0.600000,1.600000,-0.600000,1.596157,-0.603843,1.596157,-0.639018,1.566294,-0.711114,1.511114,-0.766294,1.439018,-0.796157,1.403843,-0.796157,1.400000,-0.800000,-0.800000,-0.800000,-0.800000,-0.796148,-0.878414,-0.796148,-1.032228,-0.765552,-1.177117,-0.705537,
-1.307515,-0.618408,-1.418408,-0.507515,-1.505537,-0.377117,-1.565552,-0.232228,-1.596148,-0.078414,-1.596148,0.078414,-1.565552,0.232228,-1.505537,0.377117,-1.418408,0.507515,-1.307515,0.618408,-1.177117,0.705537,-1.032228,0.765552,-0.878414,0.796148,-0.800000,0.796148,-0.800000,0.800000,1.400000,0.800000,1.403843,0.796157,1.403843,0.796157,$1*%
%AMFreePoly2*
4,1,37,0.603843,0.796157,0.639018,0.796157,0.711114,0.766294,0.766294,0.711114,0.796157,0.639018,0.796157,0.603843,0.800000,0.600000,0.800000,-0.600000,0.796157,-0.603843,0.796157,-0.639018,0.766294,-0.711114,0.711114,-0.766294,0.639018,-0.796157,0.603843,-0.796157,0.600000,-0.800000,0.000000,-0.800000,0.000000,-0.796148,-0.078414,-0.796148,-0.232228,-0.765552,-0.377117,-0.705537,
-0.507515,-0.618408,-0.618408,-0.507515,-0.705537,-0.377117,-0.765552,-0.232228,-0.796148,-0.078414,-0.796148,0.078414,-0.765552,0.232228,-0.705537,0.377117,-0.618408,0.507515,-0.507515,0.618408,-0.377117,0.705537,-0.232228,0.765552,-0.078414,0.796148,0.000000,0.796148,0.000000,0.800000,0.600000,0.800000,0.603843,0.796157,0.603843,0.796157,$1*%
%AMFreePoly3*
4,1,37,0.000000,0.796148,0.078414,0.796148,0.232228,0.765552,0.377117,0.705537,0.507515,0.618408,0.618408,0.507515,0.705537,0.377117,0.765552,0.232228,0.796148,0.078414,0.796148,-0.078414,0.765552,-0.232228,0.705537,-0.377117,0.618408,-0.507515,0.507515,-0.618408,0.377117,-0.705537,0.232228,-0.765552,0.078414,-0.796148,0.000000,-0.796148,0.000000,-0.800000,-0.600000,-0.800000,
-0.603843,-0.796157,-0.639018,-0.796157,-0.711114,-0.766294,-0.766294,-0.711114,-0.796157,-0.639018,-0.796157,-0.603843,-0.800000,-0.600000,-0.800000,0.600000,-0.796157,0.603843,-0.796157,0.639018,-0.766294,0.711114,-0.711114,0.766294,-0.639018,0.796157,-0.603843,0.796157,-0.600000,0.800000,0.000000,0.800000,0.000000,0.796148,0.000000,0.796148,$1*%
G04 Aperture macros list end*
%ADD10C,3.200000*%
%ADD11C,1.700000*%
%ADD12C,4.000000*%
%ADD13C,2.200000*%
%ADD14C,3.050000*%
%ADD15C,2.000000*%
%ADD16RoundRect,0.170000X0.680000X-0.680000X0.680000X0.680000X-0.680000X0.680000X-0.680000X-0.680000X0*%
%ADD17C,1.850000*%
%ADD18FreePoly0,0.000000*%
%ADD19RoundRect,0.200000X-0.600000X-0.600000X0.600000X-0.600000X0.600000X0.600000X-0.600000X0.600000X0*%
%ADD20RoundRect,0.800000X-0.800000X-0.000010X0.800000X-0.000010X0.800000X0.000010X-0.800000X0.000010X0*%
%ADD21C,1.600000*%
%ADD22FreePoly1,0.000000*%
%ADD23FreePoly2,0.000000*%
%ADD24FreePoly3,0.000000*%
G04 APERTURE END LIST*
D10*
%TO.C,REF\u002A\u002A*%
X746104398Y-54604398D03*
%TD*%
D11*
%TO.C,sw23*%
X153677500Y99097500D03*
D12*
X158757500Y99097500D03*
D11*
X163837500Y99097500D03*
D13*
X161297500Y104177500D03*
X154947500Y101637500D03*
%TD*%
D11*
%TO.C,sw27*%
X229877500Y99097500D03*
D12*
X234957500Y99097500D03*
D11*
X240037500Y99097500D03*
D13*
X237497500Y104177500D03*
X231147500Y101637500D03*
%TD*%
D11*
%TO.C,sw81*%
X267977500Y22897500D03*
D12*
X273057500Y22897500D03*
D11*
X278137500Y22897500D03*
D13*
X275597500Y27977500D03*
X269247500Y25437500D03*
%TD*%
D11*
%TO.C,sw46*%
X325127500Y80047500D03*
D12*
X330207500Y80047500D03*
D11*
X335287500Y80047500D03*
D13*
X332747500Y85127500D03*
X326397500Y82587500D03*
%TD*%
D11*
%TO.C,sw15*%
X306077500Y122910000D03*
D12*
X311157500Y122910000D03*
D11*
X316237500Y122910000D03*
D13*
X313697500Y127990000D03*
X307347500Y125450000D03*
%TD*%
D10*
%TO.C,REF\u002A\u002A*%
X477058148Y153335961D03*
%TD*%
D11*
%TO.C,sw72*%
X279883750Y41947500D03*
D12*
X284963750Y41947500D03*
D11*
X290043750Y41947500D03*
D13*
X287503750Y47027500D03*
X281153750Y44487500D03*
%TD*%
D10*
%TO.C,REF\u002A\u002A*%
X746808148Y14335961D03*
%TD*%
D11*
%TO.C,sw32*%
X44140000Y80047500D03*
D12*
X49220000Y80047500D03*
D11*
X54300000Y80047500D03*
D13*
X51760000Y85127500D03*
X45410000Y82587500D03*
%TD*%
D11*
%TO.C,sw68*%
X196540000Y41947500D03*
D12*
X201620000Y41947500D03*
D11*
X206700000Y41947500D03*
D13*
X204160000Y47027500D03*
X197810000Y44487500D03*
%TD*%
D11*
%TO.C,sw16*%
X325127500Y122910000D03*
D12*
X330207500Y122910000D03*
D11*
X335287500Y122910000D03*
D13*
X332747500Y127990000D03*
X326397500Y125450000D03*
%TD*%
D11*
%TO.C,sw49*%
X91765000Y60997500D03*
D12*
X96845000Y60997500D03*
D11*
X101925000Y60997500D03*
D13*
X99385000Y66077500D03*
X93035000Y63537500D03*
%TD*%
D10*
%TO.C,REF\u002A\u002A*%
X512104398Y-194104398D03*
%TD*%
D14*
%TO.C,sw30*%
X289732500Y106097500D03*
D12*
X289732500Y90857500D03*
D11*
X296552500Y99097500D03*
D12*
X301632500Y99097500D03*
D11*
X306712500Y99097500D03*
D14*
X313532500Y106097500D03*
D12*
X313532500Y90857500D03*
D13*
X304172500Y104177500D03*
X297822500Y101637500D03*
%TD*%
D11*
%TO.C,sw47*%
X46521250Y60997500D03*
D12*
X51601250Y60997500D03*
D11*
X56681250Y60997500D03*
D13*
X54141250Y66077500D03*
X47791250Y63537500D03*
%TD*%
D10*
%TO.C,REF\u002A\u002A*%
X648354398Y-193854398D03*
%TD*%
D11*
%TO.C,sw3*%
X77477500Y122910000D03*
D12*
X82557500Y122910000D03*
D11*
X87637500Y122910000D03*
D13*
X85097500Y127990000D03*
X78747500Y125450000D03*
%TD*%
D10*
%TO.C,REF\u002A\u002A*%
X166250000Y9250000D03*
%TD*%
D11*
%TO.C,sw77*%
X89383750Y22897500D03*
D12*
X94463750Y22897500D03*
D11*
X99543750Y22897500D03*
D13*
X97003750Y27977500D03*
X90653750Y25437500D03*
%TD*%
D11*
%TO.C,sw62*%
X82240000Y41947500D03*
D12*
X87320000Y41947500D03*
D11*
X92400000Y41947500D03*
D13*
X89860000Y47027500D03*
X83510000Y44487500D03*
%TD*%
D11*
%TO.C,sw36*%
X125102500Y80047500D03*
D12*
X130182500Y80047500D03*
D11*
X135262500Y80047500D03*
D13*
X132722500Y85127500D03*
X126372500Y82587500D03*
%TD*%
D11*
%TO.C,sw73*%
X306077500Y41947500D03*
D12*
X311157500Y41947500D03*
D11*
X316237500Y41947500D03*
D13*
X313697500Y47027500D03*
X307347500Y44487500D03*
%TD*%
D11*
%TO.C,sw66*%
X158440000Y41947500D03*
D12*
X163520000Y41947500D03*
D11*
X168600000Y41947500D03*
D13*
X166060000Y47027500D03*
X159710000Y44487500D03*
%TD*%
D10*
%TO.C,REF\u002A\u002A*%
X400250000Y148750000D03*
%TD*%
D11*
%TO.C,sw48*%
X72715000Y60997500D03*
D12*
X77795000Y60997500D03*
D11*
X82875000Y60997500D03*
D13*
X80335000Y66077500D03*
X73985000Y63537500D03*
%TD*%
D11*
%TO.C,sw58*%
X263215000Y60997500D03*
D12*
X268295000Y60997500D03*
D11*
X273375000Y60997500D03*
D13*
X270835000Y66077500D03*
X264485000Y63537500D03*
%TD*%
D11*
%TO.C,sw10*%
X210827500Y122910000D03*
D12*
X215907500Y122910000D03*
D11*
X220987500Y122910000D03*
D13*
X218447500Y127990000D03*
X212097500Y125450000D03*
%TD*%
D11*
%TO.C,sw24*%
X172727500Y99097500D03*
D12*
X177807500Y99097500D03*
D11*
X182887500Y99097500D03*
D13*
X180347500Y104177500D03*
X173997500Y101637500D03*
%TD*%
D11*
%TO.C,sw67*%
X177490000Y41947500D03*
D12*
X182570000Y41947500D03*
D11*
X187650000Y41947500D03*
D13*
X185110000Y47027500D03*
X178760000Y44487500D03*
%TD*%
D11*
%TO.C,sw69*%
X215590000Y41947500D03*
D12*
X220670000Y41947500D03*
D11*
X225750000Y41947500D03*
D13*
X223210000Y47027500D03*
X216860000Y44487500D03*
%TD*%
D11*
%TO.C,sw52*%
X148915000Y60997500D03*
D12*
X153995000Y60997500D03*
D11*
X159075000Y60997500D03*
D13*
X156535000Y66077500D03*
X150185000Y63537500D03*
%TD*%
D11*
%TO.C,sw19*%
X77477500Y99097500D03*
D12*
X82557500Y99097500D03*
D11*
X87637500Y99097500D03*
D13*
X85097500Y104177500D03*
X78747500Y101637500D03*
%TD*%
D11*
%TO.C,sw13*%
X267977500Y122910000D03*
D12*
X273057500Y122910000D03*
D11*
X278137500Y122910000D03*
D13*
X275597500Y127990000D03*
X269247500Y125450000D03*
%TD*%
D11*
%TO.C,sw25*%
X191777500Y99097500D03*
D12*
X196857500Y99097500D03*
D11*
X201937500Y99097500D03*
D13*
X199397500Y104177500D03*
X193047500Y101637500D03*
%TD*%
D10*
%TO.C,REF\u002A\u002A*%
X610558148Y14085961D03*
%TD*%
D11*
%TO.C,sw45*%
X301315000Y80047500D03*
D12*
X306395000Y80047500D03*
D11*
X311475000Y80047500D03*
D13*
X308935000Y85127500D03*
X302585000Y82587500D03*
%TD*%
D11*
%TO.C,sw51*%
X129865000Y60997500D03*
D12*
X134945000Y60997500D03*
D11*
X140025000Y60997500D03*
D13*
X137485000Y66077500D03*
X131135000Y63537500D03*
%TD*%
D11*
%TO.C,sw65*%
X139390000Y41947500D03*
D12*
X144470000Y41947500D03*
D11*
X149550000Y41947500D03*
D13*
X147010000Y47027500D03*
X140660000Y44487500D03*
%TD*%
D11*
%TO.C,sw26*%
X210827500Y99097500D03*
D12*
X215907500Y99097500D03*
D11*
X220987500Y99097500D03*
D13*
X218447500Y104177500D03*
X212097500Y101637500D03*
%TD*%
D11*
%TO.C,sw56*%
X225115000Y60997500D03*
D12*
X230195000Y60997500D03*
D11*
X235275000Y60997500D03*
D13*
X232735000Y66077500D03*
X226385000Y63537500D03*
%TD*%
D11*
%TO.C,sw34*%
X87002500Y80047500D03*
D12*
X92082500Y80047500D03*
D11*
X97162500Y80047500D03*
D13*
X94622500Y85127500D03*
X88272500Y82587500D03*
%TD*%
D11*
%TO.C,sw31*%
X325127500Y99097500D03*
D12*
X330207500Y99097500D03*
D11*
X335287500Y99097500D03*
D13*
X332747500Y104177500D03*
X326397500Y101637500D03*
%TD*%
D11*
%TO.C,sw29*%
X267977500Y99097500D03*
D12*
X273057500Y99097500D03*
D11*
X278137500Y99097500D03*
D13*
X275597500Y104177500D03*
X269247500Y101637500D03*
%TD*%
D11*
%TO.C,sw71*%
X253690000Y41947500D03*
D12*
X258770000Y41947500D03*
D11*
X263850000Y41947500D03*
D13*
X261310000Y47027500D03*
X254960000Y44487500D03*
%TD*%
D10*
%TO.C,REF\u002A\u002A*%
X34750000Y9500000D03*
%TD*%
D11*
%TO.C,sw20*%
X96527500Y99097500D03*
D12*
X101607500Y99097500D03*
D11*
X106687500Y99097500D03*
D13*
X104147500Y104177500D03*
X97797500Y101637500D03*
%TD*%
D11*
%TO.C,sw57*%
X244165000Y60997500D03*
D12*
X249245000Y60997500D03*
D11*
X254325000Y60997500D03*
D13*
X251785000Y66077500D03*
X245435000Y63537500D03*
%TD*%
D11*
%TO.C,sw2*%
X58427500Y122910000D03*
D12*
X63507500Y122910000D03*
D11*
X68587500Y122910000D03*
D13*
X66047500Y127990000D03*
X59697500Y125450000D03*
%TD*%
D11*
%TO.C,sw53*%
X167965000Y60997500D03*
D12*
X173045000Y60997500D03*
D11*
X178125000Y60997500D03*
D13*
X175585000Y66077500D03*
X169235000Y63537500D03*
%TD*%
D15*
%TO.C,S1*%
X396045000Y122380000D03*
X389545000Y122380000D03*
X396045000Y126880000D03*
X389545000Y126880000D03*
%TD*%
D11*
%TO.C,sw83*%
X306077500Y22897500D03*
D12*
X311157500Y22897500D03*
D11*
X316237500Y22897500D03*
D13*
X313697500Y27977500D03*
X307347500Y25437500D03*
%TD*%
D11*
%TO.C,sw33*%
X67952500Y80047500D03*
D12*
X73032500Y80047500D03*
D11*
X78112500Y80047500D03*
D13*
X75572500Y85127500D03*
X69222500Y82587500D03*
%TD*%
D11*
%TO.C,sw63*%
X101290000Y41947500D03*
D12*
X106370000Y41947500D03*
D11*
X111450000Y41947500D03*
D13*
X108910000Y47027500D03*
X102560000Y44487500D03*
%TD*%
D14*
%TO.C,sw78*%
X115901250Y29897500D03*
D12*
X115901250Y14657500D03*
D11*
X160821250Y22897500D03*
D12*
X165901250Y22897500D03*
D11*
X170981250Y22897500D03*
D14*
X215901250Y29897500D03*
D12*
X215901250Y14657500D03*
D13*
X168441250Y27977500D03*
X162091250Y25437500D03*
%TD*%
D11*
%TO.C,sw7*%
X153677500Y122910000D03*
D12*
X158757500Y122910000D03*
D11*
X163837500Y122910000D03*
D13*
X161297500Y127990000D03*
X154947500Y125450000D03*
%TD*%
D10*
%TO.C,REF\u002A\u002A*%
X844558148Y153585961D03*
%TD*%
%TO.C,REF\u002A\u002A*%
X302500000Y9500000D03*
%TD*%
D16*
%TO.C,U1*%
X357655000Y64477500D03*
D11*
X357655000Y67017500D03*
X357655000Y69557500D03*
X357655000Y72097500D03*
%TD*%
D10*
%TO.C,REF\u002A\u002A*%
X479058148Y14335961D03*
%TD*%
D11*
%TO.C,sw37*%
X144152500Y80047500D03*
D12*
X149232500Y80047500D03*
D11*
X154312500Y80047500D03*
D13*
X151772500Y85127500D03*
X145422500Y82587500D03*
%TD*%
D10*
%TO.C,REF\u002A\u002A*%
X400750000Y11750000D03*
%TD*%
D11*
%TO.C,sw76*%
X65571250Y22897500D03*
D12*
X70651250Y22897500D03*
D11*
X75731250Y22897500D03*
D13*
X73191250Y27977500D03*
X66841250Y25437500D03*
%TD*%
D11*
%TO.C,sw80*%
X248927500Y22897500D03*
D12*
X254007500Y22897500D03*
D11*
X259087500Y22897500D03*
D13*
X256547500Y27977500D03*
X250197500Y25437500D03*
%TD*%
D10*
%TO.C,REF\u002A\u002A*%
X380604398Y-193854398D03*
%TD*%
D14*
%TO.C,sw61*%
X44463750Y48947500D03*
D12*
X44463750Y33707500D03*
D11*
X51283750Y41947500D03*
D12*
X56363750Y41947500D03*
D11*
X61443750Y41947500D03*
D14*
X68263750Y48947500D03*
D12*
X68263750Y33707500D03*
D13*
X58903750Y47027500D03*
X52553750Y44487500D03*
%TD*%
D11*
%TO.C,sw70*%
X234640000Y41947500D03*
D12*
X239720000Y41947500D03*
D11*
X244800000Y41947500D03*
D13*
X242260000Y47027500D03*
X235910000Y44487500D03*
%TD*%
D11*
%TO.C,sw74*%
X325127500Y41947500D03*
D12*
X330207500Y41947500D03*
D11*
X335287500Y41947500D03*
D13*
X332747500Y47027500D03*
X326397500Y44487500D03*
%TD*%
D11*
%TO.C,sw12*%
X248927500Y122910000D03*
D12*
X254007500Y122910000D03*
D11*
X259087500Y122910000D03*
D13*
X256547500Y127990000D03*
X250197500Y125450000D03*
%TD*%
D11*
%TO.C,sw35*%
X106052500Y80047500D03*
D12*
X111132500Y80047500D03*
D11*
X116212500Y80047500D03*
D13*
X113672500Y85127500D03*
X107322500Y82587500D03*
%TD*%
D11*
%TO.C,sw79*%
X229877500Y22897500D03*
D12*
X234957500Y22897500D03*
D11*
X240037500Y22897500D03*
D13*
X237497500Y27977500D03*
X231147500Y25437500D03*
%TD*%
D10*
%TO.C,REF\u002A\u002A*%
X746604398Y-191604398D03*
%TD*%
D11*
%TO.C,sw84*%
X325127500Y22897500D03*
D12*
X330207500Y22897500D03*
D11*
X335287500Y22897500D03*
D13*
X332747500Y27977500D03*
X326397500Y25437500D03*
%TD*%
D11*
%TO.C,sw40*%
X201302500Y80047500D03*
D12*
X206382500Y80047500D03*
D11*
X211462500Y80047500D03*
D13*
X208922500Y85127500D03*
X202572500Y82587500D03*
%TD*%
D11*
%TO.C,sw1*%
X39377500Y122910000D03*
D12*
X44457500Y122910000D03*
D11*
X49537500Y122910000D03*
D13*
X46997500Y127990000D03*
X40647500Y125450000D03*
%TD*%
D10*
%TO.C,REF\u002A\u002A*%
X845058148Y16585961D03*
%TD*%
D11*
%TO.C,sw22*%
X134627500Y99097500D03*
D12*
X139707500Y99097500D03*
D11*
X144787500Y99097500D03*
D13*
X142247500Y104177500D03*
X135897500Y101637500D03*
%TD*%
D11*
%TO.C,sw6*%
X134627500Y122910000D03*
D12*
X139707500Y122910000D03*
D11*
X144787500Y122910000D03*
D13*
X142247500Y127990000D03*
X135897500Y125450000D03*
%TD*%
D10*
%TO.C,REF\u002A\u002A*%
X378604398Y-54854398D03*
%TD*%
D11*
%TO.C,sw41*%
X220352500Y80047500D03*
D12*
X225432500Y80047500D03*
D11*
X230512500Y80047500D03*
D13*
X227972500Y85127500D03*
X221622500Y82587500D03*
%TD*%
D11*
%TO.C,sw60*%
X325127500Y60997500D03*
D12*
X330207500Y60997500D03*
D11*
X335287500Y60997500D03*
D13*
X332747500Y66077500D03*
X326397500Y63537500D03*
%TD*%
D11*
%TO.C,sw17*%
X39377500Y99097500D03*
D12*
X44457500Y99097500D03*
D11*
X49537500Y99097500D03*
D13*
X46997500Y104177500D03*
X40647500Y101637500D03*
%TD*%
D11*
%TO.C,sw9*%
X191777500Y122910000D03*
D12*
X196857500Y122910000D03*
D11*
X201937500Y122910000D03*
D13*
X199397500Y127990000D03*
X193047500Y125450000D03*
%TD*%
D10*
%TO.C,REF\u002A\u002A*%
X32750000Y148500000D03*
%TD*%
D11*
%TO.C,sw50*%
X110815000Y60997500D03*
D12*
X115895000Y60997500D03*
D11*
X120975000Y60997500D03*
D13*
X118435000Y66077500D03*
X112085000Y63537500D03*
%TD*%
D11*
%TO.C,sw18*%
X58427500Y99097500D03*
D12*
X63507500Y99097500D03*
D11*
X68587500Y99097500D03*
D13*
X66047500Y104177500D03*
X59697500Y101637500D03*
%TD*%
D11*
%TO.C,sw64*%
X120340000Y41947500D03*
D12*
X125420000Y41947500D03*
D11*
X130500000Y41947500D03*
D13*
X127960000Y47027500D03*
X121610000Y44487500D03*
%TD*%
D14*
%TO.C,sw59*%
X287351250Y67997500D03*
D12*
X287351250Y52757500D03*
D11*
X294171250Y60997500D03*
D12*
X299251250Y60997500D03*
D11*
X304331250Y60997500D03*
D14*
X311151250Y67997500D03*
D12*
X311151250Y52757500D03*
D13*
X301791250Y66077500D03*
X295441250Y63537500D03*
%TD*%
D11*
%TO.C,sw55*%
X206065000Y60997500D03*
D12*
X211145000Y60997500D03*
D11*
X216225000Y60997500D03*
D13*
X213685000Y66077500D03*
X207335000Y63537500D03*
%TD*%
D11*
%TO.C,sw38*%
X163202500Y80047500D03*
D12*
X168282500Y80047500D03*
D11*
X173362500Y80047500D03*
D13*
X170822500Y85127500D03*
X164472500Y82587500D03*
%TD*%
D11*
%TO.C,sw44*%
X277502500Y80047500D03*
D12*
X282582500Y80047500D03*
D11*
X287662500Y80047500D03*
D13*
X285122500Y85127500D03*
X278772500Y82587500D03*
%TD*%
D11*
%TO.C,sw5*%
X115577500Y122910000D03*
D12*
X120657500Y122910000D03*
D11*
X125737500Y122910000D03*
D13*
X123197500Y127990000D03*
X116847500Y125450000D03*
%TD*%
D11*
%TO.C,sw75*%
X41758750Y22897500D03*
D12*
X46838750Y22897500D03*
D11*
X51918750Y22897500D03*
D13*
X49378750Y27977500D03*
X43028750Y25437500D03*
%TD*%
D11*
%TO.C,sw82*%
X287027500Y22897500D03*
D12*
X292107500Y22897500D03*
D11*
X297187500Y22897500D03*
D13*
X294647500Y27977500D03*
X288297500Y25437500D03*
%TD*%
D11*
%TO.C,sw43*%
X258452500Y80047500D03*
D12*
X263532500Y80047500D03*
D11*
X268612500Y80047500D03*
D13*
X266072500Y85127500D03*
X259722500Y82587500D03*
%TD*%
D11*
%TO.C,sw54*%
X187015000Y60997500D03*
D12*
X192095000Y60997500D03*
D11*
X197175000Y60997500D03*
D13*
X194635000Y66077500D03*
X188285000Y63537500D03*
%TD*%
D11*
%TO.C,sw4*%
X96527500Y122910000D03*
D12*
X101607500Y122910000D03*
D11*
X106687500Y122910000D03*
D13*
X104147500Y127990000D03*
X97797500Y125450000D03*
%TD*%
D11*
%TO.C,sw8*%
X172727500Y122910000D03*
D12*
X177807500Y122910000D03*
D11*
X182887500Y122910000D03*
D13*
X180347500Y127990000D03*
X173997500Y125450000D03*
%TD*%
D11*
%TO.C,sw21*%
X115577500Y99097500D03*
D12*
X120657500Y99097500D03*
D11*
X125737500Y99097500D03*
D13*
X123197500Y104177500D03*
X116847500Y101637500D03*
%TD*%
D11*
%TO.C,sw14*%
X287027500Y122910000D03*
D12*
X292107500Y122910000D03*
D11*
X297187500Y122910000D03*
D13*
X294647500Y127990000D03*
X288297500Y125450000D03*
%TD*%
D11*
%TO.C,sw11*%
X229877500Y122910000D03*
D12*
X234957500Y122910000D03*
D11*
X240037500Y122910000D03*
D13*
X237497500Y127990000D03*
X231147500Y125450000D03*
%TD*%
D11*
%TO.C,sw42*%
X239402500Y80047500D03*
D12*
X244482500Y80047500D03*
D11*
X249562500Y80047500D03*
D13*
X247022500Y85127500D03*
X240672500Y82587500D03*
%TD*%
D11*
%TO.C,sw39*%
X182252500Y80047500D03*
D12*
X187332500Y80047500D03*
D11*
X192412500Y80047500D03*
D13*
X189872500Y85127500D03*
X183522500Y82587500D03*
%TD*%
%TO.C,A1*%
X367180000Y152000000D03*
D17*
X367480000Y148970000D03*
X372330000Y148970000D03*
D13*
X372630000Y152000000D03*
D18*
X360215000Y152130000D03*
D19*
X361015000Y152130000D03*
D20*
X360215000Y149590000D03*
D21*
X361015000Y149590000D03*
D22*
X360215000Y147050000D03*
D23*
X361015000Y147050000D03*
D20*
X360215000Y144510000D03*
D21*
X361015000Y144510000D03*
D20*
X360215000Y141970000D03*
D21*
X361015000Y141970000D03*
D20*
X360215000Y139430000D03*
D21*
X361015000Y139430000D03*
D20*
X360215000Y136890000D03*
D21*
X361015000Y136890000D03*
D22*
X360215000Y134350000D03*
D23*
X361015000Y134350000D03*
D20*
X360215000Y131810000D03*
D21*
X361015000Y131810000D03*
D20*
X360215000Y129270000D03*
D21*
X361015000Y129270000D03*
D20*
X360215000Y126730000D03*
D21*
X361015000Y126730000D03*
D20*
X360215000Y124190000D03*
D21*
X361015000Y124190000D03*
D22*
X360215000Y121650000D03*
D23*
X361015000Y121650000D03*
D20*
X360215000Y119110000D03*
D21*
X361015000Y119110000D03*
D20*
X360215000Y116570000D03*
D21*
X361015000Y116570000D03*
D20*
X360215000Y114030000D03*
D21*
X361015000Y114030000D03*
D20*
X360215000Y111490000D03*
D21*
X361015000Y111490000D03*
D22*
X360215000Y108950000D03*
D23*
X361015000Y108950000D03*
D20*
X360215000Y106410000D03*
D21*
X361015000Y106410000D03*
D20*
X360215000Y103870000D03*
D21*
X361015000Y103870000D03*
X378795000Y103870000D03*
D20*
X379595000Y103870000D03*
D21*
X378795000Y106410000D03*
D20*
X379595000Y106410000D03*
D24*
X378795000Y108950000D03*
D18*
X379595000Y108950000D03*
D21*
X378795000Y111490000D03*
D20*
X379595000Y111490000D03*
D21*
X378795000Y114030000D03*
D20*
X379595000Y114030000D03*
D21*
X378795000Y116570000D03*
D20*
X379595000Y116570000D03*
D21*
X378795000Y119110000D03*
D20*
X379595000Y119110000D03*
D24*
X378795000Y121650000D03*
D18*
X379595000Y121650000D03*
D21*
X378795000Y124190000D03*
D20*
X379595000Y124190000D03*
D21*
X378795000Y126730000D03*
D20*
X379595000Y126730000D03*
D21*
X378795000Y129270000D03*
D20*
X379595000Y129270000D03*
D21*
X378795000Y131810000D03*
D20*
X379595000Y131810000D03*
D24*
X378795000Y134350000D03*
D18*
X379595000Y134350000D03*
D21*
X378795000Y136890000D03*
D20*
X379595000Y136890000D03*
D21*
X378795000Y139430000D03*
D20*
X379595000Y139430000D03*
D21*
X378795000Y141970000D03*
D20*
X379595000Y141970000D03*
D21*
X378795000Y144510000D03*
D20*
X379595000Y144510000D03*
D24*
X378795000Y147050000D03*
D18*
X379595000Y147050000D03*
D21*
X378795000Y149590000D03*
D20*
X379595000Y149590000D03*
D21*
X378795000Y152130000D03*
D20*
X379595000Y152130000D03*
%TD*%
D11*
%TO.C,sw28*%
X248927500Y99097500D03*
D12*
X254007500Y99097500D03*
D11*
X259087500Y99097500D03*
D13*
X256547500Y104177500D03*
X250197500Y101637500D03*
%TD*%
M02*
