ISO-10303-21;
HEADER;
/* Generated by software containing ST-Developer
 * from STEP Tools, Inc. (www.steptools.com) 
 */

FILE_DESCRIPTION(
/* description */ (''),
/* implementation_level */ '2;1');

FILE_NAME(
/* name */ 'case keyboard mariboard.step',
/* time_stamp */ '2026-09-26T15:35:51+03:00',
/* author */ (''),
/* organization */ (''),
/* preprocessor_version */ 'ST-DEVELOPER v20.1',
/* originating_system */ 'Autodesk Translation Framework v15.8.0.0',
/* authorisation */ '');

FILE_SCHEMA (('AUTOMOTIVE_DESIGN { 1 0 10303 214 3 1 1 }'));
ENDSEC;

DATA;
#10=MECHANICAL_DESIGN_GEOMETRIC_PRESENTATION_REPRESENTATION('',(#13),#1213);
#11=SHAPE_REPRESENTATION_RELATIONSHIP('SRR','None',#1220,#12);
#12=ADVANCED_BREP_SHAPE_REPRESENTATION('',(#14),#1212);
#13=STYLED_ITEM('',(#1229),#14);
#14=MANIFOLD_SOLID_BREP('Body3',#617);
#15=(
BOUNDED_SURFACE()
B_SPLINE_SURFACE(5,1,((#999,#1000),(#1001,#1002),(#1003,#1004),(#1005,#1006),
(#1007,#1008),(#1009,#1010),(#1011,#1012),(#1013,#1014),(#1015,#1016),(#1017,
#1018),(#1019,#1020),(#1021,#1022),(#1023,#1024),(#1025,#1026),(#1027,#1028)),
 .UNSPECIFIED.,.F.,.F.,.F.)
B_SPLINE_SURFACE_WITH_KNOTS((6,1,1,1,1,1,1,1,1,1,6),(2,2),(0.,0.1,0.2,0.3,
0.4,0.5,0.6,0.7,0.8,0.9,1.),(0.,0.5),.UNSPECIFIED.)
GEOMETRIC_REPRESENTATION_ITEM()
RATIONAL_B_SPLINE_SURFACE(((1.,1.),(1.,1.),(1.,1.),(1.,1.),(1.,1.),(1.,
1.),(1.,1.),(1.,1.),(1.,1.),(1.,1.),(1.,1.),(1.,1.),(1.,1.),(1.,1.),(1.,
1.)))
REPRESENTATION_ITEM('')
SURFACE()
);
#16=(
BOUNDED_SURFACE()
B_SPLINE_SURFACE(5,1,((#1050,#1051),(#1052,#1053),(#1054,#1055),(#1056,
#1057),(#1058,#1059),(#1060,#1061),(#1062,#1063),(#1064,#1065),(#1066,#1067),
(#1068,#1069),(#1070,#1071),(#1072,#1073),(#1074,#1075),(#1076,#1077),(#1078,
#1079)),.UNSPECIFIED.,.F.,.F.,.F.)
B_SPLINE_SURFACE_WITH_KNOTS((6,1,1,1,1,1,1,1,1,1,6),(2,2),(0.,0.1,0.2,0.3,
0.4,0.5,0.6,0.7,0.8,0.9,1.),(0.,0.5),.UNSPECIFIED.)
GEOMETRIC_REPRESENTATION_ITEM()
RATIONAL_B_SPLINE_SURFACE(((1.,1.),(1.,1.),(1.,1.),(1.,1.),(1.,1.),(1.,
1.),(1.,1.),(1.,1.),(1.,1.),(1.,1.),(1.,1.),(1.,1.),(1.,1.),(1.,1.),(1.,
1.)))
REPRESENTATION_ITEM('')
SURFACE()
);
#17=(
BOUNDED_SURFACE()
B_SPLINE_SURFACE(5,1,((#1114,#1115),(#1116,#1117),(#1118,#1119),(#1120,
#1121),(#1122,#1123),(#1124,#1125),(#1126,#1127),(#1128,#1129),(#1130,#1131),
(#1132,#1133),(#1134,#1135),(#1136,#1137),(#1138,#1139),(#1140,#1141),(#1142,
#1143)),.UNSPECIFIED.,.F.,.F.,.F.)
B_SPLINE_SURFACE_WITH_KNOTS((6,1,1,1,1,1,1,1,1,1,6),(2,2),(-1.,-0.9,-0.8,
-0.7,-0.6,-0.5,-0.4,-0.3,-0.2,-0.1,0.),(0.,0.5),.UNSPECIFIED.)
GEOMETRIC_REPRESENTATION_ITEM()
RATIONAL_B_SPLINE_SURFACE(((1.,1.),(1.,1.),(1.,1.),(1.,1.),(1.,1.),(1.,
1.),(1.,1.),(1.,1.),(1.,1.),(1.,1.),(1.,1.),(1.,1.),(1.,1.),(1.,1.),(1.,
1.)))
REPRESENTATION_ITEM('')
SURFACE()
);
#18=(
BOUNDED_SURFACE()
B_SPLINE_SURFACE(5,1,((#1163,#1164),(#1165,#1166),(#1167,#1168),(#1169,
#1170),(#1171,#1172),(#1173,#1174),(#1175,#1176),(#1177,#1178),(#1179,#1180),
(#1181,#1182),(#1183,#1184),(#1185,#1186),(#1187,#1188),(#1189,#1190),(#1191,
#1192)),.UNSPECIFIED.,.F.,.F.,.F.)
B_SPLINE_SURFACE_WITH_KNOTS((6,1,1,1,1,1,1,1,1,1,6),(2,2),(0.,0.1,0.2,0.3,
0.4,0.5,0.6,0.7,0.8,0.9,1.),(0.,0.5),.UNSPECIFIED.)
GEOMETRIC_REPRESENTATION_ITEM()
RATIONAL_B_SPLINE_SURFACE(((1.,1.),(1.,1.),(1.,1.),(1.,1.),(1.,1.),(1.,
1.),(1.,1.),(1.,1.),(1.,1.),(1.,1.),(1.,1.),(1.,1.),(1.,1.),(1.,1.),(1.,
1.)))
REPRESENTATION_ITEM('')
SURFACE()
);
#19=CYLINDRICAL_SURFACE('',#654,2.45);
#20=CYLINDRICAL_SURFACE('',#656,2.45);
#21=CYLINDRICAL_SURFACE('',#659,2.45000000000005);
#22=CYLINDRICAL_SURFACE('',#661,2.45000000000005);
#23=FACE_BOUND('',#91,.T.);
#24=FACE_BOUND('',#94,.T.);
#25=FACE_BOUND('',#98,.T.);
#26=FACE_BOUND('',#99,.T.);
#27=FACE_BOUND('',#103,.T.);
#28=FACE_BOUND('',#106,.T.);
#29=FACE_BOUND('',#118,.T.);
#30=FACE_BOUND('',#120,.T.);
#31=FACE_BOUND('',#121,.T.);
#32=FACE_BOUND('',#122,.T.);
#33=FACE_BOUND('',#123,.T.);
#34=FACE_BOUND('',#124,.T.);
#35=CIRCLE('',#639,2.45);
#36=CIRCLE('',#645,2.45000000000005);
#37=CIRCLE('',#646,2.45000000000005);
#38=CIRCLE('',#655,2.45);
#39=CIRCLE('',#657,2.45);
#40=CIRCLE('',#658,2.45);
#41=CIRCLE('',#660,2.45000000000005);
#42=CIRCLE('',#662,2.45000000000005);
#43=(
BOUNDED_CURVE()
B_SPLINE_CURVE(5,(#870,#871,#872,#873,#874,#875,#876,#877,#878,#879,#880,
#881,#882,#883,#884),.UNSPECIFIED.,.F.,.F.)
B_SPLINE_CURVE_WITH_KNOTS((6,1,1,1,1,1,1,1,1,1,6),(0.,0.1,0.2,0.3,0.4,0.5,
0.6,0.7,0.8,0.9,0.976766874274474),.UNSPECIFIED.)
CURVE()
GEOMETRIC_REPRESENTATION_ITEM()
RATIONAL_B_SPLINE_CURVE((1.,1.,1.,1.,1.,1.,1.,1.,1.,1.,1.,1.,1.,1.,1.))
REPRESENTATION_ITEM('')
);
#44=(
BOUNDED_CURVE()
B_SPLINE_CURVE(5,(#921,#922,#923,#924,#925,#926,#927,#928,#929,#930,#931,
#932,#933,#934,#935),.UNSPECIFIED.,.F.,.F.)
B_SPLINE_CURVE_WITH_KNOTS((6,1,1,1,1,1,1,1,1,1,6),(0.,0.1,0.2,0.3,0.4,0.5,
0.6,0.7,0.8,0.9,1.),.UNSPECIFIED.)
CURVE()
GEOMETRIC_REPRESENTATION_ITEM()
RATIONAL_B_SPLINE_CURVE((1.,1.,1.,1.,1.,1.,1.,1.,1.,1.,1.,1.,1.,1.,1.))
REPRESENTATION_ITEM('')
);
#45=(
BOUNDED_CURVE()
B_SPLINE_CURVE(5,(#939,#940,#941,#942,#943,#944,#945,#946,#947,#948,#949,
#950,#951,#952,#953),.UNSPECIFIED.,.F.,.F.)
B_SPLINE_CURVE_WITH_KNOTS((6,1,1,1,1,1,1,1,1,1,6),(-1.,-0.9,-0.8,-0.7,-0.6,
-0.5,-0.4,-0.3,-0.2,-0.1,0.),.UNSPECIFIED.)
CURVE()
GEOMETRIC_REPRESENTATION_ITEM()
RATIONAL_B_SPLINE_CURVE((1.,1.,1.,1.,1.,1.,1.,1.,1.,1.,1.,1.,1.,1.,1.))
REPRESENTATION_ITEM('')
);
#46=(
BOUNDED_CURVE()
B_SPLINE_CURVE(5,(#1029,#1030,#1031,#1032,#1033,#1034,#1035,#1036,#1037,
#1038,#1039,#1040,#1041,#1042,#1043),.UNSPECIFIED.,.F.,.F.)
B_SPLINE_CURVE_WITH_KNOTS((6,1,1,1,1,1,1,1,1,1,6),(0.,0.1,0.2,0.3,0.4,0.5,
0.6,0.7,0.8,0.9,0.976766874275683),.UNSPECIFIED.)
CURVE()
GEOMETRIC_REPRESENTATION_ITEM()
RATIONAL_B_SPLINE_CURVE((1.,1.,1.,1.,1.,1.,1.,1.,1.,1.,1.,1.,1.,1.,1.))
REPRESENTATION_ITEM('')
);
#47=(
BOUNDED_CURVE()
B_SPLINE_CURVE(5,(#1080,#1081,#1082,#1083,#1084,#1085,#1086,#1087,#1088,
#1089,#1090,#1091,#1092,#1093,#1094),.UNSPECIFIED.,.F.,.F.)
B_SPLINE_CURVE_WITH_KNOTS((6,1,1,1,1,1,1,1,1,1,6),(0.0223733388680775,0.1,
0.2,0.3,0.4,0.5,0.6,0.7,0.8,0.9,1.),.UNSPECIFIED.)
CURVE()
GEOMETRIC_REPRESENTATION_ITEM()
RATIONAL_B_SPLINE_CURVE((1.,1.,1.,1.,1.,1.,1.,1.,1.,1.,1.,1.,1.,1.,1.))
REPRESENTATION_ITEM('')
);
#48=(
BOUNDED_CURVE()
B_SPLINE_CURVE(5,(#1095,#1096,#1097,#1098,#1099,#1100,#1101,#1102,#1103,
#1104,#1105,#1106,#1107,#1108,#1109),.UNSPECIFIED.,.F.,.F.)
B_SPLINE_CURVE_WITH_KNOTS((6,1,1,1,1,1,1,1,1,1,6),(0.0223733388680774,0.1,
0.2,0.3,0.4,0.5,0.6,0.7,0.8,0.9,1.),.UNSPECIFIED.)
CURVE()
GEOMETRIC_REPRESENTATION_ITEM()
RATIONAL_B_SPLINE_CURVE((1.,1.,1.,1.,1.,1.,1.,1.,1.,1.,1.,1.,1.,1.,1.))
REPRESENTATION_ITEM('')
);
#49=(
BOUNDED_CURVE()
B_SPLINE_CURVE(5,(#1144,#1145,#1146,#1147,#1148,#1149,#1150,#1151,#1152,
#1153,#1154,#1155,#1156,#1157,#1158),.UNSPECIFIED.,.F.,.F.)
B_SPLINE_CURVE_WITH_KNOTS((6,1,1,1,1,1,1,1,1,1,6),(0.,0.1,0.2,0.3,0.4,0.5,
0.6,0.7,0.8,0.9,1.),.UNSPECIFIED.)
CURVE()
GEOMETRIC_REPRESENTATION_ITEM()
RATIONAL_B_SPLINE_CURVE((1.,1.,1.,1.,1.,1.,1.,1.,1.,1.,1.,1.,1.,1.,1.))
REPRESENTATION_ITEM('')
);
#50=(
BOUNDED_CURVE()
B_SPLINE_CURVE(5,(#1193,#1194,#1195,#1196,#1197,#1198,#1199,#1200,#1201,
#1202,#1203,#1204,#1205,#1206,#1207),.UNSPECIFIED.,.F.,.F.)
B_SPLINE_CURVE_WITH_KNOTS((6,1,1,1,1,1,1,1,1,1,6),(0.,0.1,0.2,0.3,0.4,0.5,
0.6,0.7,0.8,0.9,1.),.UNSPECIFIED.)
CURVE()
GEOMETRIC_REPRESENTATION_ITEM()
RATIONAL_B_SPLINE_CURVE((1.,1.,1.,1.,1.,1.,1.,1.,1.,1.,1.,1.,1.,1.,1.))
REPRESENTATION_ITEM('')
);
#51=B_SPLINE_CURVE_WITH_KNOTS('',3,(#831,#832,#833,#834,#835,#836),
 .UNSPECIFIED.,.F.,.F.,(4,2,4),(-0.5,-0.25,0.),.UNSPECIFIED.);
#52=B_SPLINE_CURVE_WITH_KNOTS('',3,(#840,#841,#842,#843,#844,#845),
 .UNSPECIFIED.,.F.,.F.,(4,2,4),(-0.5,-0.25,0.),.UNSPECIFIED.);
#53=FACE_OUTER_BOUND('',#83,.T.);
#54=FACE_OUTER_BOUND('',#84,.T.);
#55=FACE_OUTER_BOUND('',#85,.T.);
#56=FACE_OUTER_BOUND('',#86,.T.);
#57=FACE_OUTER_BOUND('',#87,.T.);
#58=FACE_OUTER_BOUND('',#88,.T.);
#59=FACE_OUTER_BOUND('',#89,.T.);
#60=FACE_OUTER_BOUND('',#90,.T.);
#61=FACE_OUTER_BOUND('',#92,.T.);
#62=FACE_OUTER_BOUND('',#93,.T.);
#63=FACE_OUTER_BOUND('',#95,.T.);
#64=FACE_OUTER_BOUND('',#96,.T.);
#65=FACE_OUTER_BOUND('',#97,.T.);
#66=FACE_OUTER_BOUND('',#100,.T.);
#67=FACE_OUTER_BOUND('',#101,.T.);
#68=FACE_OUTER_BOUND('',#102,.T.);
#69=FACE_OUTER_BOUND('',#104,.T.);
#70=FACE_OUTER_BOUND('',#105,.T.);
#71=FACE_OUTER_BOUND('',#107,.T.);
#72=FACE_OUTER_BOUND('',#108,.T.);
#73=FACE_OUTER_BOUND('',#109,.T.);
#74=FACE_OUTER_BOUND('',#110,.T.);
#75=FACE_OUTER_BOUND('',#111,.T.);
#76=FACE_OUTER_BOUND('',#112,.T.);
#77=FACE_OUTER_BOUND('',#113,.T.);
#78=FACE_OUTER_BOUND('',#114,.T.);
#79=FACE_OUTER_BOUND('',#115,.T.);
#80=FACE_OUTER_BOUND('',#116,.T.);
#81=FACE_OUTER_BOUND('',#117,.T.);
#82=FACE_OUTER_BOUND('',#119,.T.);
#83=EDGE_LOOP('',(#397,#398,#399,#400));
#84=EDGE_LOOP('',(#401,#402,#403,#404));
#85=EDGE_LOOP('',(#405,#406,#407,#408));
#86=EDGE_LOOP('',(#409,#410,#411,#412));
#87=EDGE_LOOP('',(#413,#414,#415,#416,#417,#418,#419,#420));
#88=EDGE_LOOP('',(#421,#422,#423,#424));
#89=EDGE_LOOP('',(#425,#426,#427,#428));
#90=EDGE_LOOP('',(#429,#430,#431,#432,#433));
#91=EDGE_LOOP('',(#434));
#92=EDGE_LOOP('',(#435,#436,#437,#438));
#93=EDGE_LOOP('',(#439,#440,#441,#442));
#94=EDGE_LOOP('',(#443,#444,#445,#446,#447,#448,#449,#450));
#95=EDGE_LOOP('',(#451,#452,#453,#454));
#96=EDGE_LOOP('',(#455,#456,#457,#458));
#97=EDGE_LOOP('',(#459,#460,#461,#462,#463,#464));
#98=EDGE_LOOP('',(#465));
#99=EDGE_LOOP('',(#466));
#100=EDGE_LOOP('',(#467,#468,#469,#470));
#101=EDGE_LOOP('',(#471,#472,#473,#474,#475,#476,#477,#478));
#102=EDGE_LOOP('',(#479,#480,#481,#482,#483,#484,#485,#486));
#103=EDGE_LOOP('',(#487,#488,#489,#490));
#104=EDGE_LOOP('',(#491,#492,#493,#494));
#105=EDGE_LOOP('',(#495,#496,#497,#498));
#106=EDGE_LOOP('',(#499,#500,#501,#502));
#107=EDGE_LOOP('',(#503,#504,#505,#506));
#108=EDGE_LOOP('',(#507,#508,#509,#510));
#109=EDGE_LOOP('',(#511,#512,#513,#514));
#110=EDGE_LOOP('',(#515,#516,#517,#518));
#111=EDGE_LOOP('',(#519,#520,#521,#522));
#112=EDGE_LOOP('',(#523,#524,#525,#526));
#113=EDGE_LOOP('',(#527,#528,#529,#530));
#114=EDGE_LOOP('',(#531,#532,#533,#534));
#115=EDGE_LOOP('',(#535,#536,#537,#538));
#116=EDGE_LOOP('',(#539,#540,#541,#542));
#117=EDGE_LOOP('',(#543,#544,#545,#546,#547));
#118=EDGE_LOOP('',(#548));
#119=EDGE_LOOP('',(#549,#550,#551,#552));
#120=EDGE_LOOP('',(#553,#554,#555,#556,#557,#558,#559,#560));
#121=EDGE_LOOP('',(#561));
#122=EDGE_LOOP('',(#562));
#123=EDGE_LOOP('',(#563));
#124=EDGE_LOOP('',(#564));
#125=LINE('',#805,#191);
#126=LINE('',#807,#192);
#127=LINE('',#809,#193);
#128=LINE('',#810,#194);
#129=LINE('',#813,#195);
#130=LINE('',#815,#196);
#131=LINE('',#816,#197);
#132=LINE('',#819,#198);
#133=LINE('',#821,#199);
#134=LINE('',#822,#200);
#135=LINE('',#824,#201);
#136=LINE('',#825,#202);
#137=LINE('',#829,#203);
#138=LINE('',#838,#204);
#139=LINE('',#847,#205);
#140=LINE('',#849,#206);
#141=LINE('',#851,#207);
#142=LINE('',#852,#208);
#143=LINE('',#855,#209);
#144=LINE('',#857,#210);
#145=LINE('',#858,#211);
#146=LINE('',#861,#212);
#147=LINE('',#863,#213);
#148=LINE('',#864,#214);
#149=LINE('',#867,#215);
#150=LINE('',#869,#216);
#151=LINE('',#889,#217);
#152=LINE('',#890,#218);
#153=LINE('',#894,#219);
#154=LINE('',#896,#220);
#155=LINE('',#898,#221);
#156=LINE('',#899,#222);
#157=LINE('',#901,#223);
#158=LINE('',#903,#224);
#159=LINE('',#905,#225);
#160=LINE('',#906,#226);
#161=LINE('',#910,#227);
#162=LINE('',#911,#228);
#163=LINE('',#912,#229);
#164=LINE('',#915,#230);
#165=LINE('',#916,#231);
#166=LINE('',#919,#232);
#167=LINE('',#937,#233);
#168=LINE('',#954,#234);
#169=LINE('',#961,#235);
#170=LINE('',#963,#236);
#171=LINE('',#964,#237);
#172=LINE('',#967,#238);
#173=LINE('',#969,#239);
#174=LINE('',#971,#240);
#175=LINE('',#972,#241);
#176=LINE('',#975,#242);
#177=LINE('',#977,#243);
#178=LINE('',#978,#244);
#179=LINE('',#981,#245);
#180=LINE('',#983,#246);
#181=LINE('',#984,#247);
#182=LINE('',#987,#248);
#183=LINE('',#988,#249);
#184=LINE('',#991,#250);
#185=LINE('',#992,#251);
#186=LINE('',#994,#252);
#187=LINE('',#997,#253);
#188=LINE('',#1048,#254);
#189=LINE('',#1112,#255);
#190=LINE('',#1161,#256);
#191=VECTOR('',#669,10.);
#192=VECTOR('',#670,10.);
#193=VECTOR('',#671,10.);
#194=VECTOR('',#672,10.);
#195=VECTOR('',#675,10.);
#196=VECTOR('',#676,10.);
#197=VECTOR('',#677,10.);
#198=VECTOR('',#680,10.);
#199=VECTOR('',#681,10.);
#200=VECTOR('',#682,10.);
#201=VECTOR('',#685,10.);
#202=VECTOR('',#686,10.);
#203=VECTOR('',#689,10.);
#204=VECTOR('',#690,10.);
#205=VECTOR('',#691,10.);
#206=VECTOR('',#692,10.);
#207=VECTOR('',#693,10.);
#208=VECTOR('',#694,10.);
#209=VECTOR('',#697,10.);
#210=VECTOR('',#698,10.);
#211=VECTOR('',#699,10.);
#212=VECTOR('',#702,10.);
#213=VECTOR('',#703,10.);
#214=VECTOR('',#704,10.);
#215=VECTOR('',#707,10.);
#216=VECTOR('',#708,10.);
#217=VECTOR('',#713,10.);
#218=VECTOR('',#714,10.);
#219=VECTOR('',#717,10.);
#220=VECTOR('',#718,10.);
#221=VECTOR('',#719,10.);
#222=VECTOR('',#720,10.);
#223=VECTOR('',#721,10.);
#224=VECTOR('',#722,10.);
#225=VECTOR('',#723,10.);
#226=VECTOR('',#724,10.);
#227=VECTOR('',#727,10.);
#228=VECTOR('',#728,10.);
#229=VECTOR('',#729,10.);
#230=VECTOR('',#732,10.);
#231=VECTOR('',#733,10.);
#232=VECTOR('',#736,10.);
#233=VECTOR('',#737,10.);
#234=VECTOR('',#738,10.);
#235=VECTOR('',#745,10.);
#236=VECTOR('',#746,10.);
#237=VECTOR('',#747,10.);
#238=VECTOR('',#750,10.);
#239=VECTOR('',#751,10.);
#240=VECTOR('',#752,10.);
#241=VECTOR('',#753,10.);
#242=VECTOR('',#756,10.);
#243=VECTOR('',#757,10.);
#244=VECTOR('',#758,10.);
#245=VECTOR('',#761,10.);
#246=VECTOR('',#762,10.);
#247=VECTOR('',#763,10.);
#248=VECTOR('',#766,10.);
#249=VECTOR('',#767,10.);
#250=VECTOR('',#770,10.);
#251=VECTOR('',#771,10.);
#252=VECTOR('',#774,10.);
#253=VECTOR('',#777,2.45);
#254=VECTOR('',#784,2.45);
#255=VECTOR('',#789,2.45000000000005);
#256=VECTOR('',#794,2.45000000000005);
#257=VERTEX_POINT('',#803);
#258=VERTEX_POINT('',#804);
#259=VERTEX_POINT('',#806);
#260=VERTEX_POINT('',#808);
#261=VERTEX_POINT('',#812);
#262=VERTEX_POINT('',#814);
#263=VERTEX_POINT('',#818);
#264=VERTEX_POINT('',#820);
#265=VERTEX_POINT('',#827);
#266=VERTEX_POINT('',#828);
#267=VERTEX_POINT('',#830);
#268=VERTEX_POINT('',#837);
#269=VERTEX_POINT('',#839);
#270=VERTEX_POINT('',#846);
#271=VERTEX_POINT('',#848);
#272=VERTEX_POINT('',#850);
#273=VERTEX_POINT('',#854);
#274=VERTEX_POINT('',#856);
#275=VERTEX_POINT('',#860);
#276=VERTEX_POINT('',#862);
#277=VERTEX_POINT('',#866);
#278=VERTEX_POINT('',#868);
#279=VERTEX_POINT('',#885);
#280=VERTEX_POINT('',#888);
#281=VERTEX_POINT('',#892);
#282=VERTEX_POINT('',#893);
#283=VERTEX_POINT('',#895);
#284=VERTEX_POINT('',#897);
#285=VERTEX_POINT('',#900);
#286=VERTEX_POINT('',#902);
#287=VERTEX_POINT('',#904);
#288=VERTEX_POINT('',#908);
#289=VERTEX_POINT('',#909);
#290=VERTEX_POINT('',#914);
#291=VERTEX_POINT('',#918);
#292=VERTEX_POINT('',#920);
#293=VERTEX_POINT('',#936);
#294=VERTEX_POINT('',#938);
#295=VERTEX_POINT('',#955);
#296=VERTEX_POINT('',#957);
#297=VERTEX_POINT('',#960);
#298=VERTEX_POINT('',#962);
#299=VERTEX_POINT('',#966);
#300=VERTEX_POINT('',#968);
#301=VERTEX_POINT('',#970);
#302=VERTEX_POINT('',#974);
#303=VERTEX_POINT('',#976);
#304=VERTEX_POINT('',#980);
#305=VERTEX_POINT('',#982);
#306=VERTEX_POINT('',#986);
#307=VERTEX_POINT('',#990);
#308=VERTEX_POINT('',#996);
#309=VERTEX_POINT('',#1045);
#310=VERTEX_POINT('',#1047);
#311=VERTEX_POINT('',#1111);
#312=VERTEX_POINT('',#1160);
#313=EDGE_CURVE('',#257,#258,#125,.T.);
#314=EDGE_CURVE('',#259,#257,#126,.T.);
#315=EDGE_CURVE('',#260,#259,#127,.T.);
#316=EDGE_CURVE('',#260,#258,#128,.T.);
#317=EDGE_CURVE('',#258,#261,#129,.T.);
#318=EDGE_CURVE('',#262,#260,#130,.T.);
#319=EDGE_CURVE('',#262,#261,#131,.T.);
#320=EDGE_CURVE('',#261,#263,#132,.T.);
#321=EDGE_CURVE('',#264,#262,#133,.T.);
#322=EDGE_CURVE('',#264,#263,#134,.T.);
#323=EDGE_CURVE('',#263,#257,#135,.T.);
#324=EDGE_CURVE('',#259,#264,#136,.T.);
#325=EDGE_CURVE('',#265,#266,#137,.T.);
#326=EDGE_CURVE('',#267,#265,#51,.T.);
#327=EDGE_CURVE('',#267,#268,#138,.T.);
#328=EDGE_CURVE('',#269,#268,#52,.T.);
#329=EDGE_CURVE('',#270,#269,#139,.T.);
#330=EDGE_CURVE('',#270,#271,#140,.T.);
#331=EDGE_CURVE('',#271,#272,#141,.T.);
#332=EDGE_CURVE('',#272,#266,#142,.T.);
#333=EDGE_CURVE('',#273,#270,#143,.T.);
#334=EDGE_CURVE('',#274,#273,#144,.T.);
#335=EDGE_CURVE('',#274,#271,#145,.T.);
#336=EDGE_CURVE('',#266,#275,#146,.T.);
#337=EDGE_CURVE('',#276,#272,#147,.T.);
#338=EDGE_CURVE('',#275,#276,#148,.T.);
#339=EDGE_CURVE('',#275,#277,#149,.T.);
#340=EDGE_CURVE('',#277,#278,#150,.T.);
#341=EDGE_CURVE('',#278,#265,#43,.T.);
#342=EDGE_CURVE('',#279,#279,#35,.T.);
#343=EDGE_CURVE('',#280,#276,#151,.T.);
#344=EDGE_CURVE('',#277,#280,#152,.T.);
#345=EDGE_CURVE('',#281,#282,#153,.T.);
#346=EDGE_CURVE('',#282,#283,#154,.T.);
#347=EDGE_CURVE('',#283,#284,#155,.T.);
#348=EDGE_CURVE('',#284,#281,#156,.T.);
#349=EDGE_CURVE('',#274,#285,#157,.T.);
#350=EDGE_CURVE('',#285,#286,#158,.T.);
#351=EDGE_CURVE('',#286,#287,#159,.T.);
#352=EDGE_CURVE('',#287,#280,#160,.T.);
#353=EDGE_CURVE('',#288,#289,#161,.T.);
#354=EDGE_CURVE('',#288,#287,#162,.T.);
#355=EDGE_CURVE('',#289,#286,#163,.T.);
#356=EDGE_CURVE('',#290,#273,#164,.T.);
#357=EDGE_CURVE('',#290,#285,#165,.T.);
#358=EDGE_CURVE('',#289,#291,#166,.T.);
#359=EDGE_CURVE('',#291,#292,#44,.T.);
#360=EDGE_CURVE('',#292,#293,#167,.T.);
#361=EDGE_CURVE('',#293,#294,#45,.T.);
#362=EDGE_CURVE('',#294,#288,#168,.T.);
#363=EDGE_CURVE('',#295,#295,#36,.T.);
#364=EDGE_CURVE('',#296,#296,#37,.T.);
#365=EDGE_CURVE('',#297,#292,#169,.T.);
#366=EDGE_CURVE('',#298,#297,#170,.T.);
#367=EDGE_CURVE('',#298,#293,#171,.T.);
#368=EDGE_CURVE('',#299,#291,#172,.T.);
#369=EDGE_CURVE('',#300,#290,#173,.T.);
#370=EDGE_CURVE('',#301,#300,#174,.T.);
#371=EDGE_CURVE('',#299,#301,#175,.T.);
#372=EDGE_CURVE('',#302,#294,#176,.T.);
#373=EDGE_CURVE('',#303,#302,#177,.T.);
#374=EDGE_CURVE('',#303,#278,#178,.T.);
#375=EDGE_CURVE('',#304,#282,#179,.T.);
#376=EDGE_CURVE('',#305,#304,#180,.T.);
#377=EDGE_CURVE('',#305,#283,#181,.T.);
#378=EDGE_CURVE('',#306,#305,#182,.T.);
#379=EDGE_CURVE('',#306,#284,#183,.T.);
#380=EDGE_CURVE('',#307,#306,#184,.T.);
#381=EDGE_CURVE('',#281,#307,#185,.T.);
#382=EDGE_CURVE('',#304,#307,#186,.T.);
#383=EDGE_CURVE('',#279,#308,#187,.T.);
#384=EDGE_CURVE('',#308,#308,#38,.T.);
#385=EDGE_CURVE('',#303,#267,#46,.T.);
#386=EDGE_CURVE('',#309,#309,#39,.T.);
#387=EDGE_CURVE('',#309,#310,#188,.T.);
#388=EDGE_CURVE('',#310,#310,#40,.T.);
#389=EDGE_CURVE('',#268,#301,#47,.T.);
#390=EDGE_CURVE('',#269,#300,#48,.T.);
#391=EDGE_CURVE('',#295,#311,#189,.T.);
#392=EDGE_CURVE('',#311,#311,#41,.T.);
#393=EDGE_CURVE('',#302,#298,#49,.T.);
#394=EDGE_CURVE('',#296,#312,#190,.T.);
#395=EDGE_CURVE('',#312,#312,#42,.T.);
#396=EDGE_CURVE('',#299,#297,#50,.T.);
#397=ORIENTED_EDGE('',*,*,#313,.F.);
#398=ORIENTED_EDGE('',*,*,#314,.F.);
#399=ORIENTED_EDGE('',*,*,#315,.F.);
#400=ORIENTED_EDGE('',*,*,#316,.T.);
#401=ORIENTED_EDGE('',*,*,#317,.F.);
#402=ORIENTED_EDGE('',*,*,#316,.F.);
#403=ORIENTED_EDGE('',*,*,#318,.F.);
#404=ORIENTED_EDGE('',*,*,#319,.T.);
#405=ORIENTED_EDGE('',*,*,#320,.F.);
#406=ORIENTED_EDGE('',*,*,#319,.F.);
#407=ORIENTED_EDGE('',*,*,#321,.F.);
#408=ORIENTED_EDGE('',*,*,#322,.T.);
#409=ORIENTED_EDGE('',*,*,#323,.F.);
#410=ORIENTED_EDGE('',*,*,#322,.F.);
#411=ORIENTED_EDGE('',*,*,#324,.F.);
#412=ORIENTED_EDGE('',*,*,#314,.T.);
#413=ORIENTED_EDGE('',*,*,#325,.F.);
#414=ORIENTED_EDGE('',*,*,#326,.F.);
#415=ORIENTED_EDGE('',*,*,#327,.T.);
#416=ORIENTED_EDGE('',*,*,#328,.F.);
#417=ORIENTED_EDGE('',*,*,#329,.F.);
#418=ORIENTED_EDGE('',*,*,#330,.T.);
#419=ORIENTED_EDGE('',*,*,#331,.T.);
#420=ORIENTED_EDGE('',*,*,#332,.T.);
#421=ORIENTED_EDGE('',*,*,#333,.F.);
#422=ORIENTED_EDGE('',*,*,#334,.F.);
#423=ORIENTED_EDGE('',*,*,#335,.T.);
#424=ORIENTED_EDGE('',*,*,#330,.F.);
#425=ORIENTED_EDGE('',*,*,#336,.F.);
#426=ORIENTED_EDGE('',*,*,#332,.F.);
#427=ORIENTED_EDGE('',*,*,#337,.F.);
#428=ORIENTED_EDGE('',*,*,#338,.F.);
#429=ORIENTED_EDGE('',*,*,#325,.T.);
#430=ORIENTED_EDGE('',*,*,#336,.T.);
#431=ORIENTED_EDGE('',*,*,#339,.T.);
#432=ORIENTED_EDGE('',*,*,#340,.T.);
#433=ORIENTED_EDGE('',*,*,#341,.T.);
#434=ORIENTED_EDGE('',*,*,#342,.T.);
#435=ORIENTED_EDGE('',*,*,#338,.T.);
#436=ORIENTED_EDGE('',*,*,#343,.F.);
#437=ORIENTED_EDGE('',*,*,#344,.F.);
#438=ORIENTED_EDGE('',*,*,#339,.F.);
#439=ORIENTED_EDGE('',*,*,#345,.T.);
#440=ORIENTED_EDGE('',*,*,#346,.T.);
#441=ORIENTED_EDGE('',*,*,#347,.T.);
#442=ORIENTED_EDGE('',*,*,#348,.T.);
#443=ORIENTED_EDGE('',*,*,#337,.T.);
#444=ORIENTED_EDGE('',*,*,#331,.F.);
#445=ORIENTED_EDGE('',*,*,#335,.F.);
#446=ORIENTED_EDGE('',*,*,#349,.T.);
#447=ORIENTED_EDGE('',*,*,#350,.T.);
#448=ORIENTED_EDGE('',*,*,#351,.T.);
#449=ORIENTED_EDGE('',*,*,#352,.T.);
#450=ORIENTED_EDGE('',*,*,#343,.T.);
#451=ORIENTED_EDGE('',*,*,#353,.F.);
#452=ORIENTED_EDGE('',*,*,#354,.T.);
#453=ORIENTED_EDGE('',*,*,#351,.F.);
#454=ORIENTED_EDGE('',*,*,#355,.F.);
#455=ORIENTED_EDGE('',*,*,#334,.T.);
#456=ORIENTED_EDGE('',*,*,#356,.F.);
#457=ORIENTED_EDGE('',*,*,#357,.T.);
#458=ORIENTED_EDGE('',*,*,#349,.F.);
#459=ORIENTED_EDGE('',*,*,#358,.T.);
#460=ORIENTED_EDGE('',*,*,#359,.T.);
#461=ORIENTED_EDGE('',*,*,#360,.T.);
#462=ORIENTED_EDGE('',*,*,#361,.T.);
#463=ORIENTED_EDGE('',*,*,#362,.T.);
#464=ORIENTED_EDGE('',*,*,#353,.T.);
#465=ORIENTED_EDGE('',*,*,#363,.T.);
#466=ORIENTED_EDGE('',*,*,#364,.T.);
#467=ORIENTED_EDGE('',*,*,#365,.F.);
#468=ORIENTED_EDGE('',*,*,#366,.F.);
#469=ORIENTED_EDGE('',*,*,#367,.T.);
#470=ORIENTED_EDGE('',*,*,#360,.F.);
#471=ORIENTED_EDGE('',*,*,#368,.T.);
#472=ORIENTED_EDGE('',*,*,#358,.F.);
#473=ORIENTED_EDGE('',*,*,#355,.T.);
#474=ORIENTED_EDGE('',*,*,#350,.F.);
#475=ORIENTED_EDGE('',*,*,#357,.F.);
#476=ORIENTED_EDGE('',*,*,#369,.F.);
#477=ORIENTED_EDGE('',*,*,#370,.F.);
#478=ORIENTED_EDGE('',*,*,#371,.F.);
#479=ORIENTED_EDGE('',*,*,#372,.F.);
#480=ORIENTED_EDGE('',*,*,#373,.F.);
#481=ORIENTED_EDGE('',*,*,#374,.T.);
#482=ORIENTED_EDGE('',*,*,#340,.F.);
#483=ORIENTED_EDGE('',*,*,#344,.T.);
#484=ORIENTED_EDGE('',*,*,#352,.F.);
#485=ORIENTED_EDGE('',*,*,#354,.F.);
#486=ORIENTED_EDGE('',*,*,#362,.F.);
#487=ORIENTED_EDGE('',*,*,#321,.T.);
#488=ORIENTED_EDGE('',*,*,#318,.T.);
#489=ORIENTED_EDGE('',*,*,#315,.T.);
#490=ORIENTED_EDGE('',*,*,#324,.T.);
#491=ORIENTED_EDGE('',*,*,#375,.F.);
#492=ORIENTED_EDGE('',*,*,#376,.F.);
#493=ORIENTED_EDGE('',*,*,#377,.T.);
#494=ORIENTED_EDGE('',*,*,#346,.F.);
#495=ORIENTED_EDGE('',*,*,#377,.F.);
#496=ORIENTED_EDGE('',*,*,#378,.F.);
#497=ORIENTED_EDGE('',*,*,#379,.T.);
#498=ORIENTED_EDGE('',*,*,#347,.F.);
#499=ORIENTED_EDGE('',*,*,#320,.T.);
#500=ORIENTED_EDGE('',*,*,#323,.T.);
#501=ORIENTED_EDGE('',*,*,#313,.T.);
#502=ORIENTED_EDGE('',*,*,#317,.T.);
#503=ORIENTED_EDGE('',*,*,#379,.F.);
#504=ORIENTED_EDGE('',*,*,#380,.F.);
#505=ORIENTED_EDGE('',*,*,#381,.F.);
#506=ORIENTED_EDGE('',*,*,#348,.F.);
#507=ORIENTED_EDGE('',*,*,#381,.T.);
#508=ORIENTED_EDGE('',*,*,#382,.F.);
#509=ORIENTED_EDGE('',*,*,#375,.T.);
#510=ORIENTED_EDGE('',*,*,#345,.F.);
#511=ORIENTED_EDGE('',*,*,#342,.F.);
#512=ORIENTED_EDGE('',*,*,#383,.T.);
#513=ORIENTED_EDGE('',*,*,#384,.T.);
#514=ORIENTED_EDGE('',*,*,#383,.F.);
#515=ORIENTED_EDGE('',*,*,#326,.T.);
#516=ORIENTED_EDGE('',*,*,#341,.F.);
#517=ORIENTED_EDGE('',*,*,#374,.F.);
#518=ORIENTED_EDGE('',*,*,#385,.T.);
#519=ORIENTED_EDGE('',*,*,#386,.F.);
#520=ORIENTED_EDGE('',*,*,#387,.T.);
#521=ORIENTED_EDGE('',*,*,#388,.T.);
#522=ORIENTED_EDGE('',*,*,#387,.F.);
#523=ORIENTED_EDGE('',*,*,#328,.T.);
#524=ORIENTED_EDGE('',*,*,#389,.T.);
#525=ORIENTED_EDGE('',*,*,#370,.T.);
#526=ORIENTED_EDGE('',*,*,#390,.F.);
#527=ORIENTED_EDGE('',*,*,#363,.F.);
#528=ORIENTED_EDGE('',*,*,#391,.T.);
#529=ORIENTED_EDGE('',*,*,#392,.T.);
#530=ORIENTED_EDGE('',*,*,#391,.F.);
#531=ORIENTED_EDGE('',*,*,#393,.F.);
#532=ORIENTED_EDGE('',*,*,#372,.T.);
#533=ORIENTED_EDGE('',*,*,#361,.F.);
#534=ORIENTED_EDGE('',*,*,#367,.F.);
#535=ORIENTED_EDGE('',*,*,#364,.F.);
#536=ORIENTED_EDGE('',*,*,#394,.T.);
#537=ORIENTED_EDGE('',*,*,#395,.T.);
#538=ORIENTED_EDGE('',*,*,#394,.F.);
#539=ORIENTED_EDGE('',*,*,#396,.T.);
#540=ORIENTED_EDGE('',*,*,#365,.T.);
#541=ORIENTED_EDGE('',*,*,#359,.F.);
#542=ORIENTED_EDGE('',*,*,#368,.F.);
#543=ORIENTED_EDGE('',*,*,#329,.T.);
#544=ORIENTED_EDGE('',*,*,#390,.T.);
#545=ORIENTED_EDGE('',*,*,#369,.T.);
#546=ORIENTED_EDGE('',*,*,#356,.T.);
#547=ORIENTED_EDGE('',*,*,#333,.T.);
#548=ORIENTED_EDGE('',*,*,#386,.T.);
#549=ORIENTED_EDGE('',*,*,#382,.T.);
#550=ORIENTED_EDGE('',*,*,#380,.T.);
#551=ORIENTED_EDGE('',*,*,#378,.T.);
#552=ORIENTED_EDGE('',*,*,#376,.T.);
#553=ORIENTED_EDGE('',*,*,#385,.F.);
#554=ORIENTED_EDGE('',*,*,#373,.T.);
#555=ORIENTED_EDGE('',*,*,#393,.T.);
#556=ORIENTED_EDGE('',*,*,#366,.T.);
#557=ORIENTED_EDGE('',*,*,#396,.F.);
#558=ORIENTED_EDGE('',*,*,#371,.T.);
#559=ORIENTED_EDGE('',*,*,#389,.F.);
#560=ORIENTED_EDGE('',*,*,#327,.F.);
#561=ORIENTED_EDGE('',*,*,#392,.F.);
#562=ORIENTED_EDGE('',*,*,#384,.F.);
#563=ORIENTED_EDGE('',*,*,#388,.F.);
#564=ORIENTED_EDGE('',*,*,#395,.F.);
#565=PLANE('',#631);
#566=PLANE('',#632);
#567=PLANE('',#633);
#568=PLANE('',#634);
#569=PLANE('',#635);
#570=PLANE('',#636);
#571=PLANE('',#637);
#572=PLANE('',#638);
#573=PLANE('',#640);
#574=PLANE('',#641);
#575=PLANE('',#642);
#576=PLANE('',#643);
#577=PLANE('',#644);
#578=PLANE('',#647);
#579=PLANE('',#648);
#580=PLANE('',#649);
#581=PLANE('',#650);
#582=PLANE('',#651);
#583=PLANE('',#652);
#584=PLANE('',#653);
#585=PLANE('',#663);
#586=PLANE('',#664);
#587=ADVANCED_FACE('',(#53),#565,.F.);
#588=ADVANCED_FACE('',(#54),#566,.F.);
#589=ADVANCED_FACE('',(#55),#567,.F.);
#590=ADVANCED_FACE('',(#56),#568,.F.);
#591=ADVANCED_FACE('',(#57),#569,.T.);
#592=ADVANCED_FACE('',(#58),#570,.T.);
#593=ADVANCED_FACE('',(#59),#571,.T.);
#594=ADVANCED_FACE('',(#60,#23),#572,.T.);
#595=ADVANCED_FACE('',(#61),#573,.T.);
#596=ADVANCED_FACE('',(#62,#24),#574,.T.);
#597=ADVANCED_FACE('',(#63),#575,.T.);
#598=ADVANCED_FACE('',(#64),#576,.T.);
#599=ADVANCED_FACE('',(#65,#25,#26),#577,.T.);
#600=ADVANCED_FACE('',(#66),#578,.T.);
#601=ADVANCED_FACE('',(#67),#579,.T.);
#602=ADVANCED_FACE('',(#68,#27),#580,.T.);
#603=ADVANCED_FACE('',(#69),#581,.T.);
#604=ADVANCED_FACE('',(#70,#28),#582,.T.);
#605=ADVANCED_FACE('',(#71),#583,.T.);
#606=ADVANCED_FACE('',(#72),#584,.T.);
#607=ADVANCED_FACE('',(#73),#19,.F.);
#608=ADVANCED_FACE('',(#74),#15,.T.);
#609=ADVANCED_FACE('',(#75),#20,.F.);
#610=ADVANCED_FACE('',(#76),#16,.T.);
#611=ADVANCED_FACE('',(#77),#21,.F.);
#612=ADVANCED_FACE('',(#78),#17,.T.);
#613=ADVANCED_FACE('',(#79),#22,.F.);
#614=ADVANCED_FACE('',(#80),#18,.T.);
#615=ADVANCED_FACE('',(#81,#29),#585,.T.);
#616=ADVANCED_FACE('',(#82,#30,#31,#32,#33,#34),#586,.F.);
#617=CLOSED_SHELL('',(#587,#588,#589,#590,#591,#592,#593,#594,#595,#596,
#597,#598,#599,#600,#601,#602,#603,#604,#605,#606,#607,#608,#609,#610,#611,
#612,#613,#614,#615,#616));
#618=DERIVED_UNIT_ELEMENT(#620,1.);
#619=DERIVED_UNIT_ELEMENT(#1215,-3.);
#620=(
MASS_UNIT()
NAMED_UNIT(*)
SI_UNIT(.KILO.,.GRAM.)
);
#621=DERIVED_UNIT((#618,#619));
#622=MEASURE_REPRESENTATION_ITEM('density measure',
POSITIVE_RATIO_MEASURE(7850.),#621);
#623=PROPERTY_DEFINITION_REPRESENTATION(#628,#625);
#624=PROPERTY_DEFINITION_REPRESENTATION(#629,#626);
#625=REPRESENTATION('material name',(#627),#1212);
#626=REPRESENTATION('density',(#622),#1212);
#627=DESCRIPTIVE_REPRESENTATION_ITEM('Steel','Steel');
#628=PROPERTY_DEFINITION('material property','material name',#1222);
#629=PROPERTY_DEFINITION('material property','density of part',#1222);
#630=AXIS2_PLACEMENT_3D('',#801,#665,#666);
#631=AXIS2_PLACEMENT_3D('',#802,#667,#668);
#632=AXIS2_PLACEMENT_3D('',#811,#673,#674);
#633=AXIS2_PLACEMENT_3D('',#817,#678,#679);
#634=AXIS2_PLACEMENT_3D('',#823,#683,#684);
#635=AXIS2_PLACEMENT_3D('',#826,#687,#688);
#636=AXIS2_PLACEMENT_3D('',#853,#695,#696);
#637=AXIS2_PLACEMENT_3D('',#859,#700,#701);
#638=AXIS2_PLACEMENT_3D('',#865,#705,#706);
#639=AXIS2_PLACEMENT_3D('',#886,#709,#710);
#640=AXIS2_PLACEMENT_3D('',#887,#711,#712);
#641=AXIS2_PLACEMENT_3D('',#891,#715,#716);
#642=AXIS2_PLACEMENT_3D('',#907,#725,#726);
#643=AXIS2_PLACEMENT_3D('',#913,#730,#731);
#644=AXIS2_PLACEMENT_3D('',#917,#734,#735);
#645=AXIS2_PLACEMENT_3D('',#956,#739,#740);
#646=AXIS2_PLACEMENT_3D('',#958,#741,#742);
#647=AXIS2_PLACEMENT_3D('',#959,#743,#744);
#648=AXIS2_PLACEMENT_3D('',#965,#748,#749);
#649=AXIS2_PLACEMENT_3D('',#973,#754,#755);
#650=AXIS2_PLACEMENT_3D('',#979,#759,#760);
#651=AXIS2_PLACEMENT_3D('',#985,#764,#765);
#652=AXIS2_PLACEMENT_3D('',#989,#768,#769);
#653=AXIS2_PLACEMENT_3D('',#993,#772,#773);
#654=AXIS2_PLACEMENT_3D('',#995,#775,#776);
#655=AXIS2_PLACEMENT_3D('',#998,#778,#779);
#656=AXIS2_PLACEMENT_3D('',#1044,#780,#781);
#657=AXIS2_PLACEMENT_3D('',#1046,#782,#783);
#658=AXIS2_PLACEMENT_3D('',#1049,#785,#786);
#659=AXIS2_PLACEMENT_3D('',#1110,#787,#788);
#660=AXIS2_PLACEMENT_3D('',#1113,#790,#791);
#661=AXIS2_PLACEMENT_3D('',#1159,#792,#793);
#662=AXIS2_PLACEMENT_3D('',#1162,#795,#796);
#663=AXIS2_PLACEMENT_3D('',#1208,#797,#798);
#664=AXIS2_PLACEMENT_3D('',#1209,#799,#800);
#665=DIRECTION('axis',(0.,0.,1.));
#666=DIRECTION('refdir',(1.,0.,0.));
#667=DIRECTION('center_axis',(-1.,0.,0.));
#668=DIRECTION('ref_axis',(0.,0.,1.));
#669=DIRECTION('',(0.,0.,-1.));
#670=DIRECTION('',(0.,1.,0.));
#671=DIRECTION('',(0.,0.,1.));
#672=DIRECTION('',(0.,1.,0.));
#673=DIRECTION('center_axis',(0.,0.,-1.));
#674=DIRECTION('ref_axis',(-1.,0.,0.));
#675=DIRECTION('',(1.,0.,0.));
#676=DIRECTION('',(-1.,0.,0.));
#677=DIRECTION('',(0.,1.,0.));
#678=DIRECTION('center_axis',(1.,0.,0.));
#679=DIRECTION('ref_axis',(0.,0.,-1.));
#680=DIRECTION('',(0.,0.,1.));
#681=DIRECTION('',(0.,0.,-1.));
#682=DIRECTION('',(0.,1.,0.));
#683=DIRECTION('center_axis',(0.,0.,1.));
#684=DIRECTION('ref_axis',(1.,0.,0.));
#685=DIRECTION('',(-1.,0.,0.));
#686=DIRECTION('',(1.,0.,0.));
#687=DIRECTION('center_axis',(1.,0.,0.));
#688=DIRECTION('ref_axis',(0.,0.,-1.));
#689=DIRECTION('',(0.,1.,0.));
#690=DIRECTION('',(0.,-1.,0.));
#691=DIRECTION('',(0.,1.,0.));
#692=DIRECTION('',(0.,0.,-1.));
#693=DIRECTION('',(-4.39129873378323E-17,1.,0.));
#694=DIRECTION('',(0.,0.,1.));
#695=DIRECTION('center_axis',(0.,-1.,0.));
#696=DIRECTION('ref_axis',(0.,0.,-1.));
#697=DIRECTION('',(1.,0.,0.));
#698=DIRECTION('',(0.,0.,1.));
#699=DIRECTION('',(1.,0.,0.));
#700=DIRECTION('center_axis',(0.,1.,0.));
#701=DIRECTION('ref_axis',(0.,0.,1.));
#702=DIRECTION('',(-1.,0.,0.));
#703=DIRECTION('',(1.,0.,0.));
#704=DIRECTION('',(0.,0.,-1.));
#705=DIRECTION('center_axis',(0.,0.,-1.));
#706=DIRECTION('ref_axis',(1.,0.,0.));
#707=DIRECTION('',(2.6824180460742E-16,1.,0.));
#708=DIRECTION('',(1.,0.,0.));
#709=DIRECTION('center_axis',(0.,0.,1.));
#710=DIRECTION('ref_axis',(1.,0.,0.));
#711=DIRECTION('center_axis',(1.,-2.6824180460742E-16,0.));
#712=DIRECTION('ref_axis',(-2.6824180460742E-16,-1.,0.));
#713=DIRECTION('',(-2.6824180460742E-16,-1.,0.));
#714=DIRECTION('',(0.,0.,-1.));
#715=DIRECTION('center_axis',(0.,0.,-1.));
#716=DIRECTION('ref_axis',(1.,0.,0.));
#717=DIRECTION('',(-1.,0.,0.));
#718=DIRECTION('',(0.,1.,0.));
#719=DIRECTION('',(1.,0.,0.));
#720=DIRECTION('',(0.,-1.,0.));
#721=DIRECTION('',(-2.6824180460742E-16,-1.,0.));
#722=DIRECTION('',(1.,0.,0.));
#723=DIRECTION('',(0.,1.,0.));
#724=DIRECTION('',(-1.,0.,0.));
#725=DIRECTION('center_axis',(-1.,0.,0.));
#726=DIRECTION('ref_axis',(0.,1.,0.));
#727=DIRECTION('',(0.,-1.,0.));
#728=DIRECTION('',(0.,0.,-1.));
#729=DIRECTION('',(0.,0.,-1.));
#730=DIRECTION('center_axis',(1.,-2.6824180460742E-16,0.));
#731=DIRECTION('ref_axis',(-2.6824180460742E-16,-1.,0.));
#732=DIRECTION('',(2.6824180460742E-16,1.,0.));
#733=DIRECTION('',(0.,0.,-1.));
#734=DIRECTION('center_axis',(0.,0.,-1.));
#735=DIRECTION('ref_axis',(1.,0.,0.));
#736=DIRECTION('',(-1.,0.,0.));
#737=DIRECTION('',(0.,1.,0.));
#738=DIRECTION('',(1.,0.,0.));
#739=DIRECTION('center_axis',(0.,0.,1.));
#740=DIRECTION('ref_axis',(1.,0.,0.));
#741=DIRECTION('center_axis',(0.,0.,1.));
#742=DIRECTION('ref_axis',(1.,0.,0.));
#743=DIRECTION('center_axis',(-1.,0.,0.));
#744=DIRECTION('ref_axis',(0.,-1.,0.));
#745=DIRECTION('',(0.,0.,-1.));
#746=DIRECTION('',(0.,-1.,0.));
#747=DIRECTION('',(0.,0.,-1.));
#748=DIRECTION('center_axis',(0.,1.,0.));
#749=DIRECTION('ref_axis',(-1.,0.,0.));
#750=DIRECTION('',(0.,0.,-1.));
#751=DIRECTION('',(-1.,0.,0.));
#752=DIRECTION('',(0.,0.,-1.));
#753=DIRECTION('',(-1.,0.,0.));
#754=DIRECTION('center_axis',(0.,-1.,0.));
#755=DIRECTION('ref_axis',(1.,0.,0.));
#756=DIRECTION('',(0.,0.,-1.));
#757=DIRECTION('',(1.,0.,0.));
#758=DIRECTION('',(0.,0.,-1.));
#759=DIRECTION('center_axis',(-1.,0.,0.));
#760=DIRECTION('ref_axis',(0.,-1.,0.));
#761=DIRECTION('',(0.,0.,-1.));
#762=DIRECTION('',(0.,-1.,0.));
#763=DIRECTION('',(0.,0.,-1.));
#764=DIRECTION('center_axis',(0.,1.,0.));
#765=DIRECTION('ref_axis',(-1.,0.,0.));
#766=DIRECTION('',(-1.,0.,0.));
#767=DIRECTION('',(0.,0.,-1.));
#768=DIRECTION('center_axis',(1.,0.,0.));
#769=DIRECTION('ref_axis',(0.,1.,0.));
#770=DIRECTION('',(0.,1.,0.));
#771=DIRECTION('',(0.,0.,1.));
#772=DIRECTION('center_axis',(0.,-1.,0.));
#773=DIRECTION('ref_axis',(1.,0.,0.));
#774=DIRECTION('',(1.,0.,0.));
#775=DIRECTION('center_axis',(0.,0.,-1.));
#776=DIRECTION('ref_axis',(1.,0.,0.));
#777=DIRECTION('',(0.,0.,1.));
#778=DIRECTION('center_axis',(0.,0.,1.));
#779=DIRECTION('ref_axis',(1.,0.,0.));
#780=DIRECTION('center_axis',(0.,0.,-1.));
#781=DIRECTION('ref_axis',(1.,0.,0.));
#782=DIRECTION('center_axis',(0.,0.,1.));
#783=DIRECTION('ref_axis',(1.,0.,0.));
#784=DIRECTION('',(0.,0.,1.));
#785=DIRECTION('center_axis',(0.,0.,1.));
#786=DIRECTION('ref_axis',(1.,0.,0.));
#787=DIRECTION('center_axis',(0.,0.,-1.));
#788=DIRECTION('ref_axis',(1.,0.,0.));
#789=DIRECTION('',(0.,0.,1.));
#790=DIRECTION('center_axis',(0.,0.,1.));
#791=DIRECTION('ref_axis',(1.,0.,0.));
#792=DIRECTION('center_axis',(0.,0.,-1.));
#793=DIRECTION('ref_axis',(1.,0.,0.));
#794=DIRECTION('',(0.,0.,1.));
#795=DIRECTION('center_axis',(0.,0.,1.));
#796=DIRECTION('ref_axis',(1.,0.,0.));
#797=DIRECTION('center_axis',(0.,0.,-1.));
#798=DIRECTION('ref_axis',(1.,0.,0.));
#799=DIRECTION('center_axis',(0.,0.,-1.));
#800=DIRECTION('ref_axis',(1.,0.,0.));
#801=CARTESIAN_POINT('',(0.,0.,0.));
#802=CARTESIAN_POINT('Origin',(50.0000007450581,394.866907404107,-10.0000000745058));
#803=CARTESIAN_POINT('',(50.0000007450581,404.866907404107,-5.00000007450581));
#804=CARTESIAN_POINT('',(50.0000007450581,404.866907404107,-10.0000000745058));
#805=CARTESIAN_POINT('',(50.0000007450581,404.866907404107,-7.5000000372529));
#806=CARTESIAN_POINT('',(50.0000007450581,394.866907404107,-5.00000007450581));
#807=CARTESIAN_POINT('',(50.0000007450581,394.866907404107,-5.00000007450581));
#808=CARTESIAN_POINT('',(50.0000007450581,394.866907404107,-10.0000000745058));
#809=CARTESIAN_POINT('',(50.0000007450581,394.866907404107,-7.5000000372529));
#810=CARTESIAN_POINT('',(50.0000007450581,394.866907404107,-10.0000000745058));
#811=CARTESIAN_POINT('Origin',(74.0000007450581,394.866907404107,-10.0000000745058));
#812=CARTESIAN_POINT('',(74.0000007450581,404.866907404107,-10.0000000745058));
#813=CARTESIAN_POINT('',(246.222209216632,404.866907404107,-10.0000000745058));
#814=CARTESIAN_POINT('',(74.0000007450581,394.866907404107,-10.0000000745058));
#815=CARTESIAN_POINT('',(47.2222092166322,394.866907404107,-10.0000000745058));
#816=CARTESIAN_POINT('',(74.0000007450581,394.866907404107,-10.0000000745058));
#817=CARTESIAN_POINT('Origin',(74.0000007450581,394.866907404107,-5.00000007450581));
#818=CARTESIAN_POINT('',(74.0000007450581,404.866907404107,-5.00000007450581));
#819=CARTESIAN_POINT('',(74.000000745058,404.866907404107,-5.0000000372529));
#820=CARTESIAN_POINT('',(74.0000007450581,394.866907404107,-5.00000007450581));
#821=CARTESIAN_POINT('',(74.0000007450581,394.866907404107,-5.0000000372529));
#822=CARTESIAN_POINT('',(74.0000007450581,394.866907404107,-5.00000007450581));
#823=CARTESIAN_POINT('Origin',(50.0000007450581,394.866907404107,-5.00000007450581));
#824=CARTESIAN_POINT('',(234.222209216632,404.866907404107,-5.00000007450581));
#825=CARTESIAN_POINT('',(35.2222092166322,394.866907404107,-5.00000007450581));
#826=CARTESIAN_POINT('Origin',(22.0044176882063,245.866907404107,-5.));
#827=CARTESIAN_POINT('',(22.0044176882063,370.943189415977,-5.));
#828=CARTESIAN_POINT('',(22.0044176882063,371.130704136518,-5.));
#829=CARTESIAN_POINT('',(22.0044176882063,252.669302744106,-5.));
#830=CARTESIAN_POINT('',(22.0044176882063,370.943189415977,0.));
#831=CARTESIAN_POINT('Ctrl Pts',(22.0044176882063,370.943189415977,0.));
#832=CARTESIAN_POINT('Ctrl Pts',(22.0044176882063,370.943189415977,-0.833333333333333));
#833=CARTESIAN_POINT('Ctrl Pts',(22.0044176882063,370.943189415977,-1.66666666666667));
#834=CARTESIAN_POINT('Ctrl Pts',(22.0044176882063,370.943189415977,-3.33333333333333));
#835=CARTESIAN_POINT('Ctrl Pts',(22.0044176882063,370.943189415977,-4.16666666666667));
#836=CARTESIAN_POINT('Ctrl Pts',(22.0044176882063,370.943189415977,-5.));
#837=CARTESIAN_POINT('',(22.0044176882063,270.468072711784,0.));
#838=CARTESIAN_POINT('',(22.0044176882063,394.866907404107,0.));
#839=CARTESIAN_POINT('',(22.0044176882063,270.468072711784,-5.));
#840=CARTESIAN_POINT('Ctrl Pts',(22.0044176882063,270.468072711784,-5.));
#841=CARTESIAN_POINT('Ctrl Pts',(22.0044176882063,270.468072711784,-4.16666666666667));
#842=CARTESIAN_POINT('Ctrl Pts',(22.0044176882063,270.468072711784,-3.33333333333333));
#843=CARTESIAN_POINT('Ctrl Pts',(22.0044176882063,270.468072711784,-1.66666666666667));
#844=CARTESIAN_POINT('Ctrl Pts',(22.0044176882063,270.468072711784,-0.833333333333333));
#845=CARTESIAN_POINT('Ctrl Pts',(22.0044176882063,270.468072711784,0.));
#846=CARTESIAN_POINT('',(22.0044176882063,270.001348842699,-5.));
#847=CARTESIAN_POINT('',(22.0044176882063,252.669302744106,-5.));
#848=CARTESIAN_POINT('',(22.0044176882063,270.001348842699,-15.));
#849=CARTESIAN_POINT('',(22.0044176882063,270.001348842699,0.));
#850=CARTESIAN_POINT('',(22.0044176882063,371.130704136518,-15.));
#851=CARTESIAN_POINT('',(22.0044176882063,371.130704136518,-15.));
#852=CARTESIAN_POINT('',(22.0044176882063,371.130704136518,-5.));
#853=CARTESIAN_POINT('Origin',(20.4444176882063,270.001348842699,0.));
#854=CARTESIAN_POINT('',(22.,270.001348842699,-5.));
#855=CARTESIAN_POINT('',(205.334797340924,270.001348842699,-5.));
#856=CARTESIAN_POINT('',(22.,270.001348842699,-15.));
#857=CARTESIAN_POINT('',(22.,270.001348842699,-2.5));
#858=CARTESIAN_POINT('',(20.4444176882063,270.001348842699,-15.));
#859=CARTESIAN_POINT('Origin',(20.4444176882063,371.130704136518,-15.));
#860=CARTESIAN_POINT('',(22.,371.130704136518,-5.));
#861=CARTESIAN_POINT('',(205.334797340924,371.130704136518,-5.));
#862=CARTESIAN_POINT('',(22.,371.130704136518,-15.));
#863=CARTESIAN_POINT('',(20.4444176882063,371.130704136518,-15.));
#864=CARTESIAN_POINT('',(22.,371.130704136518,-10.));
#865=CARTESIAN_POINT('Origin',(390.225176993641,259.471698084105,-5.));
#866=CARTESIAN_POINT('',(22.,394.866907404107,-5.));
#867=CARTESIAN_POINT('',(22.,327.169302744106,-5.));
#868=CARTESIAN_POINT('',(45.0017151193593,394.866907404107,-5.));
#869=CARTESIAN_POINT('',(397.612588496821,394.866907404107,-5.));
#870=CARTESIAN_POINT('Ctrl Pts',(45.0017151193593,394.866907404107,-5.));
#871=CARTESIAN_POINT('Ctrl Pts',(45.4104029523259,393.72013812307,-5.));
#872=CARTESIAN_POINT('Ctrl Pts',(46.1472419696699,391.486748746873,-5.));
#873=CARTESIAN_POINT('Ctrl Pts',(47.0108874728069,388.317114538365,-5.));
#874=CARTESIAN_POINT('Ctrl Pts',(47.6712655473394,384.457752798388,-5.));
#875=CARTESIAN_POINT('Ctrl Pts',(47.6243565451351,380.285093041022,-5.));
#876=CARTESIAN_POINT('Ctrl Pts',(46.6340108288019,376.817043560592,-5.));
#877=CARTESIAN_POINT('Ctrl Pts',(44.6339644402673,374.103093914879,-5.));
#878=CARTESIAN_POINT('Ctrl Pts',(41.6080158791588,372.155344272803,-5.));
#879=CARTESIAN_POINT('Ctrl Pts',(37.6168166071474,370.92849679657,-5.));
#880=CARTESIAN_POINT('Ctrl Pts',(32.968622633107,370.387844759911,-5.));
#881=CARTESIAN_POINT('Ctrl Pts',(28.7235175703808,370.387682613066,-5.));
#882=CARTESIAN_POINT('Ctrl Pts',(25.315173234932,370.60412046108,-5.));
#883=CARTESIAN_POINT('Ctrl Pts',(23.0221093547513,370.829144496935,-5.));
#884=CARTESIAN_POINT('Ctrl Pts',(22.0044176882063,370.943189415977,-5.));
#885=CARTESIAN_POINT('',(27.4894176882063,388.768907404107,-5.));
#886=CARTESIAN_POINT('Origin',(29.9394176882063,388.768907404107,-5.));
#887=CARTESIAN_POINT('Origin',(22.,394.866907404107,-5.));
#888=CARTESIAN_POINT('',(22.,394.866907404107,-15.));
#889=CARTESIAN_POINT('',(22.,394.866907404107,-15.));
#890=CARTESIAN_POINT('',(22.,394.866907404107,-5.));
#891=CARTESIAN_POINT('Origin',(211.944417688206,320.366907404107,-15.));
#892=CARTESIAN_POINT('',(418.444417688206,235.866907404107,-15.));
#893=CARTESIAN_POINT('',(5.44441768820633,235.866907404107,-15.));
#894=CARTESIAN_POINT('',(5.44441768820633,235.866907404107,-15.));
#895=CARTESIAN_POINT('',(5.44441768820633,404.866907404107,-15.));
#896=CARTESIAN_POINT('',(5.44441768820633,404.866907404107,-15.));
#897=CARTESIAN_POINT('',(418.444417688206,404.866907404107,-15.));
#898=CARTESIAN_POINT('',(418.444417688206,404.866907404107,-15.));
#899=CARTESIAN_POINT('',(418.444417688206,235.866907404107,-15.));
#900=CARTESIAN_POINT('',(22.,245.866907404107,-15.));
#901=CARTESIAN_POINT('',(22.,394.866907404107,-15.));
#902=CARTESIAN_POINT('',(405.,245.866907404107,-15.));
#903=CARTESIAN_POINT('',(22.,245.866907404107,-15.));
#904=CARTESIAN_POINT('',(405.,394.866907404107,-15.));
#905=CARTESIAN_POINT('',(405.,245.866907404107,-15.));
#906=CARTESIAN_POINT('',(405.,394.866907404107,-15.));
#907=CARTESIAN_POINT('Origin',(405.,245.866907404107,-5.));
#908=CARTESIAN_POINT('',(405.,394.866907404107,-5.));
#909=CARTESIAN_POINT('',(405.,245.866907404107,-5.));
#910=CARTESIAN_POINT('',(405.,252.669302744106,-5.));
#911=CARTESIAN_POINT('',(405.,394.866907404107,-5.));
#912=CARTESIAN_POINT('',(405.,245.866907404107,-5.));
#913=CARTESIAN_POINT('Origin',(22.,270.466791216605,-5.));
#914=CARTESIAN_POINT('',(22.,245.866907404107,-5.));
#915=CARTESIAN_POINT('',(22.,264.969244650355,-5.));
#916=CARTESIAN_POINT('',(22.,245.866907404107,-5.));
#917=CARTESIAN_POINT('Origin',(390.225176993641,259.471698084105,-5.));
#918=CARTESIAN_POINT('',(379.99966249438,245.866907404107,-5.));
#919=CARTESIAN_POINT('',(206.112588496821,245.866907404107,-5.));
#920=CARTESIAN_POINT('',(403.444417688206,269.866131031874,-5.));
#921=CARTESIAN_POINT('Ctrl Pts',(379.99966249438,245.866907404107,-5.));
#922=CARTESIAN_POINT('Ctrl Pts',(379.574064767062,247.272575164865,-5.));
#923=CARTESIAN_POINT('Ctrl Pts',(378.800658055223,250.003409494326,-5.));
#924=CARTESIAN_POINT('Ctrl Pts',(377.873905494837,253.85816643746,-5.));
#925=CARTESIAN_POINT('Ctrl Pts',(377.112704184868,258.50682913465,-5.));
#926=CARTESIAN_POINT('Ctrl Pts',(377.005936299076,263.443468368422,-5.));
#927=CARTESIAN_POINT('Ctrl Pts',(377.820491976049,267.426658010069,-5.));
#928=CARTESIAN_POINT('Ctrl Pts',(379.633289883561,270.37679728145,-5.));
#929=CARTESIAN_POINT('Ctrl Pts',(382.489438802304,272.247204484224,-5.));
#930=CARTESIAN_POINT('Ctrl Pts',(386.351630503269,273.076488764103,-5.));
#931=CARTESIAN_POINT('Ctrl Pts',(391.145587614483,272.941517502801,-5.));
#932=CARTESIAN_POINT('Ctrl Pts',(395.665844137943,272.124560930739,-5.));
#933=CARTESIAN_POINT('Ctrl Pts',(399.417030086809,271.138262305004,-5.));
#934=CARTESIAN_POINT('Ctrl Pts',(402.075649705722,270.317397494334,-5.));
#935=CARTESIAN_POINT('Ctrl Pts',(403.444417688206,269.866131031874,-5.));
#936=CARTESIAN_POINT('',(403.444417688206,375.241348222525,-5.));
#937=CARTESIAN_POINT('',(403.444417688206,245.866907404107,-5.));
#938=CARTESIAN_POINT('',(380.086893634438,394.866907404107,-5.));
#939=CARTESIAN_POINT('Ctrl Pts',(403.444417688206,375.241348222525,-5.));
#940=CARTESIAN_POINT('Ctrl Pts',(402.125162478808,374.861405089732,-5.));
#941=CARTESIAN_POINT('Ctrl Pts',(399.559621134143,374.167667120724,-5.));
#942=CARTESIAN_POINT('Ctrl Pts',(395.930203902902,373.325493782814,-5.));
#943=CARTESIAN_POINT('Ctrl Pts',(391.536080516996,372.606089944482,-5.));
#944=CARTESIAN_POINT('Ctrl Pts',(386.836866185115,372.426108324641,-5.));
#945=CARTESIAN_POINT('Ctrl Pts',(383.006667116263,373.033910845253,-5.));
#946=CARTESIAN_POINT('Ctrl Pts',(380.124045149025,374.500715784171,-5.));
#947=CARTESIAN_POINT('Ctrl Pts',(378.244862250857,376.877163416505,-5.));
#948=CARTESIAN_POINT('Ctrl Pts',(377.348361232944,380.144436829746,-5.));
#949=CARTESIAN_POINT('Ctrl Pts',(377.368084992747,384.242290992942,-5.));
#950=CARTESIAN_POINT('Ctrl Pts',(378.060655963833,388.134103219513,-5.));
#951=CARTESIAN_POINT('Ctrl Pts',(378.937157815459,391.376658588268,-5.));
#952=CARTESIAN_POINT('Ctrl Pts',(379.67762618,393.679901371761,-5.));
#953=CARTESIAN_POINT('Ctrl Pts',(380.086893634438,394.866907404107,-5.));
#954=CARTESIAN_POINT('',(397.612588496821,394.866907404107,-5.));
#955=CARTESIAN_POINT('',(393.549417688206,388.670907404107,-5.));
#956=CARTESIAN_POINT('Origin',(395.999417688206,388.670907404107,-5.));
#957=CARTESIAN_POINT('',(391.549417688206,250.964907404107,-5.));
#958=CARTESIAN_POINT('Origin',(393.999417688206,250.964907404107,-5.));
#959=CARTESIAN_POINT('Origin',(403.444417688206,394.866907404107,-5.));
#960=CARTESIAN_POINT('',(403.444417688206,269.866131031874,0.));
#961=CARTESIAN_POINT('',(403.444417688206,269.866131031874,0.));
#962=CARTESIAN_POINT('',(403.444417688206,375.241348222525,0.));
#963=CARTESIAN_POINT('',(403.444417688206,245.866907404107,0.));
#964=CARTESIAN_POINT('',(403.444417688206,375.241348222525,0.));
#965=CARTESIAN_POINT('Origin',(403.444417688206,245.866907404107,-5.));
#966=CARTESIAN_POINT('',(379.99966249438,245.866907404107,0.));
#967=CARTESIAN_POINT('',(379.99966249438,245.866907404107,0.));
#968=CARTESIAN_POINT('',(45.2765146647709,245.866907404107,-5.));
#969=CARTESIAN_POINT('',(206.112588496821,245.866907404107,-5.));
#970=CARTESIAN_POINT('',(45.2765146647709,245.866907404107,0.));
#971=CARTESIAN_POINT('',(45.2765146647709,245.866907404107,0.));
#972=CARTESIAN_POINT('',(20.4444176882063,245.866907404107,0.));
#973=CARTESIAN_POINT('Origin',(20.4444176882063,394.866907404107,-5.));
#974=CARTESIAN_POINT('',(380.086893634438,394.866907404107,0.));
#975=CARTESIAN_POINT('',(380.086893634438,394.866907404107,0.));
#976=CARTESIAN_POINT('',(45.0017151193593,394.866907404107,0.));
#977=CARTESIAN_POINT('',(403.444417688206,394.866907404107,0.));
#978=CARTESIAN_POINT('',(45.0017151193593,394.866907404107,0.));
#979=CARTESIAN_POINT('Origin',(5.44441768820633,404.866907404107,-5.));
#980=CARTESIAN_POINT('',(5.44441768820633,235.866907404107,0.));
#981=CARTESIAN_POINT('',(5.44441768820633,235.866907404107,-5.));
#982=CARTESIAN_POINT('',(5.44441768820633,404.866907404107,0.));
#983=CARTESIAN_POINT('',(5.44441768820633,404.866907404107,0.));
#984=CARTESIAN_POINT('',(5.44441768820633,404.866907404107,-5.));
#985=CARTESIAN_POINT('Origin',(418.444417688206,404.866907404107,-5.));
#986=CARTESIAN_POINT('',(418.444417688206,404.866907404107,0.));
#987=CARTESIAN_POINT('',(418.444417688206,404.866907404107,0.));
#988=CARTESIAN_POINT('',(418.444417688206,404.866907404107,-5.));
#989=CARTESIAN_POINT('Origin',(418.444417688206,235.866907404107,-5.));
#990=CARTESIAN_POINT('',(418.444417688206,235.866907404107,0.));
#991=CARTESIAN_POINT('',(418.444417688206,235.866907404107,0.));
#992=CARTESIAN_POINT('',(418.444417688206,235.866907404107,-5.));
#993=CARTESIAN_POINT('Origin',(5.44441768820633,235.866907404107,-5.));
#994=CARTESIAN_POINT('',(5.44441768820633,235.866907404107,0.));
#995=CARTESIAN_POINT('Origin',(29.9394176882063,388.768907404107,0.));
#996=CARTESIAN_POINT('',(27.4894176882063,388.768907404107,0.));
#997=CARTESIAN_POINT('',(27.4894176882063,388.768907404107,0.));
#998=CARTESIAN_POINT('Origin',(29.9394176882063,388.768907404107,0.));
#999=CARTESIAN_POINT('Ctrl Pts',(45.0017151193593,394.866907404107,0.));
#1000=CARTESIAN_POINT('Ctrl Pts',(45.0017151193593,394.866907404107,-5.));
#1001=CARTESIAN_POINT('Ctrl Pts',(45.4104029523259,393.72013812307,0.));
#1002=CARTESIAN_POINT('Ctrl Pts',(45.4104029523259,393.72013812307,-5.));
#1003=CARTESIAN_POINT('Ctrl Pts',(46.1472419696699,391.486748746873,0.));
#1004=CARTESIAN_POINT('Ctrl Pts',(46.1472419696699,391.486748746873,-5.));
#1005=CARTESIAN_POINT('Ctrl Pts',(47.0108874728069,388.317114538365,0.));
#1006=CARTESIAN_POINT('Ctrl Pts',(47.0108874728069,388.317114538365,-5.));
#1007=CARTESIAN_POINT('Ctrl Pts',(47.6712655473394,384.457752798388,0.));
#1008=CARTESIAN_POINT('Ctrl Pts',(47.6712655473394,384.457752798388,-5.));
#1009=CARTESIAN_POINT('Ctrl Pts',(47.6243565451351,380.285093041022,0.));
#1010=CARTESIAN_POINT('Ctrl Pts',(47.6243565451351,380.285093041022,-5.));
#1011=CARTESIAN_POINT('Ctrl Pts',(46.6340108288019,376.817043560592,0.));
#1012=CARTESIAN_POINT('Ctrl Pts',(46.6340108288019,376.817043560592,-5.));
#1013=CARTESIAN_POINT('Ctrl Pts',(44.6339644402673,374.103093914879,0.));
#1014=CARTESIAN_POINT('Ctrl Pts',(44.6339644402673,374.103093914879,-5.));
#1015=CARTESIAN_POINT('Ctrl Pts',(41.6080158791588,372.155344272803,0.));
#1016=CARTESIAN_POINT('Ctrl Pts',(41.6080158791588,372.155344272803,-5.));
#1017=CARTESIAN_POINT('Ctrl Pts',(37.6168166071474,370.92849679657,0.));
#1018=CARTESIAN_POINT('Ctrl Pts',(37.6168166071474,370.92849679657,-5.));
#1019=CARTESIAN_POINT('Ctrl Pts',(32.74211345048,370.361498473247,0.));
#1020=CARTESIAN_POINT('Ctrl Pts',(32.74211345048,370.361498473247,-5.));
#1021=CARTESIAN_POINT('Ctrl Pts',(28.1977988811083,370.389286628638,0.));
#1022=CARTESIAN_POINT('Ctrl Pts',(28.1977988811083,370.389286628638,-5.));
#1023=CARTESIAN_POINT('Ctrl Pts',(24.4507166515435,370.663196746405,0.));
#1024=CARTESIAN_POINT('Ctrl Pts',(24.4507166515435,370.663196746405,-5.));
#1025=CARTESIAN_POINT('Ctrl Pts',(21.8045392692692,370.956429544415,0.));
#1026=CARTESIAN_POINT('Ctrl Pts',(21.8045392692692,370.956429544415,-5.));
#1027=CARTESIAN_POINT('Ctrl Pts',(20.4444176882063,371.130704136518,0.));
#1028=CARTESIAN_POINT('Ctrl Pts',(20.4444176882063,371.130704136518,-5.));
#1029=CARTESIAN_POINT('Ctrl Pts',(45.0017151193593,394.866907404107,0.));
#1030=CARTESIAN_POINT('Ctrl Pts',(45.4104029523259,393.72013812307,0.));
#1031=CARTESIAN_POINT('Ctrl Pts',(46.1472419696699,391.486748746873,0.));
#1032=CARTESIAN_POINT('Ctrl Pts',(47.0108874728069,388.317114538365,0.));
#1033=CARTESIAN_POINT('Ctrl Pts',(47.6712655473394,384.457752798388,0.));
#1034=CARTESIAN_POINT('Ctrl Pts',(47.6243565451351,380.285093041022,0.));
#1035=CARTESIAN_POINT('Ctrl Pts',(46.6340108288019,376.817043560592,0.));
#1036=CARTESIAN_POINT('Ctrl Pts',(44.6339644402673,374.103093914879,0.));
#1037=CARTESIAN_POINT('Ctrl Pts',(41.6080158791588,372.155344272803,0.));
#1038=CARTESIAN_POINT('Ctrl Pts',(37.6168166071474,370.92849679657,0.));
#1039=CARTESIAN_POINT('Ctrl Pts',(32.9686226330952,370.387844759909,0.));
#1040=CARTESIAN_POINT('Ctrl Pts',(28.7235175703535,370.387682613066,0.));
#1041=CARTESIAN_POINT('Ctrl Pts',(25.3151732348874,370.604120461083,0.));
#1042=CARTESIAN_POINT('Ctrl Pts',(23.0221093546885,370.829144496942,0.));
#1043=CARTESIAN_POINT('Ctrl Pts',(22.0044176881262,370.943189415986,0.));
#1044=CARTESIAN_POINT('Origin',(29.3894176882063,253.063907404107,0.));
#1045=CARTESIAN_POINT('',(26.9394176882063,253.063907404107,-5.));
#1046=CARTESIAN_POINT('Origin',(29.3894176882063,253.063907404107,-5.));
#1047=CARTESIAN_POINT('',(26.9394176882063,253.063907404107,0.));
#1048=CARTESIAN_POINT('',(26.9394176882063,253.063907404107,0.));
#1049=CARTESIAN_POINT('Origin',(29.3894176882063,253.063907404107,0.));
#1050=CARTESIAN_POINT('Ctrl Pts',(20.4444176882063,270.001348842699,0.));
#1051=CARTESIAN_POINT('Ctrl Pts',(20.4444176882063,270.001348842699,-5.));
#1052=CARTESIAN_POINT('Ctrl Pts',(21.8567958819643,270.436464765472,0.));
#1053=CARTESIAN_POINT('Ctrl Pts',(21.8567958819643,270.436464765472,-5.));
#1054=CARTESIAN_POINT('Ctrl Pts',(24.6017354558204,271.226699504327,0.));
#1055=CARTESIAN_POINT('Ctrl Pts',(24.6017354558204,271.226699504327,-5.));
#1056=CARTESIAN_POINT('Ctrl Pts',(28.4797024684026,272.172068403599,0.));
#1057=CARTESIAN_POINT('Ctrl Pts',(28.4797024684026,272.172068403599,-5.));
#1058=CARTESIAN_POINT('Ctrl Pts',(33.163491926763,272.944627368171,0.));
#1059=CARTESIAN_POINT('Ctrl Pts',(33.163491926763,272.944627368171,-5.));
#1060=CARTESIAN_POINT('Ctrl Pts',(38.1516391455537,273.041778986593,0.));
#1061=CARTESIAN_POINT('Ctrl Pts',(38.1516391455537,273.041778986593,-5.));
#1062=CARTESIAN_POINT('Ctrl Pts',(42.1952311379928,272.192241784032,0.));
#1063=CARTESIAN_POINT('Ctrl Pts',(42.1952311379928,272.192241784032,-5.));
#1064=CARTESIAN_POINT('Ctrl Pts',(45.2163684016583,270.317940295922,0.));
#1065=CARTESIAN_POINT('Ctrl Pts',(45.2163684016583,270.317940295922,-5.));
#1066=CARTESIAN_POINT('Ctrl Pts',(47.1710441036033,267.374768285132,0.));
#1067=CARTESIAN_POINT('Ctrl Pts',(47.1710441036033,267.374768285132,-5.));
#1068=CARTESIAN_POINT('Ctrl Pts',(48.0996016766149,263.403160313619,0.));
#1069=CARTESIAN_POINT('Ctrl Pts',(48.0996016766149,263.403160313619,-5.));
#1070=CARTESIAN_POINT('Ctrl Pts',(48.0787010369862,258.479949459801,0.));
#1071=CARTESIAN_POINT('Ctrl Pts',(48.0787010369862,258.479949459801,-5.));
#1072=CARTESIAN_POINT('Ctrl Pts',(47.3643401155922,253.842164512319,0.));
#1073=CARTESIAN_POINT('Ctrl Pts',(47.3643401155922,253.842164512319,-5.));
#1074=CARTESIAN_POINT('Ctrl Pts',(46.4610300851888,249.995456251541,0.));
#1075=CARTESIAN_POINT('Ctrl Pts',(46.4610300851888,249.995456251541,-5.));
#1076=CARTESIAN_POINT('Ctrl Pts',(45.6981352329824,247.269932944329,0.));
#1077=CARTESIAN_POINT('Ctrl Pts',(45.6981352329824,247.269932944329,-5.));
#1078=CARTESIAN_POINT('Ctrl Pts',(45.2765146647709,245.866907404107,0.));
#1079=CARTESIAN_POINT('Ctrl Pts',(45.2765146647709,245.866907404107,-5.));
#1080=CARTESIAN_POINT('Ctrl Pts',(22.0044176882063,270.468072711784,0.));
#1081=CARTESIAN_POINT('Ctrl Pts',(23.0730638962094,270.778040197658,0.));
#1082=CARTESIAN_POINT('Ctrl Pts',(25.4632635456195,271.432093695804,0.));
#1083=CARTESIAN_POINT('Ctrl Pts',(29.0014935843711,272.256318194173,0.));
#1084=CARTESIAN_POINT('Ctrl Pts',(33.3866949428627,272.948974580332,0.));
#1085=CARTESIAN_POINT('Ctrl Pts',(38.1516391455537,273.041778986593,0.));
#1086=CARTESIAN_POINT('Ctrl Pts',(42.1952311379928,272.192241784032,0.));
#1087=CARTESIAN_POINT('Ctrl Pts',(45.2163684016583,270.317940295922,0.));
#1088=CARTESIAN_POINT('Ctrl Pts',(47.1710441036033,267.374768285132,0.));
#1089=CARTESIAN_POINT('Ctrl Pts',(48.0996016766149,263.403160313619,0.));
#1090=CARTESIAN_POINT('Ctrl Pts',(48.0787010369862,258.479949459801,0.));
#1091=CARTESIAN_POINT('Ctrl Pts',(47.3643401155922,253.842164512319,0.));
#1092=CARTESIAN_POINT('Ctrl Pts',(46.4610300851888,249.995456251541,0.));
#1093=CARTESIAN_POINT('Ctrl Pts',(45.6981352329824,247.269932944329,0.));
#1094=CARTESIAN_POINT('Ctrl Pts',(45.2765146647709,245.866907404107,0.));
#1095=CARTESIAN_POINT('Ctrl Pts',(22.0044176882063,270.468072711784,-5.));
#1096=CARTESIAN_POINT('Ctrl Pts',(23.0730638962094,270.778040197658,-5.));
#1097=CARTESIAN_POINT('Ctrl Pts',(25.4632635456195,271.432093695804,-5.));
#1098=CARTESIAN_POINT('Ctrl Pts',(29.0014935843711,272.256318194173,-5.));
#1099=CARTESIAN_POINT('Ctrl Pts',(33.3866949428627,272.948974580332,-5.));
#1100=CARTESIAN_POINT('Ctrl Pts',(38.1516391455537,273.041778986593,-5.));
#1101=CARTESIAN_POINT('Ctrl Pts',(42.1952311379928,272.192241784032,-5.));
#1102=CARTESIAN_POINT('Ctrl Pts',(45.2163684016583,270.317940295922,-5.));
#1103=CARTESIAN_POINT('Ctrl Pts',(47.1710441036033,267.374768285132,-5.));
#1104=CARTESIAN_POINT('Ctrl Pts',(48.0996016766149,263.403160313619,-5.));
#1105=CARTESIAN_POINT('Ctrl Pts',(48.0787010369862,258.479949459801,-5.));
#1106=CARTESIAN_POINT('Ctrl Pts',(47.3643401155922,253.842164512319,-5.));
#1107=CARTESIAN_POINT('Ctrl Pts',(46.4610300851888,249.995456251541,-5.));
#1108=CARTESIAN_POINT('Ctrl Pts',(45.6981352329824,247.269932944329,-5.));
#1109=CARTESIAN_POINT('Ctrl Pts',(45.2765146647709,245.866907404107,-5.));
#1110=CARTESIAN_POINT('Origin',(395.999417688206,388.670907404107,0.));
#1111=CARTESIAN_POINT('',(393.549417688206,388.670907404107,0.));
#1112=CARTESIAN_POINT('',(393.549417688206,388.670907404107,0.));
#1113=CARTESIAN_POINT('Origin',(395.999417688206,388.670907404107,0.));
#1114=CARTESIAN_POINT('Ctrl Pts',(403.444417688206,375.241348222525,0.));
#1115=CARTESIAN_POINT('Ctrl Pts',(403.444417688206,375.241348222525,-5.));
#1116=CARTESIAN_POINT('Ctrl Pts',(402.125162478808,374.861405089732,0.));
#1117=CARTESIAN_POINT('Ctrl Pts',(402.125162478808,374.861405089732,-5.));
#1118=CARTESIAN_POINT('Ctrl Pts',(399.559621134143,374.167667120724,0.));
#1119=CARTESIAN_POINT('Ctrl Pts',(399.559621134143,374.167667120724,-5.));
#1120=CARTESIAN_POINT('Ctrl Pts',(395.930203902902,373.325493782814,0.));
#1121=CARTESIAN_POINT('Ctrl Pts',(395.930203902902,373.325493782814,-5.));
#1122=CARTESIAN_POINT('Ctrl Pts',(391.536080516996,372.606089944482,0.));
#1123=CARTESIAN_POINT('Ctrl Pts',(391.536080516996,372.606089944482,-5.));
#1124=CARTESIAN_POINT('Ctrl Pts',(386.836866185115,372.426108324641,0.));
#1125=CARTESIAN_POINT('Ctrl Pts',(386.836866185115,372.426108324641,-5.));
#1126=CARTESIAN_POINT('Ctrl Pts',(383.006667116263,373.033910845253,0.));
#1127=CARTESIAN_POINT('Ctrl Pts',(383.006667116263,373.033910845253,-5.));
#1128=CARTESIAN_POINT('Ctrl Pts',(380.124045149025,374.500715784171,0.));
#1129=CARTESIAN_POINT('Ctrl Pts',(380.124045149025,374.500715784171,-5.));
#1130=CARTESIAN_POINT('Ctrl Pts',(378.244862250857,376.877163416505,0.));
#1131=CARTESIAN_POINT('Ctrl Pts',(378.244862250857,376.877163416505,-5.));
#1132=CARTESIAN_POINT('Ctrl Pts',(377.348361232944,380.144436829746,0.));
#1133=CARTESIAN_POINT('Ctrl Pts',(377.348361232944,380.144436829746,-5.));
#1134=CARTESIAN_POINT('Ctrl Pts',(377.368084992747,384.242290992942,0.));
#1135=CARTESIAN_POINT('Ctrl Pts',(377.368084992747,384.242290992942,-5.));
#1136=CARTESIAN_POINT('Ctrl Pts',(378.060655963833,388.134103219513,0.));
#1137=CARTESIAN_POINT('Ctrl Pts',(378.060655963833,388.134103219513,-5.));
#1138=CARTESIAN_POINT('Ctrl Pts',(378.937157815459,391.376658588268,0.));
#1139=CARTESIAN_POINT('Ctrl Pts',(378.937157815459,391.376658588268,-5.));
#1140=CARTESIAN_POINT('Ctrl Pts',(379.67762618,393.679901371761,0.));
#1141=CARTESIAN_POINT('Ctrl Pts',(379.67762618,393.679901371761,-5.));
#1142=CARTESIAN_POINT('Ctrl Pts',(380.086893634438,394.866907404107,0.));
#1143=CARTESIAN_POINT('Ctrl Pts',(380.086893634438,394.866907404107,-5.));
#1144=CARTESIAN_POINT('Ctrl Pts',(380.086893634438,394.866907404107,0.));
#1145=CARTESIAN_POINT('Ctrl Pts',(379.67762618,393.679901371761,0.));
#1146=CARTESIAN_POINT('Ctrl Pts',(378.937157815459,391.376658588268,0.));
#1147=CARTESIAN_POINT('Ctrl Pts',(378.060655963833,388.134103219513,0.));
#1148=CARTESIAN_POINT('Ctrl Pts',(377.368084992747,384.242290992942,0.));
#1149=CARTESIAN_POINT('Ctrl Pts',(377.348361232944,380.144436829746,0.));
#1150=CARTESIAN_POINT('Ctrl Pts',(378.244862250857,376.877163416505,0.));
#1151=CARTESIAN_POINT('Ctrl Pts',(380.124045149025,374.500715784171,0.));
#1152=CARTESIAN_POINT('Ctrl Pts',(383.006667116263,373.033910845253,0.));
#1153=CARTESIAN_POINT('Ctrl Pts',(386.836866185115,372.426108324641,0.));
#1154=CARTESIAN_POINT('Ctrl Pts',(391.536080516996,372.606089944482,0.));
#1155=CARTESIAN_POINT('Ctrl Pts',(395.930203902902,373.325493782814,0.));
#1156=CARTESIAN_POINT('Ctrl Pts',(399.559621134143,374.167667120724,0.));
#1157=CARTESIAN_POINT('Ctrl Pts',(402.125162478808,374.861405089732,0.));
#1158=CARTESIAN_POINT('Ctrl Pts',(403.444417688206,375.241348222525,0.));
#1159=CARTESIAN_POINT('Origin',(393.999417688206,250.964907404107,0.));
#1160=CARTESIAN_POINT('',(391.549417688206,250.964907404107,0.));
#1161=CARTESIAN_POINT('',(391.549417688206,250.964907404107,0.));
#1162=CARTESIAN_POINT('Origin',(393.999417688206,250.964907404107,0.));
#1163=CARTESIAN_POINT('Ctrl Pts',(379.99966249438,245.866907404107,0.));
#1164=CARTESIAN_POINT('Ctrl Pts',(379.99966249438,245.866907404107,-5.));
#1165=CARTESIAN_POINT('Ctrl Pts',(379.574064767062,247.272575164865,0.));
#1166=CARTESIAN_POINT('Ctrl Pts',(379.574064767062,247.272575164865,-5.));
#1167=CARTESIAN_POINT('Ctrl Pts',(378.800658055223,250.003409494326,0.));
#1168=CARTESIAN_POINT('Ctrl Pts',(378.800658055223,250.003409494326,-5.));
#1169=CARTESIAN_POINT('Ctrl Pts',(377.873905494837,253.85816643746,0.));
#1170=CARTESIAN_POINT('Ctrl Pts',(377.873905494837,253.85816643746,-5.));
#1171=CARTESIAN_POINT('Ctrl Pts',(377.112704184868,258.50682913465,0.));
#1172=CARTESIAN_POINT('Ctrl Pts',(377.112704184868,258.50682913465,-5.));
#1173=CARTESIAN_POINT('Ctrl Pts',(377.005936299076,263.443468368422,0.));
#1174=CARTESIAN_POINT('Ctrl Pts',(377.005936299076,263.443468368422,-5.));
#1175=CARTESIAN_POINT('Ctrl Pts',(377.820491976049,267.426658010069,0.));
#1176=CARTESIAN_POINT('Ctrl Pts',(377.820491976049,267.426658010069,-5.));
#1177=CARTESIAN_POINT('Ctrl Pts',(379.633289883561,270.37679728145,0.));
#1178=CARTESIAN_POINT('Ctrl Pts',(379.633289883561,270.37679728145,-5.));
#1179=CARTESIAN_POINT('Ctrl Pts',(382.489438802304,272.247204484224,0.));
#1180=CARTESIAN_POINT('Ctrl Pts',(382.489438802304,272.247204484224,-5.));
#1181=CARTESIAN_POINT('Ctrl Pts',(386.351630503269,273.076488764103,0.));
#1182=CARTESIAN_POINT('Ctrl Pts',(386.351630503269,273.076488764103,-5.));
#1183=CARTESIAN_POINT('Ctrl Pts',(391.145587614483,272.941517502801,0.));
#1184=CARTESIAN_POINT('Ctrl Pts',(391.145587614483,272.941517502801,-5.));
#1185=CARTESIAN_POINT('Ctrl Pts',(395.665844137943,272.124560930739,0.));
#1186=CARTESIAN_POINT('Ctrl Pts',(395.665844137943,272.124560930739,-5.));
#1187=CARTESIAN_POINT('Ctrl Pts',(399.417030086809,271.138262305004,0.));
#1188=CARTESIAN_POINT('Ctrl Pts',(399.417030086809,271.138262305004,-5.));
#1189=CARTESIAN_POINT('Ctrl Pts',(402.075649705722,270.317397494334,0.));
#1190=CARTESIAN_POINT('Ctrl Pts',(402.075649705722,270.317397494334,-5.));
#1191=CARTESIAN_POINT('Ctrl Pts',(403.444417688206,269.866131031874,0.));
#1192=CARTESIAN_POINT('Ctrl Pts',(403.444417688206,269.866131031874,-5.));
#1193=CARTESIAN_POINT('Ctrl Pts',(379.99966249438,245.866907404107,0.));
#1194=CARTESIAN_POINT('Ctrl Pts',(379.574064767062,247.272575164865,0.));
#1195=CARTESIAN_POINT('Ctrl Pts',(378.800658055223,250.003409494326,0.));
#1196=CARTESIAN_POINT('Ctrl Pts',(377.873905494837,253.85816643746,0.));
#1197=CARTESIAN_POINT('Ctrl Pts',(377.112704184868,258.50682913465,0.));
#1198=CARTESIAN_POINT('Ctrl Pts',(377.005936299076,263.443468368422,0.));
#1199=CARTESIAN_POINT('Ctrl Pts',(377.820491976049,267.426658010069,0.));
#1200=CARTESIAN_POINT('Ctrl Pts',(379.633289883561,270.37679728145,0.));
#1201=CARTESIAN_POINT('Ctrl Pts',(382.489438802304,272.247204484224,0.));
#1202=CARTESIAN_POINT('Ctrl Pts',(386.351630503269,273.076488764103,0.));
#1203=CARTESIAN_POINT('Ctrl Pts',(391.145587614483,272.941517502801,0.));
#1204=CARTESIAN_POINT('Ctrl Pts',(395.665844137943,272.124560930739,0.));
#1205=CARTESIAN_POINT('Ctrl Pts',(399.417030086809,271.138262305004,0.));
#1206=CARTESIAN_POINT('Ctrl Pts',(402.075649705722,270.317397494334,0.));
#1207=CARTESIAN_POINT('Ctrl Pts',(403.444417688206,269.866131031874,0.));
#1208=CARTESIAN_POINT('Origin',(390.225176993641,259.471698084105,-5.));
#1209=CARTESIAN_POINT('Origin',(390.225176993641,259.471698084105,0.));
#1210=UNCERTAINTY_MEASURE_WITH_UNIT(LENGTH_MEASURE(0.01),#1214,
'DISTANCE_ACCURACY_VALUE',
'Maximum model space distance between geometric entities at asserted c
onnectivities');
#1211=UNCERTAINTY_MEASURE_WITH_UNIT(LENGTH_MEASURE(0.01),#1214,
'DISTANCE_ACCURACY_VALUE',
'Maximum model space distance between geometric entities at asserted c
onnectivities');
#1212=(
GEOMETRIC_REPRESENTATION_CONTEXT(3)
GLOBAL_UNCERTAINTY_ASSIGNED_CONTEXT((#1210))
GLOBAL_UNIT_ASSIGNED_CONTEXT((#1214,#1216,#1217))
REPRESENTATION_CONTEXT('','3D')
);
#1213=(
GEOMETRIC_REPRESENTATION_CONTEXT(3)
GLOBAL_UNCERTAINTY_ASSIGNED_CONTEXT((#1211))
GLOBAL_UNIT_ASSIGNED_CONTEXT((#1214,#1216,#1217))
REPRESENTATION_CONTEXT('','3D')
);
#1214=(
LENGTH_UNIT()
NAMED_UNIT(*)
SI_UNIT(.MILLI.,.METRE.)
);
#1215=(
LENGTH_UNIT()
NAMED_UNIT(*)
SI_UNIT($,.METRE.)
);
#1216=(
NAMED_UNIT(*)
PLANE_ANGLE_UNIT()
SI_UNIT($,.RADIAN.)
);
#1217=(
NAMED_UNIT(*)
SI_UNIT($,.STERADIAN.)
SOLID_ANGLE_UNIT()
);
#1218=SHAPE_DEFINITION_REPRESENTATION(#1219,#1220);
#1219=PRODUCT_DEFINITION_SHAPE('',$,#1222);
#1220=SHAPE_REPRESENTATION('',(#630),#1212);
#1221=PRODUCT_DEFINITION_CONTEXT('part definition',#1226,'design');
#1222=PRODUCT_DEFINITION('2026-09-02-15-03-32-432',
'case keyboard mariboard',#1223,#1221);
#1223=PRODUCT_DEFINITION_FORMATION('',$,#1228);
#1224=PRODUCT_RELATED_PRODUCT_CATEGORY('case keyboard mariboard',
'case keyboard mariboard',(#1228));
#1225=APPLICATION_PROTOCOL_DEFINITION('international standard',
'automotive_design',2009,#1226);
#1226=APPLICATION_CONTEXT(
'Core Data for Automotive Mechanical Design Process');
#1227=PRODUCT_CONTEXT('part definition',#1226,'mechanical');
#1228=PRODUCT('2026-09-02-15-03-32-432','case keyboard mariboard',$,(#1227));
#1229=PRESENTATION_STYLE_ASSIGNMENT((#1230));
#1230=SURFACE_STYLE_USAGE(.BOTH.,#1231);
#1231=SURFACE_SIDE_STYLE('',(#1232));
#1232=SURFACE_STYLE_FILL_AREA(#1233);
#1233=FILL_AREA_STYLE('Steel - Satin',(#1234));
#1234=FILL_AREA_STYLE_COLOUR('Steel - Satin',#1235);
#1235=COLOUR_RGB('Steel - Satin',0.627450980392157,0.627450980392157,0.627450980392157);
ENDSEC;
END-ISO-10303-21;
